<?xml version="1.0" standalone="no"?>
<!DOCTYPE svg PUBLIC "-//W3C//DTD SVG 1.1//EN" "http://www.w3.org/Graphics/SVG/1.1/DTD/svg11.dtd" >
<svg xmlns="http://www.w3.org/2000/svg" xmlns:xlink="http://www.w3.org/1999/xlink" version="1.1">
<metadata>
Created by FontForge 20170731 at Thu Jul 21 17:02:15 2016
 By Aleksey,,,
Copyright (c) 2010-2012 by The Entente (AS&#38;EH). All rights reserved. Re-release (Version 2.01) July 2015. For Movistar use only.
</metadata>
<defs>
<font id="ApercuMovistarPlus-Black" horiz-adv-x="564" >
  <font-face 
    font-family="Apercu Movistar Plus Black"
    font-weight="900"
    font-stretch="normal"
    units-per-em="1000"
    panose-1="2 0 5 4 3 0 0 2 0 4"
    ascent="800"
    descent="-200"
    x-height="504"
    cap-height="700"
    bbox="-94 -279 1226 1104"
    underline-thickness="50"
    underline-position="-200"
    unicode-range="U+000D-FB02"
  />
<missing-glyph horiz-adv-x="617" 
d="M69 0v700h479v-700h-479zM416 584h-215v-468h215v468z" />
    <glyph glyph-name="fi" unicode="fi" horiz-adv-x="580" 
d="M25 378v126h54v9q0 93 68.5 144t175.5 51q85 0 144 -26v-141q-61 33 -132 33q-92 0 -92 -66v-4h283v-504h-164v378h-119v-378h-164v378h-54z" />
    <glyph glyph-name="fl" unicode="fl" horiz-adv-x="639" 
d="M25 378v126h54v9q0 95 51 145t143 50h304v-708h-164v580h-118q-25 0 -38.5 -15t-13.5 -41v-20h98v-126h-98v-378h-164v378h-54z" />
    <glyph glyph-name=".notdef" horiz-adv-x="617" 
d="M69 0v700h479v-700h-479zM416 584h-215v-468h215v468z" />
    <glyph glyph-name=".null" horiz-adv-x="0" 
 />
    <glyph glyph-name="nonmarkingreturn" horiz-adv-x="333" 
 />
    <glyph glyph-name="NULL" horiz-adv-x="0" 
 />
    <glyph glyph-name="NULL" horiz-adv-x="0" 
 />
    <glyph glyph-name="CR" unicode="&#xd;" horiz-adv-x="248" 
 />
    <glyph glyph-name="space" unicode=" " horiz-adv-x="248" 
 />
    <glyph glyph-name="exclam" unicode="!" horiz-adv-x="346" 
d="M77 700h196l-32 -450h-132zM86 81q0 38 25.5 63.5t63.5 25.5t63.5 -25.5t25.5 -63.5t-25.5 -63.5t-63.5 -25.5t-63.5 25.5t-25.5 63.5z" />
    <glyph glyph-name="quotedbl" unicode="&#x22;" horiz-adv-x="495" 
d="M299 449l-35 259h169l-35 -259h-99zM97 449l-35 259h169l-35 -259h-99z" />
    <glyph glyph-name="numbersign" unicode="#" horiz-adv-x="724" 
d="M51 301h135l20 98h-115v118h139l37 183h120l-37 -183h92l38 183h120l-38 -183h111v-118h-135l-20 -98h115v-118h-139l-37 -183h-120l37 183h-92l-38 -183h-120l38 183h-111v118zM326 399l-20 -98h92l20 98h-92z" />
    <glyph glyph-name="dollar" unicode="$" horiz-adv-x="549" 
d="M489 577l-132 -87q-33 70 -77 70q-20 0 -32 -11.5t-12 -30.5q0 -27 29.5 -48.5t71 -40.5t83 -42.5t71 -67t29.5 -102.5q0 -88 -45 -144.5t-125 -73.5v-89h-138v90q-73 17 -121 68t-63 120l138 87q34 -131 119 -131q60 0 60 55q0 23 -15.5 42t-39.5 33t-53.5 28t-59.5 32
t-54 41t-39.5 59t-15.5 81q0 66 39 116.5t105 68.5v90h138v-91q90 -23 139 -122z" />
    <glyph glyph-name="percent" unicode="%" horiz-adv-x="822" 
d="M40 548q0 69 46.5 114.5t121.5 45.5t121.5 -45.5t46.5 -114.5t-46.5 -114.5t-121.5 -45.5t-121.5 45.5t-46.5 114.5zM156 548q0 -24 14.5 -39t37.5 -15t37.5 15t14.5 39t-14.5 39t-37.5 15t-37.5 -15t-14.5 -39zM446 152q0 69 46.5 114.5t121.5 45.5t121.5 -45.5
t46.5 -114.5t-46.5 -114.5t-121.5 -45.5t-121.5 45.5t-46.5 114.5zM562 152q0 -24 14.5 -39t37.5 -15t37.5 15t14.5 39t-14.5 39t-37.5 15t-37.5 -15t-14.5 -39zM641 745l88 -70l-538 -719l-88 70z" />
    <glyph glyph-name="ampersand" unicode="&#x26;" horiz-adv-x="664" 
d="M589 279q-21 -84 -48 -132l113 -147h-175l-34 45q-79 -53 -177 -53q-102 0 -168.5 57.5t-66.5 156.5q0 132 132 213q-46 65 -46 141q0 63 47.5 105.5t127.5 42.5q78 0 124.5 -42.5t46.5 -101.5q0 -62 -25.5 -101.5t-81.5 -77.5l94 -123q25 49 45 123zM280 128q46 0 85 23
l-125 167q-53 -39 -53 -102q0 -36 26 -62t67 -26zM259 550q0 -31 23 -65q46 27 46 67q0 14 -9.5 23t-24.5 9t-25 -9.5t-10 -24.5z" />
    <glyph glyph-name="quotesingle" unicode="'" horiz-adv-x="293" 
d="M97 449l-35 259h169l-35 -259h-99z" />
    <glyph glyph-name="parenleft" unicode="(" horiz-adv-x="310" 
d="M155 750h136q-47 -90 -70.5 -183t-23.5 -217q0 -129 23 -218.5t71 -181.5h-136q-32 58 -51 102t-36.5 124.5t-17.5 173.5t17.5 173.5t36.5 124.5t51 102z" />
    <glyph glyph-name="parenright" unicode=")" horiz-adv-x="310" 
d="M19 750h136q32 -58 51 -102t36.5 -124.5t17.5 -173.5t-17.5 -173.5t-36.5 -124.5t-51 -102h-136q48 92 71 181.5t23 218.5q0 124 -23.5 217t-70.5 183z" />
    <glyph glyph-name="asterisk" unicode="*" horiz-adv-x="478" 
d="M74 629l109 -35v114h112v-114l109 35l35 -107l-108 -35l67 -93l-91 -66l-68 94l-68 -94l-91 66l67 93l-108 35z" />
    <glyph glyph-name="plus" unicode="+" horiz-adv-x="604" 
d="M232 504h140v-182h182v-140h-182v-182h-140v182h-182v140h182v182z" />
    <glyph glyph-name="comma" unicode="," horiz-adv-x="359" 
d="M45 -156l71 302h193l-159 -302h-105z" />
    <glyph glyph-name="hyphen" unicode="-" horiz-adv-x="495" 
d="M51 247v140h393v-140h-393z" />
    <glyph glyph-name="period" unicode="." horiz-adv-x="310" 
d="M62 85q0 40 26.5 66.5t66.5 26.5t66.5 -26.5t26.5 -66.5t-26.5 -66.5t-66.5 -26.5t-66.5 26.5t-26.5 66.5z" />
    <glyph glyph-name="slash" unicode="/" horiz-adv-x="582" 
d="M443 750h156l-436 -800h-156z" />
    <glyph glyph-name="zero" unicode="0" horiz-adv-x="620" 
d="M310 708q129 0 199.5 -94.5t70.5 -263.5t-70.5 -263.5t-199.5 -94.5t-199.5 94.5t-70.5 263.5t70.5 263.5t199.5 94.5zM310 564q-55 0 -84.5 -55.5t-29.5 -158.5t29.5 -158.5t84.5 -55.5t84.5 55.5t29.5 158.5t-29.5 158.5t-84.5 55.5z" />
    <glyph glyph-name="one" unicode="1" horiz-adv-x="410" 
d="M254 700h89v-700h-162v482l-128 -76v178z" />
    <glyph glyph-name="two" unicode="2" horiz-adv-x="577" 
d="M50 0v74l256 313q47 59 47 109q0 31 -19 51.5t-50 20.5q-68 0 -80 -84l-147 30q11 83 69.5 138.5t157.5 55.5q105 0 164.5 -58t59.5 -149q0 -86 -80 -186l-139 -175h234v-140h-473z" />
    <glyph glyph-name="three" unicode="3" horiz-adv-x="585" 
d="M44 201l151 22q22 -91 98 -91q38 0 63.5 25.5t25.5 68.5t-26.5 70.5t-67.5 27.5q-35 0 -60 -14l-66 93l118 159h-204v138h417v-66l-150 -199q89 0 141.5 -54t52.5 -154q0 -107 -69 -171t-175 -64q-110 0 -175 58.5t-74 150.5z" />
    <glyph glyph-name="four" unicode="4" horiz-adv-x="616" 
d="M344 0v114h-298v86l292 500h156v-448h82v-138h-82v-114h-150zM221 252h123v218z" />
    <glyph glyph-name="five" unicode="5" horiz-adv-x="576" 
d="M56 188l147 26q6 -40 31 -58t57 -18q35 0 57 24.5t22 69.5t-22.5 71t-62.5 26q-30 0 -57 -15t-41 -40l-120 26l37 400h386v-138h-258l-16 -118q38 20 97 20q106 0 162 -63t56 -169t-67.5 -173t-175.5 -67q-90 0 -156.5 55t-75.5 141z" />
    <glyph glyph-name="six" unicode="6" horiz-adv-x="581" 
d="M306 448q104 0 168 -63t64 -165q0 -100 -67 -164t-173 -64q-108 0 -176 64.5t-68 163.5q0 72 39 141l194 347h171zM298 310q-37 0 -62 -24t-25 -66q0 -40 25 -65t62 -25t62 25t25 65q0 42 -25 66t-62 24z" />
    <glyph glyph-name="seven" unicode="7" horiz-adv-x="512" 
d="M493 700v-72l-254 -628h-167l229 562h-262v138h454z" />
    <glyph glyph-name="eight" unicode="8" horiz-adv-x="584" 
d="M292 708q91 0 150 -55.5t59 -135.5q0 -86 -65 -140q94 -53 94 -168q0 -99 -69.5 -158t-168.5 -59t-168.5 59t-69.5 158q0 115 94 168q-65 54 -65 140q0 80 59 135.5t150 55.5zM292 300q-38 0 -63 -23t-25 -64t25 -64t63 -23t63 23t25 64t-25 64t-63 23zM292 584
q-33 0 -52 -20.5t-19 -53.5t19 -53.5t52 -20.5t52 20.5t19 53.5t-19 53.5t-52 20.5z" />
    <glyph glyph-name="nine" unicode="9" horiz-adv-x="581" 
d="M135 -8l152 260q-104 0 -168 63t-64 165q0 100 67 164t173 64q112 0 178 -64t66 -164q0 -73 -51 -163l-182 -325h-171zM295 390q37 0 62 24t25 66q0 40 -25 65t-62 25t-62 -25t-25 -65q0 -42 25 -66t62 -24z" />
    <glyph glyph-name="colon" unicode=":" horiz-adv-x="317" 
d="M63 85q0 40 26.5 66.5t66.5 26.5t66.5 -26.5t26.5 -66.5t-26.5 -66.5t-66.5 -26.5t-66.5 26.5t-26.5 66.5zM63 419q0 40 26.5 66.5t66.5 26.5t66.5 -26.5t26.5 -66.5t-26.5 -66.5t-66.5 -26.5t-66.5 26.5t-26.5 66.5z" />
    <glyph glyph-name="semicolon" unicode=";" horiz-adv-x="339" 
d="M10 -156l71 302h193l-159 -302h-105zM76 419q0 40 26.5 66.5t66.5 26.5t66.5 -26.5t26.5 -66.5t-26.5 -66.5t-66.5 -26.5t-66.5 26.5t-26.5 66.5z" />
    <glyph glyph-name="less" unicode="&#x3c;" horiz-adv-x="487" 
d="M35 244v132l412 214v-168l-225 -112l225 -112v-168z" />
    <glyph glyph-name="equal" unicode="=" horiz-adv-x="603" 
d="M69 282h465v-140h-465v140zM69 478h465v-140h-465v140z" />
    <glyph glyph-name="greater" unicode="&#x3e;" horiz-adv-x="487" 
d="M452 376v-132l-412 -214v168l225 112l-225 112v168z" />
    <glyph glyph-name="question" unicode="?" horiz-adv-x="460" 
d="M385 318q-20 -55 -56 -80t-94 -25q-63 0 -105 35.5t-42 92.5q0 52 28 87.5t90 57.5q43 15 60 28.5t17 32.5q0 16 -13.5 27.5t-35.5 11.5q-25 0 -40 -16.5t-18 -41.5l-143 24q12 66 65.5 111t134.5 45q89 0 141.5 -42t52.5 -110q0 -67 -37.5 -102.5t-113.5 -61.5
q-31 -10 -43 -20.5t-12 -24.5q0 -9 7 -15t16 -6q24 0 36 32zM146 81q0 38 25.5 63.5t63.5 25.5t63.5 -25.5t25.5 -63.5t-25.5 -63.5t-63.5 -25.5t-63.5 25.5t-25.5 63.5z" />
    <glyph glyph-name="at" unicode="@" horiz-adv-x="894" 
d="M233 296q0 93 59 156.5t163 63.5q58 0 97 -32l10 25h95l-20 -219q-1 -12 -1 -16q0 -44 34 -44q25 0 40 32.5t15 94.5q0 115 -72 180t-190 65q-115 0 -197 -80t-82 -221q0 -57 18 -104.5t47.5 -78.5t67.5 -52.5t77 -30.5t78 -9q64 0 110.5 10t118.5 42l42 -115
q-129 -57 -281 -57q-189 0 -302.5 111t-113.5 284q0 188 118.5 302.5t303.5 114.5q183 0 285.5 -101t102.5 -265q0 -115 -54.5 -179.5t-141.5 -64.5q-36 0 -66.5 16.5t-42.5 40.5q-46 -57 -134 -57q-84 0 -134 52.5t-50 135.5zM452 394q-32 0 -56 -27t-24 -72q0 -31 17 -48
t44 -17q34 0 57.5 28t23.5 69q0 32 -16.5 49.5t-45.5 17.5z" />
    <glyph glyph-name="A" unicode="A" horiz-adv-x="654" 
d="M465 0l-45 149h-186l-45 -149h-184l237 700h170l237 -700h-184zM327 465l-48 -164h96z" />
    <glyph glyph-name="B" unicode="B" horiz-adv-x="635" 
d="M69 700h280q94 0 155.5 -47.5t61.5 -132.5q0 -46 -21.5 -83t-51.5 -55q48 -21 78.5 -64.5t30.5 -106.5q0 -99 -69 -155t-179 -56h-285v700zM331 562h-88v-120h91q72 0 72 60t-75 60zM342 294h-99v-142h99q95 0 95 70q0 72 -95 72z" />
    <glyph glyph-name="C" unicode="C" horiz-adv-x="702" 
d="M678 493l-160 -46q-40 109 -145 109q-68 0 -114.5 -54.5t-46.5 -151.5q0 -98 46.5 -152t114.5 -54q105 0 145 109l158 -44q-30 -107 -108 -162t-193 -55q-146 0 -243.5 94.5t-97.5 263.5q0 168 98.5 263t242.5 95q120 0 199 -57t104 -158z" />
    <glyph glyph-name="D" unicode="D" horiz-adv-x="686" 
d="M306 0h-237v700h237q68 0 129 -21t110 -62t78 -109.5t29 -157.5t-29 -157.5t-78 -109.5t-110 -62t-129 -21zM243 152h41q82 0 136 46t54 152t-54 152t-136 46h-41v-396z" />
    <glyph glyph-name="E" unicode="E" horiz-adv-x="588" 
d="M69 700h476v-152h-298v-99h234v-152h-234v-145h308v-152h-486v700z" />
    <glyph glyph-name="F" unicode="F" horiz-adv-x="573" 
d="M69 700h481v-152h-303v-112h242v-152h-242v-284h-178v700z" />
    <glyph glyph-name="G" unicode="G" horiz-adv-x="724" 
d="M536 0l-9 61q-57 -69 -166 -69q-137 0 -232 94t-95 264q0 115 49 198t125 121.5t169 38.5q117 0 195.5 -59t105.5 -168l-157 -41q-11 52 -51 84t-95 32q-75 0 -124.5 -56t-49.5 -150t49 -150t122 -56q105 0 135 89h-118v130h282v-363h-135z" />
    <glyph glyph-name="H" unicode="H" horiz-adv-x="726" 
d="M69 0v700h178v-244h232v244h178v-700h-178v292h-232v-292h-178z" />
    <glyph glyph-name="I" unicode="I" horiz-adv-x="316" 
d="M247 700v-700h-178v700h178z" />
    <glyph glyph-name="J" unicode="J" horiz-adv-x="540" 
d="M2 198l160 29q11 -83 74 -83q79 0 79 106v450h168v-454q0 -128 -65.5 -191t-181.5 -63q-102 0 -162.5 56.5t-71.5 149.5z" />
    <glyph glyph-name="K" unicode="K" horiz-adv-x="707" 
d="M247 700v-235l216 235h220l-284 -313l304 -387h-225l-231 303v-303h-178v700h178z" />
    <glyph glyph-name="L" unicode="L" horiz-adv-x="547" 
d="M69 700h178v-548h288v-152h-466v700z" />
    <glyph glyph-name="M" unicode="M" horiz-adv-x="800" 
d="M69 0v700h188l143 -384l143 384h188v-700h-160v360l-108 -296h-126l-108 296v-360h-160z" />
    <glyph glyph-name="N" unicode="N" horiz-adv-x="702" 
d="M473 700h160v-700h-173l-231 418v-418h-160v700h173l231 -418v418z" />
    <glyph glyph-name="O" unicode="O" horiz-adv-x="756" 
d="M378 708q143 0 243.5 -93t100.5 -265t-100.5 -265t-243.5 -93t-243.5 93t-100.5 265t100.5 265t243.5 93zM378 556q-72 0 -119 -52.5t-47 -153.5t47 -153.5t119 -52.5t119 52.5t47 153.5t-47 153.5t-119 52.5z" />
    <glyph glyph-name="P" unicode="P" horiz-adv-x="606" 
d="M357 266h-110v-266h-178v700h288q110 0 171.5 -58.5t61.5 -158.5t-61.5 -158.5t-171.5 -58.5zM345 412q37 0 56 19t19 52t-19 52t-56 19h-98v-142h98z" />
    <glyph glyph-name="Q" unicode="Q" horiz-adv-x="759" 
d="M378 708q143 0 243.5 -93t100.5 -265q0 -115 -48 -198l62 -62l-107 -106l-60 60q-85 -52 -191 -52q-143 0 -243.5 93t-100.5 265t100.5 265t243.5 93zM378 556q-72 0 -119 -52.5t-47 -153.5t47 -153.5t119 -52.5q41 0 73 18l-73 72l107 106l53 -53q6 29 6 63
q0 101 -47 153.5t-119 52.5z" />
    <glyph glyph-name="R" unicode="R" horiz-adv-x="648" 
d="M455 0l-179 288h-35v-288h-172v700h277q103 0 163 -55t60 -144q0 -62 -30.5 -113t-85.5 -77l193 -311h-191zM326 436q79 0 79 65t-79 65h-85v-130h85z" />
    <glyph glyph-name="S" unicode="S" horiz-adv-x="549" 
d="M489 577l-132 -87q-33 70 -77 70q-20 0 -32 -11.5t-12 -30.5q0 -27 29.5 -48.5t71 -40.5t83 -42.5t71 -67t29.5 -102.5q0 -105 -63.5 -165t-174.5 -60q-102 0 -169 55.5t-85 140.5l138 87q34 -131 119 -131q60 0 60 55q0 23 -15.5 42t-39.5 33t-53.5 28t-59.5 32t-54 41
t-39.5 59t-15.5 81q0 82 57.5 137.5t148.5 55.5q79 0 130 -31t85 -100z" />
    <glyph glyph-name="T" unicode="T" horiz-adv-x="572" 
d="M7 548v152h558v-152h-190v-548h-178v548h-190z" />
    <glyph glyph-name="U" unicode="U" horiz-adv-x="654" 
d="M602 700v-434q0 -136 -74 -205t-201 -69t-201 69t-74 205v434h164v-432q0 -63 30.5 -92.5t80.5 -29.5t80.5 29.5t30.5 92.5v432h164z" />
    <glyph glyph-name="V" unicode="V" horiz-adv-x="640" 
d="M404 0h-168l-235 700h178l141 -454l141 454h178z" />
    <glyph glyph-name="W" unicode="W" horiz-adv-x="950" 
d="M757 700h178l-183 -700h-172l-105 348l-105 -348h-172l-183 700h178l98 -439l110 365h148l110 -365z" />
    <glyph glyph-name="X" unicode="X" horiz-adv-x="622" 
d="M405 700h184l-185 -322l212 -378h-188l-117 210l-117 -210h-188l214 378l-187 322h184l94 -166z" />
    <glyph glyph-name="Y" unicode="Y" horiz-adv-x="586" 
d="M0 700h186l107 -232l107 232h186l-204 -402v-298h-178v298z" />
    <glyph glyph-name="Z" unicode="Z" horiz-adv-x="566" 
d="M38 550v150h486v-90l-282 -460h298v-150h-517v90l285 460h-270z" />
    <glyph glyph-name="bracketleft" unicode="[" horiz-adv-x="348" 
d="M69 -50v800h254v-134h-108v-532h108v-134h-254z" />
    <glyph glyph-name="backslash" unicode="\" horiz-adv-x="582" 
d="M-17 750h156l436 -800h-156z" />
    <glyph glyph-name="bracketright" unicode="]" horiz-adv-x="348" 
d="M279 750v-800h-254v134h108v532h-108v134h254z" />
    <glyph glyph-name="asciicircum" unicode="^" horiz-adv-x="610" 
d="M237 700h136l197 -297h-158l-107 159l-107 -159h-158z" />
    <glyph glyph-name="underscore" unicode="_" horiz-adv-x="515" 
d="M20 -126v126h475v-126h-475z" />
    <glyph glyph-name="grave" unicode="`" horiz-adv-x="294" 
d="M219 708l63 -160h-119l-152 160h208z" />
    <glyph glyph-name="a" unicode="a" horiz-adv-x="602" 
d="M26 252q0 120 62 190t164 70q89 0 132 -48v40h164v-504h-164v43q-20 -24 -55.5 -37.5t-73.5 -13.5q-104 0 -166.5 70t-62.5 190zM186 252q0 -59 29.5 -89.5t73.5 -30.5t73.5 30.5t29.5 89.5t-29.5 89.5t-73.5 30.5t-73.5 -30.5t-29.5 -89.5z" />
    <glyph glyph-name="b" unicode="b" horiz-adv-x="602" 
d="M568 252q0 -120 -61 -190t-164 -70q-77 0 -117 51v-43h-164v708h164v-244q46 48 120 48q101 0 161.5 -70t60.5 -190zM408 252q0 60 -26 90t-69 30t-69 -30t-26 -90t26 -90t69 -30t69 30t26 90z" />
    <glyph glyph-name="c" unicode="c" 
d="M397 198l141 -59q-65 -147 -243 -147q-120 0 -190.5 74.5t-70.5 185.5t70.5 185.5t190.5 74.5q184 0 242 -148l-145 -60q-25 68 -92 68q-47 0 -71.5 -33t-24.5 -87t24.5 -87t73.5 -33q60 0 95 66z" />
    <glyph glyph-name="d" unicode="d" horiz-adv-x="602" 
d="M34 252q0 120 60.5 190t161.5 70q79 0 120 -48v244h164v-708h-164v43q-42 -51 -117 -51q-103 0 -164 70t-61 190zM194 252q0 -60 26 -90t69 -30t69 30t26 90t-26 90t-69 30t-69 -30t-26 -90z" />
    <glyph glyph-name="e" unicode="e" 
d="M535 210h-348q16 -92 112 -92q64 0 99 54l126 -46q-72 -134 -236 -134q-65 0 -116 23.5t-80 62t-43.5 83t-14.5 91.5q0 63 27 120.5t87 98.5t142 41q65 0 114.5 -23.5t76.5 -62t40.5 -80t13.5 -84.5v-52zM288 393q-33 0 -59.5 -19.5t-37.5 -57.5h193q-6 34 -31 55.5
t-65 21.5z" />
    <glyph glyph-name="f" unicode="f" horiz-adv-x="378" 
d="M25 378v126h54v9q0 95 52.5 145t147.5 50q36 0 65 -8v-137q-21 17 -49 17q-25 0 -38.5 -15t-13.5 -41v-20h102v-126h-102v-378h-164v378h-54z" />
    <glyph glyph-name="g" unicode="g" horiz-adv-x="507" 
d="M258 512q47 0 89 -17l101 53l55 -93l-70 -36q18 -36 18 -77q0 -77 -55.5 -122.5t-137.5 -45.5q-34 0 -66 9q-18 -13 -18 -33q0 -30 43 -30h94q89 0 136.5 -40t47.5 -113q0 -90 -68 -134.5t-168 -44.5q-108 0 -172 43t-64 123q0 56 41 99q-25 30 -25 79q0 26 17 56.5
t48 47.5q-38 43 -38 106q0 77 55 123.5t137 46.5zM212 -4q-24 0 -47 4q-6 -18 -6 -32q0 -28 27 -44t73 -16q40 0 65 12.5t25 36.5q0 39 -67 39h-70zM208 342q0 -22 14 -36t36 -14t36 14t14 36q0 23 -14 37.5t-36 14.5t-36 -14.5t-14 -37.5z" />
    <glyph glyph-name="h" unicode="h" horiz-adv-x="601" 
d="M62 708h164v-262q20 30 60 48t86 18q85 0 129 -44.5t44 -130.5v-337h-164v292q0 35 -18.5 54.5t-46.5 19.5q-90 0 -90 -145v-221h-164v708z" />
    <glyph glyph-name="i" unicode="i" horiz-adv-x="274" 
d="M39 661q0 41 28 69.5t70 28.5t70 -28.5t28 -69.5t-28 -69.5t-70 -28.5t-70 28.5t-28 69.5zM55 504h164v-504h-164v504z" />
    <glyph glyph-name="j" unicode="j" horiz-adv-x="288" 
d="M69 504h164v-478q0 -238 -187 -238q-48 0 -75 11v139q21 -7 41 -7q31 0 44 22t13 71v480zM53 661q0 41 28 69.5t70 28.5t70 -28.5t28 -69.5t-28 -69.5t-70 -28.5t-70 28.5t-28 69.5z" />
    <glyph glyph-name="k" unicode="k" horiz-adv-x="562" 
d="M62 708h164v-354l124 150h196l-202 -232l215 -272h-195l-138 184v-184h-164v708z" />
    <glyph glyph-name="l" unicode="l" horiz-adv-x="288" 
d="M62 708h164v-708h-164v708z" />
    <glyph glyph-name="m" unicode="m" horiz-adv-x="860" 
d="M509 0h-152v306q0 70 -53 70q-90 0 -90 -178v-198h-152v504h152v-60q49 68 131 68q102 0 142 -85q50 85 153 85q78 0 121 -42t43 -113v-357h-152v306q0 70 -52 70q-39 0 -65 -42.5t-26 -134.5v-199z" />
    <glyph glyph-name="n" unicode="n" horiz-adv-x="593" 
d="M62 504h164v-58q21 30 59 48t84 18q168 0 168 -166v-346h-164v298q0 32 -15 50t-42 18q-42 0 -66 -37.5t-24 -107.5v-221h-164v504z" />
    <glyph glyph-name="o" unicode="o" horiz-adv-x="600" 
d="M34 252q0 110 70 185t196 75t196 -75t70 -185t-70 -185t-196 -75t-196 75t-70 185zM198 252q0 -56 25.5 -88t76.5 -32t76.5 32t25.5 88t-25.5 88t-76.5 32t-76.5 -32t-25.5 -88z" />
    <glyph glyph-name="p" unicode="p" horiz-adv-x="602" 
d="M568 252q0 -119 -65 -189.5t-167 -70.5q-76 0 -110 38v-234h-164v708h164v-43q46 51 126 51q97 0 156.5 -70t59.5 -190zM408 252q0 60 -26 90t-69 30t-69 -30t-26 -90t26 -90t69 -30t69 30t26 90z" />
    <glyph glyph-name="q" unicode="q" horiz-adv-x="602" 
d="M34 252q0 120 61 190t164 70q76 0 117 -51v43h164v-708h-164v244q-45 -48 -120 -48q-101 0 -161.5 70t-60.5 190zM194 252q0 -60 26 -90t69 -30t69 30t26 90t-26 90t-69 30t-69 -30t-26 -90z" />
    <glyph glyph-name="r" unicode="r" horiz-adv-x="436" 
d="M226 0h-164v504h164v-55q20 29 58 46t82 17q23 0 43 -6v-156q-23 14 -64 14q-49 0 -84 -45.5t-35 -139.5v-179z" />
    <glyph glyph-name="s" unicode="s" horiz-adv-x="436" 
d="M227 512q111 0 166 -84l-89 -82q-33 44 -76 44q-14 0 -24 -8t-10 -20q0 -14 13.5 -25t45.5 -22q36 -12 55.5 -19.5t43 -21t35.5 -28t20 -36.5t8 -50q0 -71 -50.5 -119.5t-134.5 -48.5q-147 0 -213 137l121 65q28 -78 92 -78q44 0 44 34q0 10 -5.5 18.5t-17.5 15t-22.5 11
t-31 12t-32.5 12.5q-112 45 -112 146q0 61 48 104t126 43z" />
    <glyph glyph-name="t" unicode="t" horiz-adv-x="414" 
d="M368 152v-146q-40 -14 -80 -14q-89 0 -145 48t-56 138v200h-72v126h72v104l160 100v-204h127v-126h-127v-169q0 -73 57 -73q27 0 64 16z" />
    <glyph glyph-name="u" unicode="u" horiz-adv-x="593" 
d="M531 0h-164v58q-48 -66 -143 -66q-168 0 -168 182v330h164v-294q0 -72 57 -72q42 0 66 37.5t24 107.5v221h164v-504z" />
    <glyph glyph-name="v" unicode="v" horiz-adv-x="504" 
d="M5 504h164l83 -282l83 282h164l-175 -504h-144z" />
    <glyph glyph-name="w" unicode="w" horiz-adv-x="788" 
d="M604 504h164l-161 -504h-140l-73 277l-73 -277h-140l-161 504h164l68 -273l68 273h148l68 -273z" />
    <glyph glyph-name="x" unicode="x" horiz-adv-x="526" 
d="M325 504h175l-148 -235l167 -269h-178l-78 134l-78 -134h-178l167 269l-148 235h175l62 -102z" />
    <glyph glyph-name="y" unicode="y" horiz-adv-x="513" 
d="M95 -204l89 244l-181 464h169l91 -245l90 245h158l-262 -708h-154z" />
    <glyph glyph-name="z" unicode="z" horiz-adv-x="476" 
d="M48 368v136h384v-78l-194 -290h208v-136h-414v78l196 290h-180z" />
    <glyph glyph-name="braceleft" unicode="{" horiz-adv-x="344" 
d="M116 50v166q0 40 -16.5 57t-55.5 17v120q39 0 55.5 17t16.5 57v166q0 45 27.5 72.5t72.5 27.5h111v-134h-24q-24 0 -32.5 -9.5t-8.5 -35.5v-123q0 -48 -18.5 -70.5t-55.5 -27.5q37 -5 55.5 -27.5t18.5 -70.5v-123q0 -26 8.5 -35.5t32.5 -9.5h24v-134h-111
q-45 0 -72.5 27.5t-27.5 72.5z" />
    <glyph glyph-name="bar" unicode="|" horiz-adv-x="300" 
d="M69 750h162v-800h-162v800z" />
    <glyph glyph-name="braceright" unicode="}" horiz-adv-x="344" 
d="M228 216v-166q0 -45 -27.5 -72.5t-72.5 -27.5h-111v134h24q24 0 32.5 9.5t8.5 35.5v123q0 48 18.5 70.5t55.5 27.5q-37 5 -55.5 27.5t-18.5 70.5v123q0 26 -8.5 35.5t-32.5 9.5h-24v134h111q45 0 72.5 -27.5t27.5 -72.5v-166q0 -40 16.5 -57t55.5 -17v-120
q-39 0 -55.5 -17t-16.5 -57z" />
    <glyph glyph-name="asciitilde" unicode="~" horiz-adv-x="652" 
d="M143 232l-86 90q19 50 63.5 83.5t103.5 33.5q44 0 106 -29t94 -29q45 0 85 55l86 -90q-19 -50 -63.5 -83.5t-103.5 -33.5q-44 0 -106 29t-94 29q-45 0 -85 -55z" />
    <glyph glyph-name="uni00A0" unicode="&#xa0;" horiz-adv-x="248" 
 />
    <glyph glyph-name="exclamdown" unicode="&#xa1;" horiz-adv-x="346" 
d="M273 -204h-196l32 450h132zM86 415q0 38 25.5 63.5t63.5 25.5t63.5 -25.5t25.5 -63.5t-25.5 -63.5t-63.5 -25.5t-63.5 25.5t-25.5 63.5z" />
    <glyph glyph-name="cent" unicode="&#xa2;" horiz-adv-x="588" 
d="M405 298l141 -59q-53 -119 -173 -141v-148h-138v149q-91 20 -142 89.5t-51 163.5q0 93 51 162.5t142 90.5v145h138v-145q126 -25 172 -141l-145 -60q-25 68 -92 68q-47 0 -71.5 -33t-24.5 -87t24.5 -87t73.5 -33q60 0 95 66z" />
    <glyph glyph-name="sterling" unicode="&#xa3;" horiz-adv-x="572" 
d="M51 304v120h42q-13 42 -13 76q0 90 61 149t161 59q82 0 138.5 -37t80.5 -102l-130 -63q-32 64 -89 64q-31 0 -52.5 -20t-21.5 -56q0 -38 8 -70h164v-120h-134q3 -20 3 -41q0 -78 -67 -136q33 23 78 23q23 0 55.5 -13t50.5 -13q39 0 68 53l103 -67q-37 -63 -79.5 -90.5
t-96.5 -27.5q-37 0 -81.5 15t-73.5 15q-55 0 -121 -30l-76 84q52 46 82 87.5t30 90.5q0 24 -8 50h-82z" />
    <glyph glyph-name="currency" unicode="&#xa4;" horiz-adv-x="566" 
d="M8 149l95 67q-21 44 -21 91t21 91l-95 67l117 117l66 -94q42 21 92 21q48 0 92 -21l66 94l117 -117l-95 -67q21 -43 21 -91q0 -47 -21 -91l95 -67l-117 -117l-66 94q-44 -21 -92 -21q-50 0 -92 21l-66 -94zM218 307q0 -32 17.5 -51.5t47.5 -19.5t47.5 19.5t17.5 51.5
t-17.5 51.5t-47.5 19.5t-47.5 -19.5t-17.5 -51.5z" />
    <glyph glyph-name="yen" unicode="&#xa5;" horiz-adv-x="596" 
d="M7 700h186l105 -242l105 242h186l-150 -288h75v-120h-127v-60h127v-120h-127v-112h-178v112h-127v120h127v60h-127v120h75z" />
    <glyph glyph-name="brokenbar" unicode="&#xa6;" horiz-adv-x="300" 
d="M69 299h162v-349h-162v349zM231 401h-162v349h162v-349z" />
    <glyph glyph-name="section" unicode="&#xa7;" horiz-adv-x="561" 
d="M515 221q0 -89 -63 -141q29 -47 29 -100q0 -88 -57.5 -140t-144.5 -52q-80 0 -138 38.5t-78 112.5l147 45q18 -62 66 -62q19 0 33 12.5t14 39.5q0 38 -32.5 64t-118.5 65q-68 31 -97 71.5t-29 100.5q0 44 16 74t48 65q-30 47 -30 102q0 88 57.5 140t144.5 52
q80 0 138 -38.5t78 -112.5l-147 -45q-18 62 -66 62q-19 0 -33 -12.5t-14 -39.5q0 -38 32.5 -64t118.5 -65q68 -31 97 -71.5t29 -100.5zM234 314q-5 2 -12.5 5.5t-9.5 4.5q-13 -17 -13 -43q0 -21 16.5 -37.5t36.5 -27t73 -34.5l24 -11q13 19 13 44q0 30 -24 47t-104 52z" />
    <glyph glyph-name="dieresis" unicode="&#xa8;" horiz-adv-x="393" 
d="M13 651q0 36 23 59t59 23t59 -23t23 -59t-23 -59t-59 -23t-59 23t-23 59zM216 651q0 36 23 59t59 23t59 -23t23 -59t-23 -59t-59 -23t-59 23t-23 59z" />
    <glyph glyph-name="copyright" unicode="&#xa9;" horiz-adv-x="862" 
d="M46 350q0 166 110.5 278t274.5 112t274.5 -112t110.5 -278t-110.5 -278t-274.5 -112t-274.5 112t-110.5 278zM166 350q0 -119 74.5 -196.5t190.5 -77.5t190.5 77.5t74.5 196.5t-74.5 196.5t-190.5 77.5t-190.5 -77.5t-74.5 -196.5zM507 299l117 -20q-10 -67 -65.5 -106
t-127.5 -39q-84 0 -144.5 57t-60.5 159t60.5 159t144.5 57q72 0 127.5 -39t65.5 -106l-117 -20q-20 59 -76 59q-37 0 -60 -30.5t-23 -79.5t23 -79.5t60 -30.5q56 0 76 59z" />
    <glyph glyph-name="ordfeminine" unicode="&#xaa;" horiz-adv-x="439" 
d="M160 567l-99 24q11 49 53 81t104 32q175 0 175 -166v-238h-100l-8 44q-41 -48 -113 -48q-53 0 -89.5 31.5t-36.5 88.5q0 60 43 95t124 35h62v13q0 51 -57 51q-46 0 -58 -43zM167 424q0 -32 41 -32q30 0 48.5 18.5t18.5 42.5v5h-61q-22 0 -34.5 -9.5t-12.5 -24.5z" />
    <glyph glyph-name="guillemotleft" unicode="&#xab;" horiz-adv-x="696" 
d="M334 263v94l323 229v-164l-159 -112l159 -112v-164zM34 263v94l323 229v-164l-159 -112l159 -112v-164z" />
    <glyph glyph-name="logicalnot" unicode="&#xac;" horiz-adv-x="601" 
d="M46 279v146h501v-305h-162v159h-339z" />
    <glyph glyph-name="registered" unicode="&#xae;" horiz-adv-x="862" 
d="M46 350q0 166 110.5 278t274.5 112t274.5 -112t110.5 -278t-110.5 -278t-274.5 -112t-274.5 112t-110.5 278zM499 137l-109 182h-6v-182h-111v426h171q71 0 108 -32t37 -90q0 -49 -24.5 -79t-65.5 -38l114 -179q83 78 83 205q0 119 -74.5 196.5t-190.5 77.5t-190.5 -77.5
t-74.5 -196.5t74.5 -196.5t190.5 -77.5q103 0 173 61h-105zM434 476h-50v-70h50q26 0 35 8t9 27t-9 27t-35 8z" />
    <glyph glyph-name="macron" unicode="&#xaf;" horiz-adv-x="293" 
d="M8 612v122h277v-122h-277z" />
    <glyph glyph-name="degree" unicode="&#xb0;" horiz-adv-x="378" 
d="M46 572q0 61 41 101.5t102 40.5t102 -40.5t41 -101.5t-41 -101.5t-102 -40.5t-102 40.5t-41 101.5zM143 572q0 -21 12.5 -34t33.5 -13t33.5 13t12.5 34t-12.5 34t-33.5 13t-33.5 -13t-12.5 -34z" />
    <glyph glyph-name="plusminus" unicode="&#xb1;" horiz-adv-x="594" 
d="M230 682h140v-178h178v-140h-178v-178h-140v178h-178v140h178v178zM53 140h496v-140h-496v140z" />
    <glyph glyph-name="twosuperior" unicode="&#xb2;" horiz-adv-x="320" 
d="M22 300v39l147 178q21 25 21 55q0 34 -31 34q-15 0 -25.5 -11t-12.5 -31l-97 25q9 53 46 84t91 31q65 0 101.5 -32.5t36.5 -89.5t-42 -108l-69 -84h114v-90h-280z" />
    <glyph glyph-name="threesuperior" unicode="&#xb3;" horiz-adv-x="337" 
d="M26 427l98 11q2 -20 14.5 -33t32.5 -13q18 0 30.5 11t12.5 33q0 21 -12.5 34t-30.5 13q-22 0 -37 -10l-44 59l61 78h-108v90h250v-46l-83 -103q51 -4 81 -36.5t30 -79.5q0 -63 -39 -101t-109 -38q-63 0 -103.5 38t-43.5 93z" />
    <glyph glyph-name="acute" unicode="&#xb4;" horiz-adv-x="294" 
d="M12 548l63 160h208l-152 -160h-119z" />
    <glyph glyph-name="mu" unicode="&#xb5;" horiz-adv-x="593" 
d="M531 0h-164v58q-48 -66 -143 -66h-4v-196h-164v708h164v-294q0 -72 57 -72q42 0 66 37.5t24 107.5v221h164v-504z" />
    <glyph glyph-name="paragraph" unicode="&#xb6;" horiz-adv-x="754" 
d="M42 457q0 101 71 172t172 71h423v-124h-62v-780h-140v780h-81v-780h-140v418q-101 0 -172 71t-71 172z" />
    <glyph glyph-name="periodcentered" unicode="&#xb7;" horiz-adv-x="310" 
d="M62 375q0 40 26.5 66.5t66.5 26.5t66.5 -26.5t26.5 -66.5t-26.5 -66.5t-66.5 -26.5t-66.5 26.5t-26.5 66.5z" />
    <glyph glyph-name="cedilla" unicode="&#xb8;" horiz-adv-x="269" 
d="M264 -54l-87 -225l-172 79l145 146h114z" />
    <glyph glyph-name="onesuperior" unicode="&#xb9;" horiz-adv-x="243" 
d="M157 700h57v-400h-112v262l-81 -38v111z" />
    <glyph glyph-name="ordmasculine" unicode="&#xba;" horiz-adv-x="510" 
d="M46 500q0 87 55 145.5t154 58.5t154 -58.5t55 -145.5t-55 -145.5t-154 -58.5t-154 58.5t-55 145.5zM179 500q0 -43 20 -68.5t56 -25.5t56 25.5t20 68.5t-20 68.5t-56 25.5t-56 -25.5t-20 -68.5z" />
    <glyph glyph-name="guillemotright" unicode="&#xbb;" horiz-adv-x="696" 
d="M362 357v-94l-323 -229v164l159 112l-159 112v164zM662 357v-94l-323 -229v164l159 112l-159 112v164z" />
    <glyph glyph-name="onequarter" unicode="&#xbc;" horiz-adv-x="770" 
d="M620 745l88 -70l-538 -719l-88 70zM157 700h57v-400h-112v262l-81 -38v111zM604 0v61h-169v49l160 290h114v-246h43v-93h-43v-61h-105zM552 154h52v102z" />
    <glyph glyph-name="onehalf" unicode="&#xbd;" horiz-adv-x="860" 
d="M620 745l88 -70l-538 -719l-88 70zM157 700h57v-400h-112v262l-81 -38v111zM518 0v39l147 178q21 25 21 55q0 34 -31 34q-15 0 -25.5 -11t-12.5 -31l-97 25q9 53 46 84t91 31q65 0 101.5 -32.5t36.5 -89.5t-42 -108l-69 -84h114v-90h-280z" />
    <glyph glyph-name="threequarters" unicode="&#xbe;" horiz-adv-x="795" 
d="M664 745l88 -70l-538 -719l-88 70zM26 427l98 11q2 -20 14.5 -33t32.5 -13q18 0 30.5 11t12.5 33q0 21 -12.5 34t-30.5 13q-22 0 -37 -10l-44 59l61 78h-108v90h250v-46l-83 -103q51 -4 81 -36.5t30 -79.5q0 -63 -39 -101t-109 -38q-63 0 -103.5 38t-43.5 93zM629 0v61
h-169v49l160 290h114v-246h43v-93h-43v-61h-105zM577 154h52v102z" />
    <glyph glyph-name="questiondown" unicode="&#xbf;" horiz-adv-x="470" 
d="M80 178q20 55 56 80t94 25q63 0 105 -35.5t42 -92.5q0 -52 -28 -87.5t-90 -57.5q-43 -15 -60 -28.5t-17 -32.5q0 -16 13.5 -27.5t35.5 -11.5q25 0 40 16.5t18 41.5l143 -24q-12 -66 -65.5 -111t-134.5 -45q-89 0 -141.5 42t-52.5 110q0 67 37.5 102.5t113.5 61.5
q31 10 43 20.5t12 24.5q0 9 -7 15t-16 6q-24 0 -36 -32zM319 415q0 -38 -25.5 -63.5t-63.5 -25.5t-63.5 25.5t-25.5 63.5t25.5 63.5t63.5 25.5t63.5 -25.5t25.5 -63.5z" />
    <glyph glyph-name="Agrave" unicode="&#xc0;" horiz-adv-x="654" 
d="M465 0l-45 149h-186l-45 -149h-184l237 700h170l237 -700h-184zM327 465l-48 -164h96zM350 904l63 -160h-119l-152 160h208z" />
    <glyph glyph-name="Aacute" unicode="&#xc1;" horiz-adv-x="654" 
d="M465 0l-45 149h-186l-45 -149h-184l237 700h170l237 -700h-184zM327 465l-48 -164h96zM229 744l63 160h208l-152 -160h-119z" />
    <glyph glyph-name="Acircumflex" unicode="&#xc2;" horiz-adv-x="654" 
d="M465 0l-45 149h-186l-45 -149h-184l237 700h170l237 -700h-184zM327 465l-48 -164h96zM130 762l176 192h42l176 -192h-143l-54 56l-54 -56h-143z" />
    <glyph glyph-name="Atilde" unicode="&#xc3;" horiz-adv-x="654" 
d="M465 0l-45 149h-186l-45 -149h-184l237 700h170l237 -700h-184zM327 465l-48 -164h96zM202 755l-79 65q18 41 55 68t80 27q35 0 73 -18.5t60 -18.5q32 0 62 41l79 -65q-18 -41 -55 -68t-80 -27q-35 0 -73 18.5t-60 18.5q-32 0 -62 -41z" />
    <glyph glyph-name="Adieresis" unicode="&#xc4;" horiz-adv-x="654" 
d="M465 0l-45 149h-186l-45 -149h-184l237 700h170l237 -700h-184zM327 465l-48 -164h96zM144 847q0 36 23 59t59 23t59 -23t23 -59t-23 -59t-59 -23t-59 23t-23 59zM347 847q0 36 23 59t59 23t59 -23t23 -59t-23 -59t-59 -23t-59 23t-23 59z" />
    <glyph glyph-name="Aring" unicode="&#xc5;" horiz-adv-x="654" 
d="M465 0l-45 149h-186l-45 -149h-184l237 700h170l237 -700h-184zM327 465l-48 -164h96zM219 851q0 46 30.5 76.5t77.5 30.5t77.5 -30.5t30.5 -76.5t-30.5 -76.5t-77.5 -30.5t-77.5 30.5t-30.5 76.5zM297 851q0 -32 30 -32t30 32t-30 32t-30 -32z" />
    <glyph glyph-name="AE" unicode="&#xc6;" horiz-adv-x="918" 
d="M875 700v-152h-298v-99h234v-152h-234v-145h308v-152h-486v149h-150l-60 -149h-184l299 700h571zM382 479l-72 -178h89v178h-17z" />
    <glyph glyph-name="Ccedilla" unicode="&#xc7;" horiz-adv-x="702" 
d="M678 493l-160 -46q-40 109 -145 109q-68 0 -114.5 -54.5t-46.5 -151.5q0 -98 46.5 -152t114.5 -54q105 0 145 109l158 -44q-30 -107 -108 -162t-193 -55q-146 0 -243.5 94.5t-97.5 263.5q0 168 98.5 263t242.5 95q120 0 199 -57t104 -158zM475 -54l-87 -225l-172 79
l145 146h114z" />
    <glyph glyph-name="Egrave" unicode="&#xc8;" horiz-adv-x="588" 
d="M69 700h476v-152h-298v-99h234v-152h-234v-145h308v-152h-486v700zM341 904l63 -160h-119l-152 160h208z" />
    <glyph glyph-name="Eacute" unicode="&#xc9;" horiz-adv-x="588" 
d="M69 700h476v-152h-298v-99h234v-152h-234v-145h308v-152h-486v700zM197 744l63 160h208l-152 -160h-119z" />
    <glyph glyph-name="Ecircumflex" unicode="&#xca;" horiz-adv-x="588" 
d="M69 700h476v-152h-298v-99h234v-152h-234v-145h308v-152h-486v700zM116 762l176 192h42l176 -192h-143l-54 56l-54 -56h-143z" />
    <glyph glyph-name="Edieresis" unicode="&#xcb;" horiz-adv-x="588" 
d="M69 700h476v-152h-298v-99h234v-152h-234v-145h308v-152h-486v700zM126 847q0 36 23 59t59 23t59 -23t23 -59t-23 -59t-59 -23t-59 23t-23 59zM329 847q0 36 23 59t59 23t59 -23t23 -59t-23 -59t-59 -23t-59 23t-23 59z" />
    <glyph glyph-name="Igrave" unicode="&#xcc;" horiz-adv-x="330" 
d="M258 700v-700h-178v700h178zM214 904l63 -160h-119l-152 160h208z" />
    <glyph glyph-name="Iacute" unicode="&#xcd;" horiz-adv-x="330" 
d="M250 700v-700h-178v700h178zM53 744l63 160h208l-152 -160h-119z" />
    <glyph glyph-name="Icircumflex" unicode="&#xce;" horiz-adv-x="332" 
d="M255 700v-700h-178v700h178zM-31 762l176 192h42l176 -192h-143l-54 56l-54 -56h-143z" />
    <glyph glyph-name="Idieresis" unicode="&#xcf;" horiz-adv-x="337" 
d="M258 700v-700h-178v700h178zM-14 847q0 36 23 59t59 23t59 -23t23 -59t-23 -59t-59 -23t-59 23t-23 59zM189 847q0 36 23 59t59 23t59 -23t23 -59t-23 -59t-59 -23t-59 23t-23 59z" />
    <glyph glyph-name="Eth" unicode="&#xd0;" horiz-adv-x="716" 
d="M17 284v132h82v284h237q68 0 129 -21t110 -62t78 -109.5t29 -157.5t-29 -157.5t-78 -109.5t-110 -62t-129 -21h-237v284h-82zM273 152h41q82 0 136 46t54 152t-54 152t-136 46h-41v-132h94v-132h-94v-132z" />
    <glyph glyph-name="Ntilde" unicode="&#xd1;" horiz-adv-x="702" 
d="M473 700h160v-700h-173l-231 418v-418h-160v700h173l231 -418v418zM226 755l-79 65q18 41 55 68t80 27q35 0 73 -18.5t60 -18.5q32 0 62 41l79 -65q-18 -41 -55 -68t-80 -27q-35 0 -73 18.5t-60 18.5q-32 0 -62 -41z" />
    <glyph glyph-name="Ograve" unicode="&#xd2;" horiz-adv-x="756" 
d="M378 708q143 0 243.5 -93t100.5 -265t-100.5 -265t-243.5 -93t-243.5 93t-100.5 265t100.5 265t243.5 93zM378 556q-72 0 -119 -52.5t-47 -153.5t47 -153.5t119 -52.5t119 52.5t47 153.5t-47 153.5t-119 52.5zM400 904l63 -160h-119l-152 160h208z" />
    <glyph glyph-name="Oacute" unicode="&#xd3;" horiz-adv-x="756" 
d="M378 708q143 0 243.5 -93t100.5 -265t-100.5 -265t-243.5 -93t-243.5 93t-100.5 265t100.5 265t243.5 93zM378 556q-72 0 -119 -52.5t-47 -153.5t47 -153.5t119 -52.5t119 52.5t47 153.5t-47 153.5t-119 52.5zM280 744l63 160h208l-152 -160h-119z" />
    <glyph glyph-name="Ocircumflex" unicode="&#xd4;" horiz-adv-x="756" 
d="M378 708q143 0 243.5 -93t100.5 -265t-100.5 -265t-243.5 -93t-243.5 93t-100.5 265t100.5 265t243.5 93zM378 556q-72 0 -119 -52.5t-47 -153.5t47 -153.5t119 -52.5t119 52.5t47 153.5t-47 153.5t-119 52.5zM181 762l176 192h42l176 -192h-143l-54 56l-54 -56h-143z
" />
    <glyph glyph-name="Otilde" unicode="&#xd5;" horiz-adv-x="756" 
d="M378 708q143 0 243.5 -93t100.5 -265t-100.5 -265t-243.5 -93t-243.5 93t-100.5 265t100.5 265t243.5 93zM378 556q-72 0 -119 -52.5t-47 -153.5t47 -153.5t119 -52.5t119 52.5t47 153.5t-47 153.5t-119 52.5zM253 755l-79 65q18 41 55 68t80 27q35 0 73 -18.5t60 -18.5
q32 0 62 41l79 -65q-18 -41 -55 -68t-80 -27q-35 0 -73 18.5t-60 18.5q-32 0 -62 -41z" />
    <glyph glyph-name="Odieresis" unicode="&#xd6;" horiz-adv-x="756" 
d="M378 708q143 0 243.5 -93t100.5 -265t-100.5 -265t-243.5 -93t-243.5 93t-100.5 265t100.5 265t243.5 93zM378 556q-72 0 -119 -52.5t-47 -153.5t47 -153.5t119 -52.5t119 52.5t47 153.5t-47 153.5t-119 52.5zM195 847q0 36 23 59t59 23t59 -23t23 -59t-23 -59t-59 -23
t-59 23t-23 59zM398 847q0 36 23 59t59 23t59 -23t23 -59t-23 -59t-59 -23t-59 23t-23 59z" />
    <glyph glyph-name="multiply" unicode="&#xd7;" horiz-adv-x="600" 
d="M46 472l99 99l155 -155l155 155l99 -99l-155 -155l155 -155l-99 -99l-155 155l-155 -155l-99 99l155 155z" />
    <glyph glyph-name="Oslash" unicode="&#xd8;" horiz-adv-x="756" 
d="M378 708q91 0 166 -38l60 78l106 -78l-63 -82q75 -93 75 -238q0 -172 -100.5 -265t-243.5 -93q-91 0 -166 38l-60 -78l-106 78l63 82q-75 93 -75 238q0 172 100.5 265t243.5 93zM544 350q0 48 -13 90l-219 -282q30 -12 66 -12q72 0 119 51.5t47 152.5zM378 554
q-72 0 -119 -51.5t-47 -152.5q0 -48 13 -90l219 282q-30 12 -66 12z" />
    <glyph glyph-name="Ugrave" unicode="&#xd9;" horiz-adv-x="654" 
d="M602 700v-434q0 -136 -74 -205t-201 -69t-201 69t-74 205v434h164v-432q0 -63 30.5 -92.5t80.5 -29.5t80.5 29.5t30.5 92.5v432h164zM347 904l63 -160h-119l-152 160h208z" />
    <glyph glyph-name="Uacute" unicode="&#xda;" horiz-adv-x="654" 
d="M602 700v-434q0 -136 -74 -205t-201 -69t-201 69t-74 205v434h164v-432q0 -63 30.5 -92.5t80.5 -29.5t80.5 29.5t30.5 92.5v432h164zM244 744l63 160h208l-152 -160h-119z" />
    <glyph glyph-name="Ucircumflex" unicode="&#xdb;" horiz-adv-x="654" 
d="M602 700v-434q0 -136 -74 -205t-201 -69t-201 69t-74 205v434h164v-432q0 -63 30.5 -92.5t80.5 -29.5t80.5 29.5t30.5 92.5v432h164zM130 762l176 192h42l176 -192h-143l-54 56l-54 -56h-143z" />
    <glyph glyph-name="Udieresis" unicode="&#xdc;" horiz-adv-x="654" 
d="M602 700v-434q0 -136 -74 -205t-201 -69t-201 69t-74 205v434h164v-432q0 -63 30.5 -92.5t80.5 -29.5t80.5 29.5t30.5 92.5v432h164zM144 847q0 36 23 59t59 23t59 -23t23 -59t-23 -59t-59 -23t-59 23t-23 59zM347 847q0 36 23 59t59 23t59 -23t23 -59t-23 -59t-59 -23
t-59 23t-23 59z" />
    <glyph glyph-name="Yacute" unicode="&#xdd;" horiz-adv-x="586" 
d="M0 700h186l107 -232l107 232h186l-204 -402v-298h-178v298zM203 744l63 160h208l-152 -160h-119z" />
    <glyph glyph-name="Thorn" unicode="&#xde;" horiz-adv-x="606" 
d="M357 133h-110v-133h-178v700h178v-133h110q110 0 171.5 -58.5t61.5 -158.5t-61.5 -158.5t-171.5 -58.5zM345 279q37 0 56 19t19 52t-19 52t-56 19h-98v-142h98z" />
    <glyph glyph-name="germandbls" unicode="&#xdf;" horiz-adv-x="584" 
d="M25 314v136h43v50q0 99 63.5 153.5t161.5 54.5q102 0 155.5 -48.5t53.5 -128.5q0 -47 -24.5 -80.5t-60.5 -49.5q136 -51 136 -193q0 -108 -61 -162t-167 -54q-50 0 -80 8v134q33 -13 60 -13q41 0 66.5 26.5t25.5 69.5t-30.5 70t-84.5 27h-24v136h17q37 0 59 18t22 52
q0 25 -16.5 43.5t-46.5 18.5t-48.5 -21t-18.5 -58v-503h-158v314h-43z" />
    <glyph glyph-name="agrave" unicode="&#xe0;" horiz-adv-x="602" 
d="M26 252q0 120 62 190t164 70q89 0 132 -48v40h164v-504h-164v43q-20 -24 -55.5 -37.5t-73.5 -13.5q-104 0 -166.5 70t-62.5 190zM186 252q0 -59 29.5 -89.5t73.5 -30.5t73.5 30.5t29.5 89.5t-29.5 89.5t-73.5 30.5t-73.5 -30.5t-29.5 -89.5zM315 708l63 -160h-119
l-152 160h208z" />
    <glyph glyph-name="aacute" unicode="&#xe1;" horiz-adv-x="602" 
d="M26 252q0 120 62 190t164 70q89 0 132 -48v40h164v-504h-164v43q-20 -24 -55.5 -37.5t-73.5 -13.5q-104 0 -166.5 70t-62.5 190zM186 252q0 -59 29.5 -89.5t73.5 -30.5t73.5 30.5t29.5 89.5t-29.5 89.5t-73.5 30.5t-73.5 -30.5t-29.5 -89.5zM208 548l63 160h208
l-152 -160h-119z" />
    <glyph glyph-name="acircumflex" unicode="&#xe2;" horiz-adv-x="602" 
d="M26 252q0 120 62 190t164 70q89 0 132 -48v40h164v-504h-164v43q-20 -24 -55.5 -37.5t-73.5 -13.5q-104 0 -166.5 70t-62.5 190zM186 252q0 -59 29.5 -89.5t73.5 -30.5t73.5 30.5t29.5 89.5t-29.5 89.5t-73.5 30.5t-73.5 -30.5t-29.5 -89.5zM99 566l176 192h42l176 -192
h-143l-54 56l-54 -56h-143z" />
    <glyph glyph-name="atilde" unicode="&#xe3;" horiz-adv-x="602" 
d="M26 252q0 120 62 190t164 70q89 0 132 -48v40h164v-504h-164v43q-20 -24 -55.5 -37.5t-73.5 -13.5q-104 0 -166.5 70t-62.5 190zM186 252q0 -59 29.5 -89.5t73.5 -30.5t73.5 30.5t29.5 89.5t-29.5 89.5t-73.5 30.5t-73.5 -30.5t-29.5 -89.5zM163 559l-79 65q18 41 55 68
t80 27q35 0 73 -18.5t60 -18.5q32 0 62 41l79 -65q-18 -41 -55 -68t-80 -27q-35 0 -73 18.5t-60 18.5q-32 0 -62 -41z" />
    <glyph glyph-name="adieresis" unicode="&#xe4;" horiz-adv-x="602" 
d="M26 252q0 120 62 190t164 70q89 0 132 -48v40h164v-504h-164v43q-20 -24 -55.5 -37.5t-73.5 -13.5q-104 0 -166.5 70t-62.5 190zM186 252q0 -59 29.5 -89.5t73.5 -30.5t73.5 30.5t29.5 89.5t-29.5 89.5t-73.5 30.5t-73.5 -30.5t-29.5 -89.5zM110 651q0 36 23 59t59 23
t59 -23t23 -59t-23 -59t-59 -23t-59 23t-23 59zM313 651q0 36 23 59t59 23t59 -23t23 -59t-23 -59t-59 -23t-59 23t-23 59z" />
    <glyph glyph-name="aring" unicode="&#xe5;" horiz-adv-x="602" 
d="M26 252q0 120 62 190t164 70q89 0 132 -48v40h164v-504h-164v43q-20 -24 -55.5 -37.5t-73.5 -13.5q-104 0 -166.5 70t-62.5 190zM186 252q0 -59 29.5 -89.5t73.5 -30.5t73.5 30.5t29.5 89.5t-29.5 89.5t-73.5 30.5t-73.5 -30.5t-29.5 -89.5zM163 655q0 46 30.5 76.5
t77.5 30.5t77.5 -30.5t30.5 -76.5t-30.5 -76.5t-77.5 -30.5t-77.5 30.5t-30.5 76.5zM241 655q0 -32 30 -32t30 32t-30 32t-30 -32z" />
    <glyph glyph-name="ae" unicode="&#xe6;" horiz-adv-x="849" 
d="M174 338l-126 30q15 63 68 103.5t132 40.5q105 0 165 -56q70 56 160 56q55 0 98.5 -16t70.5 -41.5t45.5 -59t25.5 -66.5t7 -67v-60h-340q22 -77 100 -77q66 0 102 60l130 -46q-67 -147 -239 -147q-130 0 -198 89q-56 -89 -179 -89q-72 0 -119 40.5t-47 112.5
q0 77 54.5 121t157.5 44h80v17q0 66 -74 66q-57 0 -74 -55zM573 393q-32 0 -58 -22t-34 -61h185q-4 35 -28.5 59t-64.5 24zM183 155q0 -40 53 -40q39 0 62.5 22.5t23.5 56.5v8h-79q-28 0 -44 -13.5t-16 -33.5z" />
    <glyph glyph-name="ccedilla" unicode="&#xe7;" 
d="M397 198l141 -59q-65 -147 -243 -147q-120 0 -190.5 74.5t-70.5 185.5t70.5 185.5t190.5 74.5q184 0 242 -148l-145 -60q-25 68 -92 68q-47 0 -71.5 -33t-24.5 -87t24.5 -87t73.5 -33q60 0 95 66zM385 -54l-87 -225l-172 79l145 146h114z" />
    <glyph glyph-name="egrave" unicode="&#xe8;" 
d="M535 210h-348q16 -92 112 -92q64 0 99 54l126 -46q-72 -134 -236 -134q-65 0 -116 23.5t-80 62t-43.5 83t-14.5 91.5q0 63 27 120.5t87 98.5t142 41q65 0 114.5 -23.5t76.5 -62t40.5 -80t13.5 -84.5v-52zM288 393q-33 0 -59.5 -19.5t-37.5 -57.5h193q-6 34 -31 55.5
t-65 21.5zM306 708l63 -160h-119l-152 160h208z" />
    <glyph glyph-name="eacute" unicode="&#xe9;" 
d="M535 210h-348q16 -92 112 -92q64 0 99 54l126 -46q-72 -134 -236 -134q-65 0 -116 23.5t-80 62t-43.5 83t-14.5 91.5q0 63 27 120.5t87 98.5t142 41q65 0 114.5 -23.5t76.5 -62t40.5 -80t13.5 -84.5v-52zM288 393q-33 0 -59.5 -19.5t-37.5 -57.5h193q-6 34 -31 55.5
t-65 21.5zM193 548l63 160h208l-152 -160h-119z" />
    <glyph glyph-name="ecircumflex" unicode="&#xea;" 
d="M535 210h-348q16 -92 112 -92q64 0 99 54l126 -46q-72 -134 -236 -134q-65 0 -116 23.5t-80 62t-43.5 83t-14.5 91.5q0 63 27 120.5t87 98.5t142 41q65 0 114.5 -23.5t76.5 -62t40.5 -80t13.5 -84.5v-52zM288 393q-33 0 -59.5 -19.5t-37.5 -57.5h193q-6 34 -31 55.5
t-65 21.5zM90 566l176 192h42l176 -192h-143l-54 56l-54 -56h-143z" />
    <glyph glyph-name="edieresis" unicode="&#xeb;" 
d="M535 210h-348q16 -92 112 -92q64 0 99 54l126 -46q-72 -134 -236 -134q-65 0 -116 23.5t-80 62t-43.5 83t-14.5 91.5q0 63 27 120.5t87 98.5t142 41q65 0 114.5 -23.5t76.5 -62t40.5 -80t13.5 -84.5v-52zM288 393q-33 0 -59.5 -19.5t-37.5 -57.5h193q-6 34 -31 55.5
t-65 21.5zM106 651q0 36 23 59t59 23t59 -23t23 -59t-23 -59t-59 -23t-59 23t-23 59zM309 651q0 36 23 59t59 23t59 -23t23 -59t-23 -59t-59 -23t-59 23t-23 59z" />
    <glyph glyph-name="igrave" unicode="&#xec;" horiz-adv-x="276" 
d="M54 504h164v-504h-164v504zM176 708l63 -160h-119l-152 160h208z" />
    <glyph glyph-name="iacute" unicode="&#xed;" horiz-adv-x="276" 
d="M52 504h164v-504h-164v504zM37 548l63 160h208l-152 -160h-119z" />
    <glyph glyph-name="icircumflex" unicode="&#xee;" horiz-adv-x="270" 
d="M53 504h164v-504h-164v504zM-62 566l176 192h42l176 -192h-143l-54 56l-54 -56h-143z" />
    <glyph glyph-name="idieresis" unicode="&#xef;" horiz-adv-x="274" 
d="M55 504h164v-504h-164v504zM-46 651q0 36 23 59t59 23t59 -23t23 -59t-23 -59t-59 -23t-59 23t-23 59zM157 651q0 36 23 59t59 23t59 -23t23 -59t-23 -59t-59 -23t-59 23t-23 59z" />
    <glyph glyph-name="eth" unicode="&#xf0;" horiz-adv-x="590" 
d="M176 585l23 33q-45 22 -81 34l70 115q52 -21 87 -39l36 52l84 -57l-32 -46q98 -68 145.5 -164.5t47.5 -236.5q0 -128 -68 -206t-191 -78q-122 0 -192.5 73.5t-70.5 186.5t70 186.5t193 73.5q28 0 53 -8q-24 30 -65 61l-26 -38zM201 252q0 -52 24.5 -86t71.5 -34
q46 0 70.5 34t24.5 86q-1 52 -25 86t-70 34q-47 0 -71.5 -34t-24.5 -86z" />
    <glyph glyph-name="ntilde" unicode="&#xf1;" horiz-adv-x="593" 
d="M62 504h164v-58q21 30 59 48t84 18q168 0 168 -166v-346h-164v298q0 32 -15 50t-42 18q-42 0 -66 -37.5t-24 -107.5v-221h-164v504zM181 559l-79 65q18 41 55 68t80 27q35 0 73 -18.5t60 -18.5q32 0 62 41l79 -65q-18 -41 -55 -68t-80 -27q-35 0 -73 18.5t-60 18.5
q-32 0 -62 -41z" />
    <glyph glyph-name="ograve" unicode="&#xf2;" horiz-adv-x="600" 
d="M34 252q0 110 70 185t196 75t196 -75t70 -185t-70 -185t-196 -75t-196 75t-70 185zM198 252q0 -56 25.5 -88t76.5 -32t76.5 32t25.5 88t-25.5 88t-76.5 32t-76.5 -32t-25.5 -88zM321 708l63 -160h-119l-152 160h208z" />
    <glyph glyph-name="oacute" unicode="&#xf3;" horiz-adv-x="600" 
d="M34 252q0 110 70 185t196 75t196 -75t70 -185t-70 -185t-196 -75t-196 75t-70 185zM198 252q0 -56 25.5 -88t76.5 -32t76.5 32t25.5 88t-25.5 88t-76.5 32t-76.5 -32t-25.5 -88zM208 548l63 160h208l-152 -160h-119z" />
    <glyph glyph-name="ocircumflex" unicode="&#xf4;" horiz-adv-x="600" 
d="M34 252q0 110 70 185t196 75t196 -75t70 -185t-70 -185t-196 -75t-196 75t-70 185zM198 252q0 -56 25.5 -88t76.5 -32t76.5 32t25.5 88t-25.5 88t-76.5 32t-76.5 -32t-25.5 -88zM103 566l176 192h42l176 -192h-143l-54 56l-54 -56h-143z" />
    <glyph glyph-name="otilde" unicode="&#xf5;" horiz-adv-x="600" 
d="M34 252q0 110 70 185t196 75t196 -75t70 -185t-70 -185t-196 -75t-196 75t-70 185zM198 252q0 -56 25.5 -88t76.5 -32t76.5 32t25.5 88t-25.5 88t-76.5 32t-76.5 -32t-25.5 -88zM175 559l-79 65q18 41 55 68t80 27q35 0 73 -18.5t60 -18.5q32 0 62 41l79 -65
q-18 -41 -55 -68t-80 -27q-35 0 -73 18.5t-60 18.5q-32 0 -62 -41z" />
    <glyph glyph-name="odieresis" unicode="&#xf6;" horiz-adv-x="600" 
d="M34 252q0 110 70 185t196 75t196 -75t70 -185t-70 -185t-196 -75t-196 75t-70 185zM198 252q0 -56 25.5 -88t76.5 -32t76.5 32t25.5 88t-25.5 88t-76.5 32t-76.5 -32t-25.5 -88zM117 651q0 36 23 59t59 23t59 -23t23 -59t-23 -59t-59 -23t-59 23t-23 59zM320 651
q0 36 23 59t59 23t59 -23t23 -59t-23 -59t-59 -23t-59 23t-23 59z" />
    <glyph glyph-name="divide" unicode="&#xf7;" horiz-adv-x="558" 
d="M33 255v120h492v-120h-492zM186 124q0 40 26.5 66.5t66.5 26.5t66.5 -26.5t26.5 -66.5t-26.5 -66.5t-66.5 -26.5t-66.5 26.5t-26.5 66.5zM186 506q0 40 26.5 66.5t66.5 26.5t66.5 -26.5t26.5 -66.5t-26.5 -66.5t-66.5 -26.5t-66.5 26.5t-26.5 66.5z" />
    <glyph glyph-name="oslash" unicode="&#xf8;" horiz-adv-x="602" 
d="M35 252q0 110 70 185t196 75q59 0 107 -17l60 77l106 -79l-59 -76q52 -67 52 -165q0 -110 -70 -185t-196 -75q-59 0 -107 17l-60 -77l-106 79l59 76q-52 67 -52 165zM403 252v19l-112 -139h10q50 0 76 32t26 88zM199 252v-19l112 139h-10q-50 0 -76 -32t-26 -88z" />
    <glyph glyph-name="ugrave" unicode="&#xf9;" horiz-adv-x="593" 
d="M531 0h-164v58q-48 -66 -143 -66q-168 0 -168 182v330h164v-294q0 -72 57 -72q42 0 66 37.5t24 107.5v221h164v-504zM311 708l63 -160h-119l-152 160h208z" />
    <glyph glyph-name="uacute" unicode="&#xfa;" horiz-adv-x="593" 
d="M531 0h-164v58q-48 -66 -143 -66q-168 0 -168 182v330h164v-294q0 -72 57 -72q42 0 66 37.5t24 107.5v221h164v-504zM209 548l63 160h208l-152 -160h-119z" />
    <glyph glyph-name="ucircumflex" unicode="&#xfb;" horiz-adv-x="593" 
d="M531 0h-164v58q-48 -66 -143 -66q-168 0 -168 182v330h164v-294q0 -72 57 -72q42 0 66 37.5t24 107.5v221h164v-504zM98 566l176 192h42l176 -192h-143l-54 56l-54 -56h-143z" />
    <glyph glyph-name="udieresis" unicode="&#xfc;" horiz-adv-x="593" 
d="M531 0h-164v58q-48 -66 -143 -66q-168 0 -168 182v330h164v-294q0 -72 57 -72q42 0 66 37.5t24 107.5v221h164v-504zM114 651q0 36 23 59t59 23t59 -23t23 -59t-23 -59t-59 -23t-59 23t-23 59zM317 651q0 36 23 59t59 23t59 -23t23 -59t-23 -59t-59 -23t-59 23t-23 59z
" />
    <glyph glyph-name="yacute" unicode="&#xfd;" horiz-adv-x="513" 
d="M95 -204l89 244l-181 464h169l91 -245l90 245h158l-262 -708h-154zM175 548l63 160h208l-152 -160h-119z" />
    <glyph glyph-name="thorn" unicode="&#xfe;" horiz-adv-x="602" 
d="M568 252q0 -119 -65 -189.5t-167 -70.5q-76 0 -110 38v-234h-164v904h164v-239q46 51 126 51q97 0 156.5 -70t59.5 -190zM408 252q0 60 -26.5 90t-69.5 30t-68.5 -30t-25.5 -90t25.5 -90t68.5 -30t69.5 30t26.5 90z" />
    <glyph glyph-name="ydieresis" unicode="&#xff;" horiz-adv-x="513" 
d="M95 -204l89 244l-181 464h169l91 -245l90 245h158l-262 -708h-154zM79 651q0 36 23 59t59 23t59 -23t23 -59t-23 -59t-59 -23t-59 23t-23 59zM282 651q0 36 23 59t59 23t59 -23t23 -59t-23 -59t-59 -23t-59 23t-23 59z" />
    <glyph glyph-name="Amacron" unicode="&#x100;" horiz-adv-x="654" 
d="M465 0l-45 149h-186l-45 -149h-184l237 700h170l237 -700h-184zM327 465l-48 -164h96zM189 788v122h277v-122h-277z" />
    <glyph glyph-name="amacron" unicode="&#x101;" horiz-adv-x="602" 
d="M26 252q0 120 62 190t164 70q89 0 132 -48v40h164v-504h-164v43q-20 -24 -55.5 -37.5t-73.5 -13.5q-104 0 -166.5 70t-62.5 190zM186 252q0 -59 29.5 -89.5t73.5 -30.5t73.5 30.5t29.5 89.5t-29.5 89.5t-73.5 30.5t-73.5 -30.5t-29.5 -89.5zM145 592v122h277v-122h-277z
" />
    <glyph glyph-name="Abreve" unicode="&#x102;" horiz-adv-x="654" 
d="M465 0l-45 149h-186l-45 -149h-184l237 700h170l237 -700h-184zM327 465l-48 -164h96zM197 896h103q0 -12 7.5 -20t19.5 -8t19.5 8t7.5 20h103q0 -50 -35.5 -85t-94.5 -35t-94.5 35t-35.5 85z" />
    <glyph glyph-name="abreve" unicode="&#x103;" horiz-adv-x="602" 
d="M26 252q0 120 62 190t164 70q89 0 132 -48v40h164v-504h-164v43q-20 -24 -55.5 -37.5t-73.5 -13.5q-104 0 -166.5 70t-62.5 190zM186 252q0 -59 29.5 -89.5t73.5 -30.5t73.5 30.5t29.5 89.5t-29.5 89.5t-73.5 30.5t-73.5 -30.5t-29.5 -89.5zM169 700h103q0 -12 7.5 -20
t19.5 -8t19.5 8t7.5 20h103q0 -50 -35.5 -85t-94.5 -35t-94.5 35t-35.5 85z" />
    <glyph glyph-name="Aogonek" unicode="&#x104;" horiz-adv-x="644" 
d="M465 0l-45 149h-186l-45 -149h-184l237 700h170l237 -700q-20 -18 -28 -26.5t-16 -20.5t-8 -22q0 -20 21 -20q19 0 40 32l66 -51q-27 -46 -56.5 -65t-70.5 -19q-49 0 -76 24.5t-27 67.5q0 58 60 100h-89zM327 465l-48 -164h96z" />
    <glyph glyph-name="aogonek" unicode="&#x105;" horiz-adv-x="602" 
d="M453 0h-69v43q-20 -24 -55.5 -37.5t-73.5 -13.5q-104 0 -166.5 70t-62.5 190t62 190t164 70q89 0 132 -48v40h164v-504q-20 -18 -28 -26.5t-16 -20.5t-8 -22q0 -20 21 -20q19 0 40 32l66 -51q-27 -46 -56.5 -65t-70.5 -19q-49 0 -76 24.5t-27 67.5q0 58 60 100zM186 252
q0 -59 29.5 -89.5t73.5 -30.5t73.5 30.5t29.5 89.5t-29.5 89.5t-73.5 30.5t-73.5 -30.5t-29.5 -89.5z" />
    <glyph glyph-name="Cacute" unicode="&#x106;" horiz-adv-x="702" 
d="M678 493l-160 -46q-40 109 -145 109q-68 0 -114.5 -54.5t-46.5 -151.5q0 -98 46.5 -152t114.5 -54q105 0 145 109l158 -44q-30 -107 -108 -162t-193 -55q-146 0 -243.5 94.5t-97.5 263.5q0 168 98.5 263t242.5 95q120 0 199 -57t104 -158zM286 744l63 160h208l-152 -160
h-119z" />
    <glyph glyph-name="cacute" unicode="&#x107;" 
d="M397 198l141 -59q-65 -147 -243 -147q-120 0 -190.5 74.5t-70.5 185.5t70.5 185.5t190.5 74.5q184 0 242 -148l-145 -60q-25 68 -92 68q-47 0 -71.5 -33t-24.5 -87t24.5 -87t73.5 -33q60 0 95 66zM208 548l63 160h208l-152 -160h-119z" />
    <glyph glyph-name="Ccircumflex" unicode="&#x108;" horiz-adv-x="702" 
d="M678 493l-160 -46q-40 109 -145 109q-68 0 -114.5 -54.5t-46.5 -151.5q0 -98 46.5 -152t114.5 -54q105 0 145 109l158 -44q-30 -107 -108 -162t-193 -55q-146 0 -243.5 94.5t-97.5 263.5q0 168 98.5 263t242.5 95q120 0 199 -57t104 -158zM180 762l176 192h42l176 -192
h-143l-54 56l-54 -56h-143z" />
    <glyph glyph-name="ccircumflex" unicode="&#x109;" 
d="M397 198l141 -59q-65 -147 -243 -147q-120 0 -190.5 74.5t-70.5 185.5t70.5 185.5t190.5 74.5q184 0 242 -148l-145 -60q-25 68 -92 68q-47 0 -71.5 -33t-24.5 -87t24.5 -87t73.5 -33q60 0 95 66zM100 566l176 192h42l176 -192h-143l-54 56l-54 -56h-143z" />
    <glyph glyph-name="Cdotaccent" unicode="&#x10a;" horiz-adv-x="702" 
d="M678 493l-160 -46q-40 109 -145 109q-68 0 -114.5 -54.5t-46.5 -151.5q0 -98 46.5 -152t114.5 -54q105 0 145 109l158 -44q-30 -107 -108 -162t-193 -55q-146 0 -243.5 94.5t-97.5 263.5q0 168 98.5 263t242.5 95q120 0 199 -57t104 -158zM280 857q0 41 28 69.5t70 28.5
t70 -28.5t28 -69.5t-28 -69.5t-70 -28.5t-70 28.5t-28 69.5z" />
    <glyph glyph-name="cdotaccent" unicode="&#x10b;" 
d="M397 198l141 -59q-65 -147 -243 -147q-120 0 -190.5 74.5t-70.5 185.5t70.5 185.5t190.5 74.5q184 0 242 -148l-145 -60q-25 68 -92 68q-47 0 -71.5 -33t-24.5 -87t24.5 -87t73.5 -33q60 0 95 66zM197 661q0 41 28 69.5t70 28.5t70 -28.5t28 -69.5t-28 -69.5t-70 -28.5
t-70 28.5t-28 69.5z" />
    <glyph glyph-name="Ccaron" unicode="&#x10c;" horiz-adv-x="702" 
d="M678 493l-160 -46q-40 109 -145 109q-68 0 -114.5 -54.5t-46.5 -151.5q0 -98 46.5 -152t114.5 -54q105 0 145 109l158 -44q-30 -107 -108 -162t-193 -55q-146 0 -243.5 94.5t-97.5 263.5q0 168 98.5 263t242.5 95q120 0 199 -57t104 -158zM355 762l-176 192h143l54 -56
l54 56h143l-176 -192h-42z" />
    <glyph glyph-name="ccaron" unicode="&#x10d;" 
d="M397 198l141 -59q-65 -147 -243 -147q-120 0 -190.5 74.5t-70.5 185.5t70.5 185.5t190.5 74.5q184 0 242 -148l-145 -60q-25 68 -92 68q-47 0 -71.5 -33t-24.5 -87t24.5 -87t73.5 -33q60 0 95 66zM274 566l-176 192h143l54 -56l54 56h143l-176 -192h-42z" />
    <glyph glyph-name="Dcaron" unicode="&#x10e;" horiz-adv-x="687" 
d="M307 0h-237v700h237q68 0 129 -21t110 -62t78 -109.5t29 -157.5t-29 -157.5t-78 -109.5t-110 -62t-129 -21zM244 152h41q82 0 136 46t54 152t-54 152t-136 46h-41v-396zM240 762l-176 192h143l54 -56l54 56h143l-176 -192h-42z" />
    <glyph glyph-name="dcaron" unicode="&#x10f;" horiz-adv-x="766" 
d="M598 541l29 197h151l-88 -197h-92zM34 252q0 120 60.5 190t161.5 70q79 0 120 -48v244h164v-708h-164v43q-42 -51 -117 -51q-103 0 -164 70t-61 190zM194 252q0 -60 26 -90t69 -30t69 30t26 90t-26 90t-69 30t-69 -30t-26 -90z" />
    <glyph glyph-name="Dcroat" unicode="&#x110;" horiz-adv-x="716" 
d="M17 284v132h82v284h237q68 0 129 -21t110 -62t78 -109.5t29 -157.5t-29 -157.5t-78 -109.5t-110 -62t-129 -21h-237v284h-82zM273 152h41q82 0 136 46t54 152t-54 152t-136 46h-41v-132h94v-132h-94v-132z" />
    <glyph glyph-name="dcroat" unicode="&#x111;" horiz-adv-x="610" 
d="M276 549v112h100v47h164v-47h63v-112h-63v-549h-164v43q-42 -51 -117 -51q-103 0 -164 70t-61 190t60.5 190t161.5 70q79 0 120 -48v85h-100zM194 252q0 -60 26.5 -90t69.5 -30t68.5 30t25.5 90t-25.5 90t-68.5 30t-69.5 -30t-26.5 -90z" />
    <glyph glyph-name="Emacron" unicode="&#x112;" horiz-adv-x="588" 
d="M69 700h476v-152h-298v-99h234v-152h-234v-145h308v-152h-486v700zM179 788v122h277v-122h-277z" />
    <glyph glyph-name="emacron" unicode="&#x113;" 
d="M535 210h-348q16 -92 112 -92q64 0 99 54l126 -46q-72 -134 -236 -134q-65 0 -116 23.5t-80 62t-43.5 83t-14.5 91.5q0 63 27 120.5t87 98.5t142 41q65 0 114.5 -23.5t76.5 -62t40.5 -80t13.5 -84.5v-52zM288 393q-33 0 -59.5 -19.5t-37.5 -57.5h193q-6 34 -31 55.5
t-65 21.5zM151 592v122h277v-122h-277z" />
    <glyph glyph-name="Ebreve" unicode="&#x114;" horiz-adv-x="588" 
d="M69 700h476v-152h-298v-99h234v-152h-234v-145h308v-152h-486v700zM178 896h103q0 -12 7.5 -20t19.5 -8t19.5 8t7.5 20h103q0 -50 -35.5 -85t-94.5 -35t-94.5 35t-35.5 85z" />
    <glyph glyph-name="ebreve" unicode="&#x115;" 
d="M535 210h-348q16 -92 112 -92q64 0 99 54l126 -46q-72 -134 -236 -134q-65 0 -116 23.5t-80 62t-43.5 83t-14.5 91.5q0 63 27 120.5t87 98.5t142 41q65 0 114.5 -23.5t76.5 -62t40.5 -80t13.5 -84.5v-52zM288 393q-33 0 -59.5 -19.5t-37.5 -57.5h193q-6 34 -31 55.5
t-65 21.5zM155 700h103q0 -12 7.5 -20t19.5 -8t19.5 8t7.5 20h103q0 -50 -35.5 -85t-94.5 -35t-94.5 35t-35.5 85z" />
    <glyph glyph-name="Edotaccent" unicode="&#x116;" horiz-adv-x="588" 
d="M69 700h476v-152h-298v-99h234v-152h-234v-145h308v-152h-486v700zM205 857q0 41 28 69.5t70 28.5t70 -28.5t28 -69.5t-28 -69.5t-70 -28.5t-70 28.5t-28 69.5z" />
    <glyph glyph-name="edotaccent" unicode="&#x117;" 
d="M535 210h-348q16 -92 112 -92q64 0 99 54l126 -46q-72 -134 -236 -134q-65 0 -116 23.5t-80 62t-43.5 83t-14.5 91.5q0 63 27 120.5t87 98.5t142 41q65 0 114.5 -23.5t76.5 -62t40.5 -80t13.5 -84.5v-52zM288 393q-33 0 -59.5 -19.5t-37.5 -57.5h193q-6 34 -31 55.5
t-65 21.5zM190 661q0 41 28 69.5t70 28.5t70 -28.5t28 -69.5t-28 -69.5t-70 -28.5t-70 28.5t-28 69.5z" />
    <glyph glyph-name="Eogonek" unicode="&#x118;" horiz-adv-x="588" 
d="M460 0h-391v700h476v-152h-298v-99h234v-152h-234v-145h308v-152q-20 -18 -28 -26.5t-16 -20.5t-8 -22q0 -20 21 -20q19 0 40 32l66 -51q-27 -46 -56.5 -65t-70.5 -19q-49 0 -76 24.5t-27 67.5q0 58 60 100z" />
    <glyph glyph-name="eogonek" unicode="&#x119;" 
d="M535 202h-340q22 -77 100 -77q66 0 102 60l130 -46q-52 -113 -164 -139q-20 -18 -28 -26.5t-16 -20.5t-8 -22q0 -20 21 -20q19 0 40 32l66 -51q-27 -46 -56.5 -65t-70.5 -19q-49 0 -76 24.5t-27 67.5q0 55 51 94q-58 5 -102.5 29.5t-70.5 62t-39 80t-13 86.5
q0 47 14.5 91.5t43.5 83t80 62t116 23.5q55 0 98.5 -16t70.5 -41.5t45.5 -59t25.5 -66.5t7 -67v-60zM288 393q-69 0 -91 -77h183q-4 34 -28 55.5t-64 21.5z" />
    <glyph glyph-name="Ecaron" unicode="&#x11a;" horiz-adv-x="588" 
d="M69 700h476v-152h-298v-99h234v-152h-234v-145h308v-152h-486v700zM285 762l-176 192h143l54 -56l54 56h143l-176 -192h-42z" />
    <glyph glyph-name="ecaron" unicode="&#x11b;" 
d="M535 210h-348q16 -92 112 -92q64 0 99 54l126 -46q-72 -134 -236 -134q-65 0 -116 23.5t-80 62t-43.5 83t-14.5 91.5q0 63 27 120.5t87 98.5t142 41q65 0 114.5 -23.5t76.5 -62t40.5 -80t13.5 -84.5v-52zM288 393q-33 0 -59.5 -19.5t-37.5 -57.5h193q-6 34 -31 55.5
t-65 21.5zM269 566l-176 192h143l54 -56l54 56h143l-176 -192h-42z" />
    <glyph glyph-name="Gcircumflex" unicode="&#x11c;" horiz-adv-x="724" 
d="M536 0l-9 61q-57 -69 -166 -69q-137 0 -232 94t-95 264q0 115 49 198t125 121.5t169 38.5q117 0 195.5 -59t105.5 -168l-157 -41q-11 52 -51 84t-95 32q-75 0 -124.5 -56t-49.5 -150t49 -150t122 -56q105 0 135 89h-118v130h282v-363h-135zM180 762l176 192h42l176 -192
h-143l-54 56l-54 -56h-143z" />
    <glyph glyph-name="gcircumflex" unicode="&#x11d;" horiz-adv-x="507" 
d="M258 512q47 0 89 -17l101 53l55 -93l-70 -36q18 -36 18 -77q0 -77 -55.5 -122.5t-137.5 -45.5q-34 0 -66 9q-18 -13 -18 -33q0 -30 43 -30h94q89 0 136.5 -40t47.5 -113q0 -90 -68 -134.5t-168 -44.5q-108 0 -172 43t-64 123q0 56 41 99q-25 30 -25 79q0 26 17 56.5
t48 47.5q-38 43 -38 106q0 77 55 123.5t137 46.5zM212 -4q-24 0 -47 4q-6 -18 -6 -32q0 -28 27 -44t73 -16q40 0 65 12.5t25 36.5q0 39 -67 39h-70zM208 342q0 -22 14 -36t36 -14t36 14t14 36q0 23 -14 37.5t-36 14.5t-36 -14.5t-14 -37.5zM61 566l176 192h42l176 -192h-143
l-54 56l-54 -56h-143z" />
    <glyph glyph-name="Gbreve" unicode="&#x11e;" horiz-adv-x="724" 
d="M536 0l-9 61q-57 -69 -166 -69q-137 0 -232 94t-95 264q0 115 49 198t125 121.5t169 38.5q117 0 195.5 -59t105.5 -168l-157 -41q-11 52 -51 84t-95 32q-75 0 -124.5 -56t-49.5 -150t49 -150t122 -56q105 0 135 89h-118v130h282v-363h-135zM246 896h103q0 -12 7.5 -20
t19.5 -8t19.5 8t7.5 20h103q0 -50 -35.5 -85t-94.5 -35t-94.5 35t-35.5 85z" />
    <glyph glyph-name="gbreve" unicode="&#x11f;" horiz-adv-x="507" 
d="M258 512q47 0 89 -17l101 53l55 -93l-70 -36q18 -36 18 -77q0 -77 -55.5 -122.5t-137.5 -45.5q-34 0 -66 9q-18 -13 -18 -33q0 -30 43 -30h94q89 0 136.5 -40t47.5 -113q0 -90 -68 -134.5t-168 -44.5q-108 0 -172 43t-64 123q0 56 41 99q-25 30 -25 79q0 26 17 56.5
t48 47.5q-38 43 -38 106q0 77 55 123.5t137 46.5zM212 -4q-24 0 -47 4q-6 -18 -6 -32q0 -28 27 -44t73 -16q40 0 65 12.5t25 36.5q0 39 -67 39h-70zM208 342q0 -22 14 -36t36 -14t36 14t14 36q0 23 -14 37.5t-36 14.5t-36 -14.5t-14 -37.5zM129 700h103q0 -12 7.5 -20
t19.5 -8t19.5 8t7.5 20h103q0 -50 -35.5 -85t-94.5 -35t-94.5 35t-35.5 85z" />
    <glyph glyph-name="Gdotaccent" unicode="&#x120;" horiz-adv-x="724" 
d="M536 0l-9 61q-57 -69 -166 -69q-137 0 -232 94t-95 264q0 115 49 198t125 121.5t169 38.5q117 0 195.5 -59t105.5 -168l-157 -41q-11 52 -51 84t-95 32q-75 0 -124.5 -56t-49.5 -150t49 -150t122 -56q105 0 135 89h-118v130h282v-363h-135zM280 857q0 41 28 69.5t70 28.5
t70 -28.5t28 -69.5t-28 -69.5t-70 -28.5t-70 28.5t-28 69.5z" />
    <glyph glyph-name="gdotaccent" unicode="&#x121;" horiz-adv-x="507" 
d="M258 512q47 0 89 -17l101 53l55 -93l-70 -36q18 -36 18 -77q0 -77 -55.5 -122.5t-137.5 -45.5q-34 0 -66 9q-18 -13 -18 -33q0 -30 43 -30h94q89 0 136.5 -40t47.5 -113q0 -90 -68 -134.5t-168 -44.5q-108 0 -172 43t-64 123q0 56 41 99q-25 30 -25 79q0 26 17 56.5
t48 47.5q-38 43 -38 106q0 77 55 123.5t137 46.5zM212 -4q-24 0 -47 4q-6 -18 -6 -32q0 -28 27 -44t73 -16q40 0 65 12.5t25 36.5q0 39 -67 39h-70zM208 342q0 -22 14 -36t36 -14t36 14t14 36q0 23 -14 37.5t-36 14.5t-36 -14.5t-14 -37.5zM163 661q0 41 28 69.5t70 28.5
t70 -28.5t28 -69.5t-28 -69.5t-70 -28.5t-70 28.5t-28 69.5z" />
    <glyph glyph-name="uni0122" unicode="&#x122;" horiz-adv-x="724" 
d="M239 -264l54 212h183l-132 -212h-105zM536 0l-9 61q-57 -69 -166 -69q-137 0 -232 94t-95 264q0 115 49 198t125 121.5t169 38.5q117 0 195.5 -59t105.5 -168l-157 -41q-11 52 -51 84t-95 32q-75 0 -124.5 -56t-49.5 -150t49 -150t122 -56q105 0 135 89h-118v130h282
v-363h-135z" />
    <glyph glyph-name="uni0123" unicode="&#x123;" horiz-adv-x="507" 
d="M268 750l46 -182h-105l-110 182h169zM258 512q47 0 89 -17l101 53l55 -93l-70 -36q18 -36 18 -77q0 -77 -55.5 -122.5t-137.5 -45.5q-34 0 -66 9q-18 -13 -18 -33q0 -30 43 -30h94q89 0 136.5 -40t47.5 -113q0 -90 -68 -134.5t-168 -44.5q-108 0 -172 43t-64 123
q0 56 41 99q-25 30 -25 79q0 26 17 56.5t48 47.5q-38 43 -38 106q0 77 55 123.5t137 46.5zM212 -4q-24 0 -47 4q-6 -18 -6 -32q0 -28 27 -44t73 -16q40 0 65 12.5t25 36.5q0 39 -67 39h-70zM208 342q0 -22 14 -36t36 -14t36 14t14 36q0 23 -14 37.5t-36 14.5t-36 -14.5
t-14 -37.5z" />
    <glyph glyph-name="Hcircumflex" unicode="&#x124;" horiz-adv-x="726" 
d="M69 0v700h178v-244h232v244h178v-700h-178v292h-232v-292h-178zM166 762l176 192h42l176 -192h-143l-54 56l-54 -56h-143z" />
    <glyph glyph-name="hcircumflex" unicode="&#x125;" horiz-adv-x="601" 
d="M62 708h164v-262q20 30 60 48t86 18q85 0 129 -44.5t44 -130.5v-337h-164v292q0 35 -18.5 54.5t-46.5 19.5q-90 0 -90 -145v-221h-164v708zM62 762l176 192h42l176 -192h-143l-54 56l-54 -56h-143z" />
    <glyph glyph-name="Hbar" unicode="&#x126;" horiz-adv-x="738" 
d="M20 486v128h55v86h178v-86h232v86h178v-86h55v-128h-55v-486h-178v292h-232v-292h-178v486h-55zM253 456h232v30h-232v-30z" />
    <glyph glyph-name="hbar" unicode="&#x127;" horiz-adv-x="609" 
d="M70 708h164v-47h100v-112h-100v-103q20 30 60 48t86 18q85 0 129 -44.5t44 -130.5v-337h-164v292q0 35 -18.5 54.5t-46.5 19.5q-90 0 -90 -145v-221h-164v549h-63v112h63v47z" />
    <glyph glyph-name="Itilde" unicode="&#x128;" horiz-adv-x="330" 
d="M262 700v-700h-178v700h178zM48 755l-79 65q18 41 55 68t80 27q35 0 73 -18.5t60 -18.5q32 0 62 41l79 -65q-18 -41 -55 -68t-80 -27q-35 0 -73 18.5t-60 18.5q-32 0 -62 -41z" />
    <glyph glyph-name="itilde" unicode="&#x129;" horiz-adv-x="268" 
d="M52 504h164v-504h-164v504zM9 559l-79 65q18 41 55 68t80 27q35 0 73 -18.5t60 -18.5q32 0 62 41l79 -65q-18 -41 -55 -68t-80 -27q-35 0 -73 18.5t-60 18.5q-32 0 -62 -41z" />
    <glyph glyph-name="Imacron" unicode="&#x12a;" horiz-adv-x="332" 
d="M259 700v-700h-178v700h178zM32 788v122h277v-122h-277z" />
    <glyph glyph-name="imacron" unicode="&#x12b;" horiz-adv-x="286" 
d="M61 504h164v-504h-164v504zM5 592v122h277v-122h-277z" />
    <glyph glyph-name="Ibreve" unicode="&#x12c;" horiz-adv-x="329" 
d="M258 700v-700h-178v700h178zM39 896h103q0 -12 7.5 -20t19.5 -8t19.5 8t7.5 20h103q0 -50 -35.5 -85t-94.5 -35t-94.5 35t-35.5 85z" />
    <glyph glyph-name="ibreve" unicode="&#x12d;" horiz-adv-x="284" 
d="M60 504h164v-504h-164v504zM12 700h103q0 -12 7.5 -20t19.5 -8t19.5 8t7.5 20h103q0 -50 -35.5 -85t-94.5 -35t-94.5 35t-35.5 85z" />
    <glyph glyph-name="Iogonek" unicode="&#x12e;" horiz-adv-x="328" 
d="M152 0h-83v700h178v-700q-20 -18 -28 -26.5t-16 -20.5t-8 -22q0 -20 21 -20q19 0 40 32l66 -51q-27 -46 -56.5 -65t-70.5 -19q-49 0 -76 24.5t-27 67.5q0 58 60 100z" />
    <glyph glyph-name="iogonek" unicode="&#x12f;" horiz-adv-x="278" 
d="M124 0h-69v504h164v-504q-20 -18 -28 -26.5t-16 -20.5t-8 -22q0 -20 21 -20q19 0 40 32l66 -51q-27 -46 -56.5 -65t-70.5 -19q-49 0 -76 24.5t-27 67.5q0 58 60 100zM39 661q0 41 28 69.5t70 28.5t70 -28.5t28 -69.5t-28 -69.5t-70 -28.5t-70 28.5t-28 69.5z" />
    <glyph glyph-name="Idotaccent" unicode="&#x130;" horiz-adv-x="320" 
d="M249 700v-700h-178v700h178zM62 857q0 41 28 69.5t70 28.5t70 -28.5t28 -69.5t-28 -69.5t-70 -28.5t-70 28.5t-28 69.5z" />
    <glyph glyph-name="dotlessi" unicode="&#x131;" horiz-adv-x="266" 
d="M51 504h164v-504h-164v504z" />
    <glyph glyph-name="IJ" unicode="&#x132;" horiz-adv-x="849" 
d="M247 700v-700h-178v700h178zM311 198l160 29q11 -83 74 -83q79 0 79 106v450h168v-454q0 -128 -65.5 -191t-181.5 -63q-102 0 -162.5 56.5t-71.5 149.5z" />
    <glyph glyph-name="ij" unicode="&#x133;" horiz-adv-x="539" 
d="M31 661q0 41 28 69.5t70 28.5t70 -28.5t28 -69.5t-28 -69.5t-70 -28.5t-70 28.5t-28 69.5zM47 504h164v-504h-164v504zM320 504h164v-478q0 -238 -187 -238q-48 0 -75 11v139q21 -7 41 -7q31 0 44 22t13 71v480zM304 661q0 41 28 69.5t70 28.5t70 -28.5t28 -69.5
t-28 -69.5t-70 -28.5t-70 28.5t-28 69.5z" />
    <glyph glyph-name="Jcircumflex" unicode="&#x134;" horiz-adv-x="544" 
d="M2 198l160 29q11 -83 74 -83q79 0 79 106v450h168v-454q0 -128 -65.5 -191t-181.5 -63q-102 0 -162.5 56.5t-71.5 149.5zM201 762l176 192h42l176 -192h-143l-54 56l-54 -56h-143z" />
    <glyph glyph-name="jcircumflex" unicode="&#x135;" horiz-adv-x="283" 
d="M66 504h164v-446q0 -120 -62 -188.5t-169 -81.5l-41 135q56 12 82 37t26 83v461zM-49 566l176 192h42l176 -192h-143l-54 56l-54 -56h-143z" />
    <glyph glyph-name="uni0136" unicode="&#x136;" horiz-adv-x="707" 
d="M214 -264l54 212h183l-132 -212h-105zM247 700v-235l216 235h220l-284 -313l304 -387h-225l-231 303v-303h-178v700h178z" />
    <glyph glyph-name="uni0137" unicode="&#x137;" horiz-adv-x="562" 
d="M157 -264l54 212h183l-132 -212h-105zM62 708h164v-354l124 150h196l-202 -232l215 -272h-195l-138 184v-184h-164v708z" />
    <glyph glyph-name="kgreenlandic" unicode="&#x138;" horiz-adv-x="562" 
d="M62 504h164v-150l124 150h196l-202 -232l215 -272h-195l-138 184v-184h-164v504z" />
    <glyph glyph-name="Lacute" unicode="&#x139;" horiz-adv-x="547" 
d="M69 700h178v-548h288v-152h-466v700zM72 744l63 160h208l-152 -160h-119z" />
    <glyph glyph-name="lacute" unicode="&#x13a;" horiz-adv-x="293" 
d="M62 708h164v-708h-164v708zM65 744l63 160h208l-152 -160h-119z" />
    <glyph glyph-name="uni013B" unicode="&#x13b;" horiz-adv-x="547" 
d="M164 -264l54 212h183l-132 -212h-105zM69 700h178v-548h288v-152h-466v700z" />
    <glyph glyph-name="uni013C" unicode="&#x13c;" horiz-adv-x="298" 
d="M7 -264l54 212h183l-132 -212h-105zM71 708h164v-708h-164v708z" />
    <glyph glyph-name="Lcaron" unicode="&#x13d;" horiz-adv-x="547" 
d="M350 533l29 205h159l-90 -205h-98zM69 700h178v-548h288v-152h-466v700z" />
    <glyph glyph-name="lcaron" unicode="&#x13e;" horiz-adv-x="452" 
d="M284 541l29 197h151l-88 -197h-92zM62 708h164v-708h-164v708z" />
    <glyph glyph-name="Ldot" unicode="&#x13f;" horiz-adv-x="547" 
d="M69 700h178v-548h288v-152h-466v700zM324 376q0 40 26.5 66.5t66.5 26.5t66.5 -26.5t26.5 -66.5t-26.5 -66.5t-66.5 -26.5t-66.5 26.5t-26.5 66.5z" />
    <glyph glyph-name="ldot" unicode="&#x140;" horiz-adv-x="527" 
d="M62 708h164v-708h-164v708zM295 376q0 40 26.5 66.5t66.5 26.5t66.5 -26.5t26.5 -66.5t-26.5 -66.5t-66.5 -26.5t-66.5 26.5t-26.5 66.5z" />
    <glyph glyph-name="Lslash" unicode="&#x141;" horiz-adv-x="589" 
d="M111 700h178v-236l72 40l65 -117l-137 -77v-158h288v-152h-466v211l-43 -24l-65 117l108 60v336z" />
    <glyph glyph-name="lslash" unicode="&#x142;" horiz-adv-x="428" 
d="M16 331l116 65v312h164v-221l51 29l65 -117l-116 -65v-334h-164v242l-51 -28z" />
    <glyph glyph-name="Nacute" unicode="&#x143;" horiz-adv-x="702" 
d="M473 700h160v-700h-173l-231 418v-418h-160v700h173l231 -418v418zM274 744l63 160h208l-152 -160h-119z" />
    <glyph glyph-name="nacute" unicode="&#x144;" horiz-adv-x="593" 
d="M62 504h164v-58q21 30 59 48t84 18q168 0 168 -166v-346h-164v298q0 32 -15 50t-42 18q-42 0 -66 -37.5t-24 -107.5v-221h-164v504zM212 548l63 160h208l-152 -160h-119z" />
    <glyph glyph-name="uni0145" unicode="&#x145;" horiz-adv-x="702" 
d="M212 -264l54 212h183l-132 -212h-105zM473 700h160v-700h-173l-231 418v-418h-160v700h173l231 -418v418z" />
    <glyph glyph-name="uni0146" unicode="&#x146;" horiz-adv-x="593" 
d="M152 -264l54 212h183l-132 -212h-105zM62 504h164v-58q21 30 59 48t84 18q168 0 168 -166v-346h-164v298q0 32 -15 50t-42 18q-42 0 -66 -37.5t-24 -107.5v-221h-164v504z" />
    <glyph glyph-name="Ncaron" unicode="&#x147;" horiz-adv-x="702" 
d="M473 700h160v-700h-173l-231 418v-418h-160v700h173l231 -418v418zM330 762l-176 192h143l54 -56l54 56h143l-176 -192h-42z" />
    <glyph glyph-name="ncaron" unicode="&#x148;" horiz-adv-x="593" 
d="M62 504h164v-58q21 30 59 48t84 18q168 0 168 -166v-346h-164v298q0 32 -15 50t-42 18q-42 0 -66 -37.5t-24 -107.5v-221h-164v504zM290 566l-176 192h143l54 -56l54 56h143l-176 -192h-42z" />
    <glyph glyph-name="napostrophe" unicode="&#x149;" horiz-adv-x="602" 
d="M6 541l29 197h151l-88 -197h-92zM71 504h164v-58q21 30 59 48t84 18q168 0 168 -166v-346h-164v298q0 32 -15 50t-42 18q-42 0 -66 -37.5t-24 -107.5v-221h-164v504z" />
    <glyph glyph-name="Eng" unicode="&#x14a;" horiz-adv-x="702" 
d="M473 700h160v-700q0 -109 -66 -160.5t-184 -51.5v140q73 0 77 72l-231 406v-406h-160v700h173l231 -406v406z" />
    <glyph glyph-name="eng" unicode="&#x14b;" horiz-adv-x="593" 
d="M62 504h164v-58q21 30 59 48t84 18q168 0 168 -166v-288q0 -120 -62 -188.5t-169 -81.5l-41 135q56 12 82 37t26 83v255q0 32 -15 50t-42 18q-42 0 -66 -37.5t-24 -107.5v-221h-164v504z" />
    <glyph glyph-name="Omacron" unicode="&#x14c;" horiz-adv-x="756" 
d="M378 708q143 0 243.5 -93t100.5 -265t-100.5 -265t-243.5 -93t-243.5 93t-100.5 265t100.5 265t243.5 93zM378 556q-72 0 -119 -52.5t-47 -153.5t47 -153.5t119 -52.5t119 52.5t47 153.5t-47 153.5t-119 52.5zM240 788v122h277v-122h-277z" />
    <glyph glyph-name="omacron" unicode="&#x14d;" horiz-adv-x="600" 
d="M34 252q0 110 70 185t196 75t196 -75t70 -185t-70 -185t-196 -75t-196 75t-70 185zM198 252q0 -56 25.5 -88t76.5 -32t76.5 32t25.5 88t-25.5 88t-76.5 32t-76.5 -32t-25.5 -88zM162 592v122h277v-122h-277z" />
    <glyph glyph-name="Obreve" unicode="&#x14e;" horiz-adv-x="756" 
d="M378 708q143 0 243.5 -93t100.5 -265t-100.5 -265t-243.5 -93t-243.5 93t-100.5 265t100.5 265t243.5 93zM378 556q-72 0 -119 -52.5t-47 -153.5t47 -153.5t119 -52.5t119 52.5t47 153.5t-47 153.5t-119 52.5zM248 896h103q0 -12 7.5 -20t19.5 -8t19.5 8t7.5 20h103
q0 -50 -35.5 -85t-94.5 -35t-94.5 35t-35.5 85z" />
    <glyph glyph-name="obreve" unicode="&#x14f;" horiz-adv-x="600" 
d="M34 252q0 110 70 185t196 75t196 -75t70 -185t-70 -185t-196 -75t-196 75t-70 185zM198 252q0 -56 25.5 -88t76.5 -32t76.5 32t25.5 88t-25.5 88t-76.5 32t-76.5 -32t-25.5 -88zM170 700h103q0 -12 7.5 -20t19.5 -8t19.5 8t7.5 20h103q0 -50 -35.5 -85t-94.5 -35
t-94.5 35t-35.5 85z" />
    <glyph glyph-name="Ohungarumlaut" unicode="&#x150;" horiz-adv-x="756" 
d="M378 708q143 0 243.5 -93t100.5 -265t-100.5 -265t-243.5 -93t-243.5 93t-100.5 265t100.5 265t243.5 93zM378 556q-72 0 -119 -52.5t-47 -153.5t47 -153.5t119 -52.5t119 52.5t47 153.5t-47 153.5t-119 52.5zM178 744l56 160h200l-137 -160h-119zM401 744l56 160h200
l-137 -160h-119z" />
    <glyph glyph-name="ohungarumlaut" unicode="&#x151;" horiz-adv-x="600" 
d="M34 252q0 110 70 185t196 75t196 -75t70 -185t-70 -185t-196 -75t-196 75t-70 185zM198 252q0 -56 25.5 -88t76.5 -32t76.5 32t25.5 88t-25.5 88t-76.5 32t-76.5 -32t-25.5 -88zM91 548l56 160h200l-137 -160h-119zM314 548l56 160h200l-137 -160h-119z" />
    <glyph glyph-name="OE" unicode="&#x152;" horiz-adv-x="1063" 
d="M544 700h476v-152h-298v-99h234v-152h-234v-145h308v-152h-486v40q-66 -48 -166 -48q-143 0 -243.5 93t-100.5 265t100.5 265t243.5 93q96 0 166 -48v40zM378 554q-72 0 -119 -51.5t-47 -152.5t47 -152.5t119 -51.5t119 51.5t47 152.5t-47 152.5t-119 51.5z" />
    <glyph glyph-name="oe" unicode="&#x153;" horiz-adv-x="941" 
d="M34 252q0 110 70 185t196 75q115 0 187 -67q67 67 178 67q55 0 98.5 -16t70.5 -41.5t45.5 -59t25.5 -66.5t7 -67v-60h-340q22 -77 100 -77q66 0 102 60l130 -46q-67 -147 -239 -147q-110 0 -178 66q-71 -66 -187 -66q-126 0 -196 75t-70 185zM204 252q0 -55 25 -87.5
t71 -32.5t71 32.5t25 87.5t-25 87.5t-71 32.5t-71 -32.5t-25 -87.5zM665 393q-69 0 -91 -77h183q-4 34 -28 55.5t-64 21.5z" />
    <glyph glyph-name="Racute" unicode="&#x154;" horiz-adv-x="648" 
d="M455 0l-179 288h-35v-288h-172v700h277q103 0 163 -55t60 -144q0 -62 -30.5 -113t-85.5 -77l193 -311h-191zM326 436q79 0 79 65t-79 65h-85v-130h85zM198 744l63 160h208l-152 -160h-119z" />
    <glyph glyph-name="racute" unicode="&#x155;" horiz-adv-x="437" 
d="M226 0h-164v504h164v-55q20 29 58 46t82 17q23 0 43 -6v-156q-23 14 -64 14q-49 0 -84 -45.5t-35 -139.5v-179zM144 548l63 160h208l-152 -160h-119z" />
    <glyph glyph-name="uni0156" unicode="&#x156;" horiz-adv-x="648" 
d="M211 -264l54 212h183l-132 -212h-105zM455 0l-179 288h-35v-288h-172v700h277q103 0 163 -55t60 -144q0 -62 -30.5 -113t-85.5 -77l193 -311h-191zM326 436q79 0 79 65t-79 65h-85v-130h85z" />
    <glyph glyph-name="uni0157" unicode="&#x157;" horiz-adv-x="443" 
d="M17 -264l54 212h183l-132 -212h-105zM233 0h-164v504h164v-55q20 29 58 46t82 17q23 0 43 -6v-156q-23 14 -64 14q-49 0 -84 -45.5t-35 -139.5v-179z" />
    <glyph glyph-name="Rcaron" unicode="&#x158;" horiz-adv-x="648" 
d="M455 0l-179 288h-35v-288h-172v700h277q103 0 163 -55t60 -144q0 -62 -30.5 -113t-85.5 -77l193 -311h-191zM326 436q79 0 79 65t-79 65h-85v-130h85zM261 762l-176 192h143l54 -56l54 56h143l-176 -192h-42z" />
    <glyph glyph-name="rcaron" unicode="&#x159;" horiz-adv-x="441" 
d="M227 0h-164v504h164v-55q20 29 58 46t82 17q23 0 43 -6v-156q-23 14 -64 14q-49 0 -84 -45.5t-35 -139.5v-179zM228 566l-176 192h143l54 -56l54 56h143l-176 -192h-42z" />
    <glyph glyph-name="Sacute" unicode="&#x15a;" horiz-adv-x="549" 
d="M489 577l-132 -87q-33 70 -77 70q-20 0 -32 -11.5t-12 -30.5q0 -27 29.5 -48.5t71 -40.5t83 -42.5t71 -67t29.5 -102.5q0 -105 -63.5 -165t-174.5 -60q-102 0 -169 55.5t-85 140.5l138 87q34 -131 119 -131q60 0 60 55q0 23 -15.5 42t-39.5 33t-53.5 28t-59.5 32t-54 41
t-39.5 59t-15.5 81q0 82 57.5 137.5t148.5 55.5q79 0 130 -31t85 -100zM188 744l63 160h208l-152 -160h-119z" />
    <glyph glyph-name="sacute" unicode="&#x15b;" horiz-adv-x="436" 
d="M227 512q111 0 166 -84l-89 -82q-33 44 -76 44q-14 0 -24 -8t-10 -20q0 -14 13.5 -25t45.5 -22q36 -12 55.5 -19.5t43 -21t35.5 -28t20 -36.5t8 -50q0 -71 -50.5 -119.5t-134.5 -48.5q-147 0 -213 137l121 65q28 -78 92 -78q44 0 44 34q0 10 -5.5 18.5t-17.5 15t-22.5 11
t-31 12t-32.5 12.5q-112 45 -112 146q0 61 48 104t126 43zM135 548l63 160h208l-152 -160h-119z" />
    <glyph glyph-name="Scircumflex" unicode="&#x15c;" horiz-adv-x="549" 
d="M489 577l-132 -87q-33 70 -77 70q-20 0 -32 -11.5t-12 -30.5q0 -27 29.5 -48.5t71 -40.5t83 -42.5t71 -67t29.5 -102.5q0 -105 -63.5 -165t-174.5 -60q-102 0 -169 55.5t-85 140.5l138 87q34 -131 119 -131q60 0 60 55q0 23 -15.5 42t-39.5 33t-53.5 28t-59.5 32t-54 41
t-39.5 59t-15.5 81q0 82 57.5 137.5t148.5 55.5q79 0 130 -31t85 -100zM81 762l176 192h42l176 -192h-143l-54 56l-54 -56h-143z" />
    <glyph glyph-name="scircumflex" unicode="&#x15d;" horiz-adv-x="437" 
d="M227 512q111 0 166 -84l-89 -82q-33 44 -76 44q-14 0 -24 -8t-10 -20q0 -14 13.5 -25t45.5 -22q36 -12 55.5 -19.5t43 -21t35.5 -28t20 -36.5t8 -50q0 -71 -50.5 -119.5t-134.5 -48.5q-147 0 -213 137l121 65q28 -78 92 -78q44 0 44 34q0 10 -5.5 18.5t-17.5 15t-22.5 11
t-31 12t-32.5 12.5q-112 45 -112 146q0 61 48 104t126 43zM27 566l176 192h42l176 -192h-143l-54 56l-54 -56h-143z" />
    <glyph glyph-name="Scedilla" unicode="&#x15e;" horiz-adv-x="549" 
d="M489 577l-132 -87q-33 70 -77 70q-20 0 -32 -11.5t-12 -30.5q0 -27 29.5 -48.5t71 -40.5t83 -42.5t71 -67t29.5 -102.5q0 -105 -63.5 -165t-174.5 -60q-102 0 -169 55.5t-85 140.5l138 87q34 -131 119 -131q60 0 60 55q0 23 -15.5 42t-39.5 33t-53.5 28t-59.5 32t-54 41
t-39.5 59t-15.5 81q0 82 57.5 137.5t148.5 55.5q79 0 130 -31t85 -100zM370 -54l-87 -225l-172 79l145 146h114z" />
    <glyph glyph-name="scedilla" unicode="&#x15f;" horiz-adv-x="436" 
d="M227 512q111 0 166 -84l-89 -82q-33 44 -76 44q-14 0 -24 -8t-10 -20q0 -14 13.5 -25t45.5 -22q36 -12 55.5 -19.5t43 -21t35.5 -28t20 -36.5t8 -50q0 -71 -50.5 -119.5t-134.5 -48.5q-147 0 -213 137l121 65q28 -78 92 -78q44 0 44 34q0 10 -5.5 18.5t-17.5 15t-22.5 11
t-31 12t-32.5 12.5q-112 45 -112 146q0 61 48 104t126 43zM316 -54l-87 -225l-172 79l145 146h114z" />
    <glyph glyph-name="Scaron" unicode="&#x160;" horiz-adv-x="549" 
d="M489 577l-132 -87q-33 70 -77 70q-20 0 -32 -11.5t-12 -30.5q0 -27 29.5 -48.5t71 -40.5t83 -42.5t71 -67t29.5 -102.5q0 -105 -63.5 -165t-174.5 -60q-102 0 -169 55.5t-85 140.5l138 87q34 -131 119 -131q60 0 60 55q0 23 -15.5 42t-39.5 33t-53.5 28t-59.5 32t-54 41
t-39.5 59t-15.5 81q0 82 57.5 137.5t148.5 55.5q79 0 130 -31t85 -100zM253 762l-176 192h143l54 -56l54 56h143l-176 -192h-42z" />
    <glyph glyph-name="scaron" unicode="&#x161;" horiz-adv-x="436" 
d="M227 512q111 0 166 -84l-89 -82q-33 44 -76 44q-14 0 -24 -8t-10 -20q0 -14 13.5 -25t45.5 -22q36 -12 55.5 -19.5t43 -21t35.5 -28t20 -36.5t8 -50q0 -71 -50.5 -119.5t-134.5 -48.5q-147 0 -213 137l121 65q28 -78 92 -78q44 0 44 34q0 10 -5.5 18.5t-17.5 15t-22.5 11
t-31 12t-32.5 12.5q-112 45 -112 146q0 61 48 104t126 43zM201 566l-176 192h143l54 -56l54 56h143l-176 -192h-42z" />
    <glyph glyph-name="uni0162" unicode="&#x162;" horiz-adv-x="572" 
d="M140 -264l54 212h183l-132 -212h-105zM7 548v152h558v-152h-190v-548h-178v548h-190z" />
    <glyph glyph-name="uni0163" unicode="&#x163;" horiz-adv-x="414" 
d="M126 -264l54 212h183l-132 -212h-105zM376 152v-146q-40 -14 -80 -14q-89 0 -145 48t-56 138v200h-72v126h72v104l160 100v-204h127v-126h-127v-169q0 -73 57 -73q27 0 64 16z" />
    <glyph glyph-name="Tcaron" unicode="&#x164;" horiz-adv-x="572" 
d="M7 548v152h558v-152h-190v-548h-178v548h-190zM265 762l-176 192h143l54 -56l54 56h143l-176 -192h-42z" />
    <glyph glyph-name="tcaron" unicode="&#x165;" horiz-adv-x="413" 
d="M292 541l29 197h151l-88 -197h-92zM368 152v-146q-40 -14 -80 -14q-89 0 -145 48t-56 138v200h-72v126h72v104l160 100v-204h127v-126h-127v-169q0 -73 57 -73q27 0 64 16z" />
    <glyph glyph-name="Tbar" unicode="&#x166;" horiz-adv-x="572" 
d="M7 548v152h558v-152h-190v-52h156v-132h-156v-364h-178v364h-156v132h156v52h-190z" />
    <glyph glyph-name="tbar" unicode="&#x167;" horiz-adv-x="416" 
d="M27 224v112h60v42h-72v126h72v104l160 100v-204h127v-126h-127v-42h104v-112h-104v-15q0 -73 57 -73q31 0 54 12l35 -132q-50 -24 -105 -24q-89 0 -145 48t-56 138v46h-60z" />
    <glyph glyph-name="Utilde" unicode="&#x168;" horiz-adv-x="654" 
d="M602 700v-434q0 -136 -74 -205t-201 -69t-201 69t-74 205v434h164v-432q0 -63 30.5 -92.5t80.5 -29.5t80.5 29.5t30.5 92.5v432h164zM202 755l-79 65q18 41 55 68t80 27q35 0 73 -18.5t60 -18.5q32 0 62 41l79 -65q-18 -41 -55 -68t-80 -27q-35 0 -73 18.5t-60 18.5
q-32 0 -62 -41z" />
    <glyph glyph-name="utilde" unicode="&#x169;" horiz-adv-x="593" 
d="M531 0h-164v58q-48 -66 -143 -66q-168 0 -168 182v330h164v-294q0 -72 57 -72q42 0 66 37.5t24 107.5v221h164v-504zM169 559l-79 65q18 41 55 68t80 27q35 0 73 -18.5t60 -18.5q32 0 62 41l79 -65q-18 -41 -55 -68t-80 -27q-35 0 -73 18.5t-60 18.5q-32 0 -62 -41z" />
    <glyph glyph-name="Umacron" unicode="&#x16a;" horiz-adv-x="654" 
d="M602 700v-434q0 -136 -74 -205t-201 -69t-201 69t-74 205v434h164v-432q0 -63 30.5 -92.5t80.5 -29.5t80.5 29.5t30.5 92.5v432h164zM189 788v122h277v-122h-277z" />
    <glyph glyph-name="umacron" unicode="&#x16b;" horiz-adv-x="593" 
d="M531 0h-164v58q-48 -66 -143 -66q-168 0 -168 182v330h164v-294q0 -72 57 -72q42 0 66 37.5t24 107.5v221h164v-504zM159 592v122h277v-122h-277z" />
    <glyph glyph-name="Ubreve" unicode="&#x16c;" horiz-adv-x="654" 
d="M602 700v-434q0 -136 -74 -205t-201 -69t-201 69t-74 205v434h164v-432q0 -63 30.5 -92.5t80.5 -29.5t80.5 29.5t30.5 92.5v432h164zM197 896h103q0 -12 7.5 -20t19.5 -8t19.5 8t7.5 20h103q0 -50 -35.5 -85t-94.5 -35t-94.5 35t-35.5 85z" />
    <glyph glyph-name="ubreve" unicode="&#x16d;" horiz-adv-x="593" 
d="M531 0h-164v58q-48 -66 -143 -66q-168 0 -168 182v330h164v-294q0 -72 57 -72q42 0 66 37.5t24 107.5v221h164v-504zM167 700h103q0 -12 7.5 -20t19.5 -8t19.5 8t7.5 20h103q0 -50 -35.5 -85t-94.5 -35t-94.5 35t-35.5 85z" />
    <glyph glyph-name="Uring" unicode="&#x16e;" horiz-adv-x="654" 
d="M602 700v-434q0 -136 -74 -205t-201 -69t-201 69t-74 205v434h164v-432q0 -63 30.5 -92.5t80.5 -29.5t80.5 29.5t30.5 92.5v432h164zM219 851q0 46 30.5 76.5t77.5 30.5t77.5 -30.5t30.5 -76.5t-30.5 -76.5t-77.5 -30.5t-77.5 30.5t-30.5 76.5zM297 851q0 -32 30 -32
t30 32t-30 32t-30 -32z" />
    <glyph glyph-name="uring" unicode="&#x16f;" horiz-adv-x="593" 
d="M531 0h-164v58q-48 -66 -143 -66q-168 0 -168 182v330h164v-294q0 -72 57 -72q42 0 66 37.5t24 107.5v221h164v-504zM189 655q0 46 30.5 76.5t77.5 30.5t77.5 -30.5t30.5 -76.5t-30.5 -76.5t-77.5 -30.5t-77.5 30.5t-30.5 76.5zM267 655q0 -32 30 -32t30 32t-30 32
t-30 -32z" />
    <glyph glyph-name="Uhungarumlaut" unicode="&#x170;" horiz-adv-x="654" 
d="M602 700v-434q0 -136 -74 -205t-201 -69t-201 69t-74 205v434h164v-432q0 -63 30.5 -92.5t80.5 -29.5t80.5 29.5t30.5 92.5v432h164zM121 744l56 160h200l-137 -160h-119zM344 744l56 160h200l-137 -160h-119z" />
    <glyph glyph-name="uhungarumlaut" unicode="&#x171;" horiz-adv-x="597" 
d="M531 0h-164v58q-48 -66 -143 -66q-168 0 -168 182v330h164v-294q0 -72 57 -72q42 0 66 37.5t24 107.5v221h164v-504zM79 548l56 160h200l-137 -160h-119zM302 548l56 160h200l-137 -160h-119z" />
    <glyph glyph-name="Uogonek" unicode="&#x172;" horiz-adv-x="654" 
d="M602 700v-434q0 -113 -51.5 -180t-143.5 -86q-20 -18 -28 -26.5t-16 -20.5t-8 -22q0 -20 21 -20q19 0 40 32l66 -51q-27 -46 -56.5 -65t-70.5 -19q-49 0 -76 24.5t-27 67.5q0 53 50 93q-117 6 -183.5 74.5t-66.5 198.5v434h164v-426q0 -63 30.5 -92.5t80.5 -29.5
t80.5 29.5t30.5 92.5v426h164z" />
    <glyph glyph-name="uogonek" unicode="&#x173;" horiz-adv-x="603" 
d="M436 0h-69v58q-48 -66 -143 -66q-168 0 -168 182v330h164v-294q0 -72 57 -72q42 0 66 37.5t24 107.5v221h164v-504q-20 -18 -28 -26.5t-16 -20.5t-8 -22q0 -20 21 -20q19 0 40 32l66 -51q-27 -46 -56.5 -65t-70.5 -19q-49 0 -76 24.5t-27 67.5q0 58 60 100z" />
    <glyph glyph-name="Wcircumflex" unicode="&#x174;" horiz-adv-x="950" 
d="M757 700h178l-183 -700h-172l-105 348l-105 -348h-172l-183 700h178l98 -439l110 365h148l110 -365zM278 762l176 192h42l176 -192h-143l-54 56l-54 -56h-143z" />
    <glyph glyph-name="wcircumflex" unicode="&#x175;" horiz-adv-x="788" 
d="M604 504h164l-161 -504h-140l-73 277l-73 -277h-140l-161 504h164l68 -273l68 273h148l68 -273zM197 566l176 192h42l176 -192h-143l-54 56l-54 -56h-143z" />
    <glyph glyph-name="Ycircumflex" unicode="&#x176;" horiz-adv-x="586" 
d="M0 700h186l107 -232l107 232h186l-204 -402v-298h-178v298zM96 762l176 192h42l176 -192h-143l-54 56l-54 -56h-143z" />
    <glyph glyph-name="ycircumflex" unicode="&#x177;" horiz-adv-x="513" 
d="M95 -204l89 244l-181 464h169l91 -245l90 245h158l-262 -708h-154zM65 566l176 192h42l176 -192h-143l-54 56l-54 -56h-143z" />
    <glyph glyph-name="Ydieresis" unicode="&#x178;" horiz-adv-x="586" 
d="M0 700h186l107 -232l107 232h186l-204 -402v-298h-178v298zM110 847q0 36 23 59t59 23t59 -23t23 -59t-23 -59t-59 -23t-59 23t-23 59zM313 847q0 36 23 59t59 23t59 -23t23 -59t-23 -59t-59 -23t-59 23t-23 59z" />
    <glyph glyph-name="Zacute" unicode="&#x179;" horiz-adv-x="566" 
d="M38 550v150h486v-90l-282 -460h298v-150h-517v90l285 460h-270zM181 744l63 160h208l-152 -160h-119z" />
    <glyph glyph-name="zacute" unicode="&#x17a;" horiz-adv-x="476" 
d="M48 368v136h384v-78l-194 -290h208v-136h-414v78l196 290h-180zM137 548l63 160h208l-152 -160h-119z" />
    <glyph glyph-name="Zdotaccent" unicode="&#x17b;" horiz-adv-x="566" 
d="M38 550v150h486v-90l-282 -460h298v-150h-517v90l285 460h-270zM178 857q0 41 28 69.5t70 28.5t70 -28.5t28 -69.5t-28 -69.5t-70 -28.5t-70 28.5t-28 69.5z" />
    <glyph glyph-name="zdotaccent" unicode="&#x17c;" horiz-adv-x="476" 
d="M48 368v136h384v-78l-194 -290h208v-136h-414v78l196 290h-180zM144 661q0 41 28 69.5t70 28.5t70 -28.5t28 -69.5t-28 -69.5t-70 -28.5t-70 28.5t-28 69.5z" />
    <glyph glyph-name="Zcaron" unicode="&#x17d;" horiz-adv-x="566" 
d="M38 550v150h486v-90l-282 -460h298v-150h-517v90l285 460h-270zM261 762l-176 192h143l54 -56l54 56h143l-176 -192h-42z" />
    <glyph glyph-name="zcaron" unicode="&#x17e;" horiz-adv-x="476" 
d="M48 368v136h384v-78l-194 -290h208v-136h-414v78l196 290h-180zM222 566l-176 192h143l54 -56l54 56h143l-176 -192h-42z" />
    <glyph glyph-name="longs" unicode="&#x17f;" horiz-adv-x="383" 
d="M25 378v126h54v9q0 95 52 145t142 50q55 0 106 -24l-35 -121q-21 17 -49 17q-25 0 -38.5 -15t-13.5 -41v-524h-164v378h-54z" />
    <glyph glyph-name="uni018E" unicode="&#x18e;" horiz-adv-x="588" 
d="M519 0h-476v152h298v99h-234v152h234v145h-308v152h486v-700z" />
    <glyph glyph-name="uni018F" unicode="&#x18f;" 
d="M29 302h340q-22 77 -100 77q-66 0 -102 -60l-130 46q67 147 239 147q65 0 116 -23.5t80 -62t43.5 -83t14.5 -91.5t-14.5 -91.5t-43.5 -83t-80 -62t-116 -23.5q-55 0 -98.5 16t-70.5 41.5t-45.5 59t-25.5 66.5t-7 67v60zM276 111q69 0 91 77h-183q4 -34 28 -55.5t64 -21.5
z" />
    <glyph glyph-name="florin" unicode="&#x192;" horiz-adv-x="476" 
d="M72 378l25 126h75l5 26q35 178 228 178q58 0 102 -24l-54 -124q-23 20 -56 20q-47 0 -58 -60l-3 -16h88l-25 -126h-88l-81 -412q-17 -90 -77 -134t-151 -44q-63 0 -96 21l53 137q27 -18 55 -18q24 0 37 16t20 51l75 383h-74z" />
    <glyph glyph-name="uni01B5" unicode="&#x1b5;" horiz-adv-x="566" 
d="M38 550v150h486v-90l-120 -196h103v-128h-182l-83 -136h298v-150h-517v90l121 196h-80v128h160l84 136h-270z" />
    <glyph glyph-name="uni01B6" unicode="&#x1b6;" horiz-adv-x="476" 
d="M48 368v136h384v-78l-74 -110h52v-104h-121l-51 -76h208v-136h-414v78l90 134h-58v104h129l35 52h-180z" />
    <glyph glyph-name="Aringacute" unicode="&#x1fa;" horiz-adv-x="654" 
d="M465 0l-45 149h-186l-45 -149h-184l237 700h170l237 -700h-184zM327 465l-48 -164h96zM219 825q0 46 30.5 76.5t77.5 30.5t77.5 -30.5t30.5 -76.5t-30.5 -76.5t-77.5 -30.5t-77.5 30.5t-30.5 76.5zM297 825q0 -32 30 -32t30 32t-30 32t-30 -32zM242 944l63 160h208
l-152 -160h-119z" />
    <glyph glyph-name="aringacute" unicode="&#x1fb;" horiz-adv-x="511" 
d="M26 252q0 120 62 190t164 70q89 0 132 -48v40h164v-504h-164v43q-20 -24 -55.5 -37.5t-73.5 -13.5q-104 0 -166.5 70t-62.5 190zM186 252q0 -59 29.5 -89.5t73.5 -30.5t73.5 30.5t29.5 89.5t-29.5 89.5t-73.5 30.5t-73.5 -30.5t-29.5 -89.5zM146 655q0 46 30.5 76.5
t77.5 30.5t77.5 -30.5t30.5 -76.5t-30.5 -76.5t-77.5 -30.5t-77.5 30.5t-30.5 76.5zM224 655q0 -32 30 -32t30 32t-30 32t-30 -32zM170 774l63 160h208l-152 -160h-119z" />
    <glyph glyph-name="AEacute" unicode="&#x1fc;" horiz-adv-x="918" 
d="M476 744l63 160h208l-152 -160h-119zM875 700v-152h-298v-99h234v-152h-234v-145h308v-152h-486v149h-150l-60 -149h-184l299 700h571zM382 479l-72 -178h89v178h-17z" />
    <glyph glyph-name="aeacute" unicode="&#x1fd;" horiz-adv-x="849" 
d="M174 338l-126 30q15 63 68 103.5t132 40.5q105 0 165 -56q70 56 160 56q55 0 98.5 -16t70.5 -41.5t45.5 -59t25.5 -66.5t7 -67v-60h-340q22 -77 100 -77q66 0 102 60l130 -46q-67 -147 -239 -147q-130 0 -198 89q-56 -89 -179 -89q-72 0 -119 40.5t-47 112.5
q0 77 54.5 121t157.5 44h80v17q0 66 -74 66q-57 0 -74 -55zM573 393q-32 0 -58 -22t-34 -61h185q-4 35 -28.5 59t-64.5 24zM183 155q0 -40 53 -40q39 0 62.5 22.5t23.5 56.5v8h-79q-28 0 -44 -13.5t-16 -33.5zM331 548l63 160h208l-152 -160h-119z" />
    <glyph glyph-name="circumflex" unicode="&#x2c6;" horiz-adv-x="410" 
d="M8 566l176 192h42l176 -192h-143l-54 56l-54 -56h-143z" />
    <glyph glyph-name="caron" unicode="&#x2c7;" horiz-adv-x="410" 
d="M184 566l-176 192h143l54 -56l54 56h143l-176 -192h-42z" />
    <glyph glyph-name="breve" unicode="&#x2d8;" horiz-adv-x="279" 
d="M7 700h103q0 -12 7.5 -20t19.5 -8t19.5 8t7.5 20h103q0 -50 -35.5 -85t-94.5 -35t-94.5 35t-35.5 85z" />
    <glyph glyph-name="dotaccent" unicode="&#x2d9;" horiz-adv-x="296" 
d="M50 661q0 41 28 69.5t70 28.5t70 -28.5t28 -69.5t-28 -69.5t-70 -28.5t-70 28.5t-28 69.5z" />
    <glyph glyph-name="ring" unicode="&#x2da;" horiz-adv-x="240" 
d="M12 655q0 46 30.5 76.5t77.5 30.5t77.5 -30.5t30.5 -76.5t-30.5 -76.5t-77.5 -30.5t-77.5 30.5t-30.5 76.5zM90 655q0 -32 30 -32t30 32t-30 32t-30 -32z" />
    <glyph glyph-name="ogonek" unicode="&#x2db;" horiz-adv-x="244" 
d="M67 0h95q-20 -18 -28 -26.5t-16 -20.5t-8 -22q0 -20 21 -20q19 0 40 32l66 -51q-27 -46 -56.5 -65t-70.5 -19q-49 0 -76 24.5t-27 67.5q0 58 60 100z" />
    <glyph glyph-name="tilde" unicode="&#x2dc;" horiz-adv-x="433" 
d="M91 559l-79 65q18 41 55 68t80 27q35 0 73 -18.5t60 -18.5q32 0 62 41l79 -65q-18 -41 -55 -68t-80 -27q-35 0 -73 18.5t-60 18.5q-32 0 -62 -41z" />
    <glyph glyph-name="hungarumlaut" unicode="&#x2dd;" horiz-adv-x="502" 
d="M15 548l56 160h200l-137 -160h-119zM238 548l56 160h200l-137 -160h-119z" />
    <glyph glyph-name="pi" unicode="&#x3c0;" horiz-adv-x="642" 
d="M39 364v140h563v-140h-85v-364h-158v364h-77v-364h-158v364h-85z" />
    <glyph glyph-name="uni0400" unicode="&#x400;" horiz-adv-x="588" 
d="M69 700h476v-152h-298v-99h234v-152h-234v-145h308v-152h-486v700zM342 904l63 -160h-119l-152 160h208z" />
    <glyph glyph-name="uni0401" unicode="&#x401;" horiz-adv-x="588" 
d="M69 700h476v-152h-298v-99h234v-152h-234v-145h308v-152h-486v700zM126 847q0 36 23 59t59 23t59 -23t23 -59t-23 -59t-59 -23t-59 23t-23 59zM329 847q0 36 23 59t59 23t59 -23t23 -59t-23 -59t-59 -23t-59 23t-23 59z" />
    <glyph glyph-name="uni0402" unicode="&#x402;" horiz-adv-x="749" 
d="M7 548v152h558v-152h-190v-102q20 30 60 48t86 18q85 0 129 -44.5t44 -130.5v-75q0 -120 -62 -188.5t-169 -81.5l-41 135q56 12 82 37t26 83v45q0 35 -18.5 54.5t-46.5 19.5q-90 0 -90 -145v-221h-178v548h-190z" />
    <glyph glyph-name="uni0403" unicode="&#x403;" horiz-adv-x="552" 
d="M69 700h477v-152h-299v-548h-178v700zM207 744l63 160h208l-152 -160h-119z" />
    <glyph glyph-name="uni0404" unicode="&#x404;" horiz-adv-x="687" 
d="M504 420v-140h-296q26 -138 153 -138q103 0 148 106l154 -44q-31 -101 -108.5 -156.5t-193.5 -55.5q-145 0 -236 94t-91 264t91 264t236 94q112 0 193.5 -56.5t108.5 -155.5l-154 -44q-39 106 -148 106q-127 0 -153 -138h296z" />
    <glyph glyph-name="uni0405" unicode="&#x405;" horiz-adv-x="549" 
d="M489 577l-132 -87q-33 70 -77 70q-20 0 -32 -11.5t-12 -30.5q0 -27 29.5 -48.5t71 -40.5t83 -42.5t71 -67t29.5 -102.5q0 -105 -63.5 -165t-174.5 -60q-102 0 -169 55.5t-85 140.5l138 87q34 -131 119 -131q60 0 60 55q0 23 -15.5 42t-39.5 33t-53.5 28t-59.5 32t-54 41
t-39.5 59t-15.5 81q0 82 57.5 137.5t148.5 55.5q79 0 130 -31t85 -100z" />
    <glyph glyph-name="uni0406" unicode="&#x406;" horiz-adv-x="316" 
d="M247 700v-700h-178v700h178z" />
    <glyph glyph-name="uni0407" unicode="&#x407;" horiz-adv-x="337" 
d="M258 700v-700h-178v700h178zM-14 847q0 36 23 59t59 23t59 -23t23 -59t-23 -59t-59 -23t-59 23t-23 59zM189 847q0 36 23 59t59 23t59 -23t23 -59t-23 -59t-59 -23t-59 23t-23 59z" />
    <glyph glyph-name="uni0408" unicode="&#x408;" horiz-adv-x="540" 
d="M2 198l160 29q11 -83 74 -83q79 0 79 106v450h168v-454q0 -128 -65.5 -191t-181.5 -63q-102 0 -162.5 56.5t-71.5 149.5z" />
    <glyph glyph-name="uni0409" unicode="&#x409;" horiz-adv-x="947" 
d="M125 700h430v-258h111q113 0 180.5 -54.5t67.5 -165.5q0 -112 -67.5 -167t-180.5 -55h-285v548h-94l-27 -358q-7 -99 -70.5 -144.5t-183.5 -45.5v154q44 0 63.5 20t23.5 74zM654 294h-99v-142h99q96 0 96 70q0 72 -96 72z" />
    <glyph glyph-name="uni040A" unicode="&#x40a;" horiz-adv-x="963" 
d="M397 700h174v-258h111q113 0 180.5 -54.5t67.5 -165.5q0 -112 -67.5 -167t-180.5 -55h-285v294h-150v-294h-178v700h178v-258h150v258zM670 294h-99v-142h99q96 0 96 70q0 72 -96 72z" />
    <glyph glyph-name="uni040B" unicode="&#x40b;" horiz-adv-x="749" 
d="M7 548v152h558v-152h-190v-102q20 30 60 48t86 18q85 0 129 -44.5t44 -130.5v-337h-164v292q0 35 -18.5 54.5t-46.5 19.5q-90 0 -90 -145v-221h-178v548h-190z" />
    <glyph glyph-name="uni040C" unicode="&#x40c;" horiz-adv-x="707" 
d="M247 700v-235l216 235h220l-284 -313l304 -387h-225l-231 303v-303h-178v700h178zM266 744l63 160h208l-152 -160h-119z" />
    <glyph glyph-name="uni040D" unicode="&#x40d;" horiz-adv-x="702" 
d="M375 904l63 -160h-119l-152 160h208zM69 700h160v-418l231 418h173v-700h-160v418l-231 -418h-173v700z" />
    <glyph glyph-name="uni040E" unicode="&#x40e;" 
d="M105 -8l92 228l-199 480h176l109 -267l108 267h175l-290 -708h-171zM151 896h103q0 -12 7.5 -20t19.5 -8t19.5 8t7.5 20h103q0 -50 -35.5 -85t-94.5 -35t-94.5 35t-35.5 85z" />
    <glyph glyph-name="uni040F" unicode="&#x40f;" horiz-adv-x="682" 
d="M69 0v700h170v-548h204v548h170v-700h-193v-124h-158v124h-193z" />
    <glyph glyph-name="uni0410" unicode="&#x410;" horiz-adv-x="654" 
d="M465 0l-45 149h-186l-45 -149h-184l237 700h170l237 -700h-184zM327 465l-48 -164h96z" />
    <glyph glyph-name="uni0411" unicode="&#x411;" horiz-adv-x="635" 
d="M354 442q113 0 180.5 -54.5t67.5 -165.5q0 -112 -67.5 -167t-180.5 -55h-285v700h468v-138h-294v-120h111zM342 294h-99v-142h99q95 0 95 70q0 72 -95 72z" />
    <glyph glyph-name="uni0412" unicode="&#x412;" horiz-adv-x="635" 
d="M69 700h280q94 0 155.5 -47.5t61.5 -132.5q0 -46 -21.5 -83t-51.5 -55q48 -21 78.5 -64.5t30.5 -106.5q0 -99 -69 -155t-179 -56h-285v700zM331 562h-88v-120h91q72 0 72 60t-75 60zM342 294h-99v-142h99q95 0 95 70q0 72 -95 72z" />
    <glyph glyph-name="uni0413" unicode="&#x413;" horiz-adv-x="552" 
d="M69 700h477v-152h-299v-548h-178v700z" />
    <glyph glyph-name="uni0414" unicode="&#x414;" horiz-adv-x="728" 
d="M59 -124l-20 288h60l96 536h453v-536h57l-20 -288h-146v124h-334v-124h-146zM470 540h-126l-69 -376h195v376z" />
    <glyph glyph-name="uni0415" unicode="&#x415;" horiz-adv-x="588" 
d="M69 700h476v-152h-298v-99h234v-152h-234v-145h308v-152h-486v700z" />
    <glyph glyph-name="uni0416" unicode="&#x416;" horiz-adv-x="1098" 
d="M638 700v-235l216 235h220l-284 -313l304 -387h-225l-231 303v-303h-178v303l-231 -303h-225l304 387l-284 313h220l216 -235v235h178z" />
    <glyph glyph-name="uni0417" unicode="&#x417;" horiz-adv-x="582" 
d="M206 495l-145 30q10 77 68 130t162 53q100 0 158.5 -51t58.5 -133q0 -91 -75 -142q44 -17 74.5 -62.5t30.5 -100.5q0 -101 -69.5 -164t-174.5 -63q-109 0 -177 57t-76 141l149 50q14 -108 104 -108q39 0 63 22.5t24 63.5q0 38 -29.5 63t-83.5 25h-45v129h35q100 0 100 77
q0 27 -19.5 43.5t-50.5 16.5q-33 0 -54.5 -20.5t-27.5 -56.5z" />
    <glyph glyph-name="uni0418" unicode="&#x418;" horiz-adv-x="702" 
d="M69 700h160v-418l231 418h173v-700h-160v418l-231 -418h-173v700z" />
    <glyph glyph-name="uni0419" unicode="&#x419;" horiz-adv-x="702" 
d="M221 896h103q0 -12 7.5 -20t19.5 -8t19.5 8t7.5 20h103q0 -50 -35.5 -85t-94.5 -35t-94.5 35t-35.5 85zM69 700h160v-418l231 418h173v-700h-160v418l-231 -418h-173v700z" />
    <glyph glyph-name="uni041A" unicode="&#x41a;" horiz-adv-x="707" 
d="M247 700v-235l216 235h220l-284 -313l304 -387h-225l-231 303v-303h-178v700h178z" />
    <glyph glyph-name="uni041B" unicode="&#x41b;" horiz-adv-x="663" 
d="M93 248l32 452h469v-700h-178v548h-129l-27 -358q-7 -99 -70.5 -144.5t-183.5 -45.5v154q43 0 63 20t24 74z" />
    <glyph glyph-name="uni041C" unicode="&#x41c;" horiz-adv-x="800" 
d="M69 0v700h188l143 -384l143 384h188v-700h-160v360l-108 -296h-126l-108 296v-360h-160z" />
    <glyph glyph-name="uni041D" unicode="&#x41d;" horiz-adv-x="726" 
d="M69 0v700h178v-244h232v244h178v-700h-178v292h-232v-292h-178z" />
    <glyph glyph-name="uni041E" unicode="&#x41e;" horiz-adv-x="756" 
d="M378 708q143 0 243.5 -93t100.5 -265t-100.5 -265t-243.5 -93t-243.5 93t-100.5 265t100.5 265t243.5 93zM378 556q-72 0 -119 -52.5t-47 -153.5t47 -153.5t119 -52.5t119 52.5t47 153.5t-47 153.5t-119 52.5z" />
    <glyph glyph-name="uni041F" unicode="&#x41f;" horiz-adv-x="698" 
d="M69 0v700h560v-700h-178v548h-204v-548h-178z" />
    <glyph glyph-name="uni0420" unicode="&#x420;" horiz-adv-x="606" 
d="M357 266h-110v-266h-178v700h288q110 0 171.5 -58.5t61.5 -158.5t-61.5 -158.5t-171.5 -58.5zM345 412q37 0 56 19t19 52t-19 52t-56 19h-98v-142h98z" />
    <glyph glyph-name="uni0421" unicode="&#x421;" horiz-adv-x="702" 
d="M678 493l-160 -46q-40 109 -145 109q-68 0 -114.5 -54.5t-46.5 -151.5q0 -98 46.5 -152t114.5 -54q105 0 145 109l158 -44q-30 -107 -108 -162t-193 -55q-146 0 -243.5 94.5t-97.5 263.5q0 168 98.5 263t242.5 95q120 0 199 -57t104 -158z" />
    <glyph glyph-name="uni0422" unicode="&#x422;" horiz-adv-x="572" 
d="M7 548v152h558v-152h-190v-548h-178v548h-190z" />
    <glyph glyph-name="uni0423" unicode="&#x423;" 
d="M105 -8l92 228l-199 480h176l109 -267l108 267h175l-290 -708h-171z" />
    <glyph glyph-name="uni0424" unicode="&#x424;" horiz-adv-x="774" 
d="M473 700v-72q122 -5 194.5 -81.5t72.5 -196.5t-72.5 -196.5t-194.5 -81.5v-72h-172v72q-122 5 -194.5 81.5t-72.5 196.5t72.5 196.5t194.5 81.5v72h172zM194 350q0 -60 29 -101.5t78 -47.5v298q-49 -6 -78 -47.5t-29 -101.5zM580 350q0 60 -29 101.5t-78 47.5v-298
q49 6 78 47.5t29 101.5z" />
    <glyph glyph-name="uni0425" unicode="&#x425;" horiz-adv-x="622" 
d="M405 700h184l-185 -322l212 -378h-188l-117 210l-117 -210h-188l214 378l-187 322h184l94 -166z" />
    <glyph glyph-name="uni0426" unicode="&#x426;" horiz-adv-x="731" 
d="M69 0v700h178v-546h204v546h178v-546h79l-24 -278h-148v124h-467z" />
    <glyph glyph-name="uni0427" unicode="&#x427;" horiz-adv-x="682" 
d="M435 0v292q-60 -38 -140 -38q-107 0 -172.5 66t-65.5 198v182h178v-170q0 -56 27 -84t74 -28q54 0 99 41v241h178v-700h-178z" />
    <glyph glyph-name="uni0428" unicode="&#x428;" horiz-adv-x="988" 
d="M405 154v546h178v-546h158v546h178v-700h-850v700h178v-546h158z" />
    <glyph glyph-name="uni0429" unicode="&#x429;" horiz-adv-x="1021" 
d="M405 154v546h178v-546h158v546h178v-546h79l-24 -278h-148v124h-757v700h178v-546h158z" />
    <glyph glyph-name="uni042A" unicode="&#x42a;" horiz-adv-x="695" 
d="M8 548v152h295v-258h111q113 0 180.5 -54.5t67.5 -165.5q0 -112 -67.5 -167t-180.5 -55h-285v548h-121zM402 294h-99v-142h99q95 0 95 70q0 72 -95 72z" />
    <glyph glyph-name="uni042B" unicode="&#x42b;" horiz-adv-x="912" 
d="M69 700h174v-258h111q113 0 180.5 -54.5t67.5 -165.5q0 -112 -67.5 -167t-180.5 -55h-285v700zM342 294h-99v-142h99q95 0 95 70q0 72 -95 72zM679 708h164v-708h-164v708z" />
    <glyph glyph-name="uni042C" unicode="&#x42c;" horiz-adv-x="635" 
d="M69 700h174v-258h111q113 0 180.5 -54.5t67.5 -165.5q0 -112 -67.5 -167t-180.5 -55h-285v700zM342 294h-99v-142h99q95 0 95 70q0 72 -95 72z" />
    <glyph glyph-name="uni042D" unicode="&#x42d;" horiz-adv-x="687" 
d="M183 280v140h296q-14 70 -54 104t-99 34q-109 0 -148 -106l-154 44q32 96 112.5 154t189.5 58q145 0 236 -94t91 -264t-91 -264t-236 -94q-115 0 -196 58.5t-106 153.5l154 44q45 -106 148 -106q59 0 99 34t54 104h-296z" />
    <glyph glyph-name="uni042E" unicode="&#x42e;" horiz-adv-x="1035" 
d="M657 708q143 0 243.5 -93t100.5 -265t-100.5 -265t-243.5 -93q-124 0 -218.5 71t-118.5 205h-73v-268h-178v700h178v-268h73q24 134 118.5 205t218.5 71zM657 554q-72 0 -119 -51.5t-47 -152.5t47 -152.5t119 -51.5t119 51.5t47 152.5t-47 152.5t-119 51.5z" />
    <glyph glyph-name="uni042F" unicode="&#x42f;" horiz-adv-x="648" 
d="M372 288l-179 -288h-191l193 311q-55 26 -85.5 77t-30.5 113q0 89 60 144t163 55h277v-700h-172v288h-35zM322 436h85v130h-85q-79 0 -79 -65t79 -65z" />
    <glyph glyph-name="uni0430" unicode="&#x430;" horiz-adv-x="602" 
d="M26 252q0 120 62 190t164 70q89 0 132 -48v40h164v-504h-164v43q-20 -24 -55.5 -37.5t-73.5 -13.5q-104 0 -166.5 70t-62.5 190zM186 252q0 -59 29.5 -89.5t73.5 -30.5t73.5 30.5t29.5 89.5t-29.5 89.5t-73.5 30.5t-73.5 -30.5t-29.5 -89.5z" />
    <glyph glyph-name="uni0431" unicode="&#x431;" horiz-adv-x="601" 
d="M34 328q0 197 70.5 284.5t204.5 87.5h11q56 0 75 47h120q0 -88 -45.5 -131.5t-122.5 -43.5h-39q-94 0 -111 -95q44 35 118 35q118 0 185 -69.5t67 -190.5q0 -119 -76 -189.5t-195 -70.5q-118 0 -190 89.5t-72 246.5zM198 252q0 -52 26.5 -86t73.5 -34q46 0 72.5 34
t26.5 86t-26.5 86t-72.5 34q-47 0 -73.5 -34t-26.5 -86z" />
    <glyph glyph-name="uni0432" unicode="&#x432;" horiz-adv-x="515" 
d="M62 504h216q77 0 123.5 -35t46.5 -98q0 -58 -48 -96q39 -21 59.5 -48.5t20.5 -78.5q0 -74 -45.5 -111t-125.5 -37h-247v504zM261 398h-55v-76h55q47 0 47 38t-47 38zM271 208h-65v-92h65q63 0 63 46t-63 46z" />
    <glyph glyph-name="uni0433" unicode="&#x433;" horiz-adv-x="446" 
d="M226 0h-164v504h376v-130h-212v-374z" />
    <glyph glyph-name="uni0434" unicode="&#x434;" horiz-adv-x="590" 
d="M410 -114v114h-234v-114h-129l-19 242h45l59 376h388v-376h38l-17 -242h-131zM259 376l-39 -248h152v248h-113z" />
    <glyph glyph-name="uni0435" unicode="&#x435;" 
d="M535 210h-348q16 -92 112 -92q64 0 99 54l126 -46q-72 -134 -236 -134q-65 0 -116 23.5t-80 62t-43.5 83t-14.5 91.5q0 63 27 120.5t87 98.5t142 41q65 0 114.5 -23.5t76.5 -62t40.5 -80t13.5 -84.5v-52zM288 393q-33 0 -59.5 -19.5t-37.5 -57.5h193q-6 34 -31 55.5
t-65 21.5z" />
    <glyph glyph-name="uni0436" unicode="&#x436;" horiz-adv-x="836" 
d="M336 504h164v-150l124 150h196l-202 -232l215 -272h-195l-138 184v-184h-164v184l-138 -184h-195l215 272l-202 232h196l124 -150v150z" />
    <glyph glyph-name="uni0437" unicode="&#x437;" horiz-adv-x="446" 
d="M30 154l133 19q3 -26 19.5 -43.5t43.5 -17.5q20 0 33.5 12.5t13.5 34.5q0 49 -70 49h-33v106h35q27 0 44 12.5t17 33.5q0 19 -13 30.5t-36 11.5q-21 0 -36.5 -13.5t-19.5 -37.5l-120 33q15 53 61 90.5t121 37.5q78 0 124.5 -37.5t46.5 -91.5q0 -75 -59 -113
q35 -14 57.5 -45t22.5 -74q0 -75 -53 -117t-135 -42q-88 0 -139 45.5t-58 116.5z" />
    <glyph glyph-name="uni0438" unicode="&#x438;" horiz-adv-x="576" 
d="M62 504h146v-271l149 271h157v-504h-146v271l-149 -271h-157v504z" />
    <glyph glyph-name="uni0439" unicode="&#x439;" horiz-adv-x="576" 
d="M62 504h146v-271l149 271h157v-504h-146v271l-149 -271h-157v504zM158 700h103q0 -12 7.5 -20t19.5 -8t19.5 8t7.5 20h103q0 -50 -35.5 -85t-94.5 -35t-94.5 35t-35.5 85z" />
    <glyph glyph-name="uni043A" unicode="&#x43a;" horiz-adv-x="562" 
d="M62 504h164v-150l124 150h196l-202 -232l215 -272h-195l-138 184v-184h-164v504z" />
    <glyph glyph-name="uni043B" unicode="&#x43b;" horiz-adv-x="593" 
d="M109 218l28 286h394v-504h-152v376h-106l-24 -218q-5 -44 -18 -73.5t-30 -46t-47 -25.5t-57.5 -11t-73.5 -2v126q78 0 86 92z" />
    <glyph glyph-name="uni043C" unicode="&#x43c;" horiz-adv-x="636" 
d="M62 0v504h154l102 -262l102 262h154v-504h-144v208l-61 -162h-102l-61 162v-208h-144z" />
    <glyph glyph-name="uni043D" unicode="&#x43d;" horiz-adv-x="572" 
d="M62 0v504h152v-171h144v171h152v-504h-152v203h-144v-203h-152z" />
    <glyph glyph-name="uni043E" unicode="&#x43e;" horiz-adv-x="600" 
d="M34 252q0 110 70 185t196 75t196 -75t70 -185t-70 -185t-196 -75t-196 75t-70 185zM198 252q0 -56 25.5 -88t76.5 -32t76.5 32t25.5 88t-25.5 88t-76.5 32t-76.5 -32t-25.5 -88z" />
    <glyph glyph-name="uni043F" unicode="&#x43f;" horiz-adv-x="561" 
d="M62 0v504h437v-504h-154v372h-129v-372h-154z" />
    <glyph glyph-name="uni0440" unicode="&#x440;" horiz-adv-x="602" 
d="M568 252q0 -119 -65 -189.5t-167 -70.5q-76 0 -110 38v-234h-164v708h164v-43q46 51 126 51q97 0 156.5 -70t59.5 -190zM408 252q0 60 -26 90t-69 30t-69 -30t-26 -90t26 -90t69 -30t69 30t26 90z" />
    <glyph glyph-name="uni0441" unicode="&#x441;" 
d="M397 198l141 -59q-65 -147 -243 -147q-120 0 -190.5 74.5t-70.5 185.5t70.5 185.5t190.5 74.5q184 0 242 -148l-145 -60q-25 68 -92 68q-47 0 -71.5 -33t-24.5 -87t24.5 -87t73.5 -33q60 0 95 66z" />
    <glyph glyph-name="uni0442" unicode="&#x442;" horiz-adv-x="466" 
d="M24 372v132h418v-132h-131v-372h-156v372h-131z" />
    <glyph glyph-name="uni0443" unicode="&#x443;" horiz-adv-x="513" 
d="M95 -204l89 244l-181 464h169l91 -245l90 245h158l-262 -708h-154z" />
    <glyph glyph-name="uni0444" unicode="&#x444;" horiz-adv-x="724" 
d="M280 -204v197q-114 6 -180 78t-66 181t66 181t180 78v197h164v-197q114 -6 180 -78t66 -181t-66 -181t-180 -78v-197h-164zM534 252q0 54 -26 89t-64 41v-260q38 6 64 41t26 89zM190 252q0 -54 26 -89t64 -41v260q-38 -6 -64 -41t-26 -89z" />
    <glyph glyph-name="uni0445" unicode="&#x445;" horiz-adv-x="526" 
d="M325 504h175l-148 -235l167 -269h-178l-78 134l-78 -134h-178l167 269l-148 235h175l62 -102z" />
    <glyph glyph-name="uni0446" unicode="&#x446;" horiz-adv-x="571" 
d="M62 0v504h148v-368h137v368h148v-368h44l-18 -250h-138v114h-321z" />
    <glyph glyph-name="uni0447" unicode="&#x447;" horiz-adv-x="582" 
d="M520 0h-164v191q-63 -37 -128 -37q-81 0 -127.5 46.5t-46.5 135.5v168h164v-137q0 -31 15 -49t41 -18q49 0 82 57v147h164v-504z" />
    <glyph glyph-name="uni0448" unicode="&#x448;" horiz-adv-x="826" 
d="M62 0v504h156v-368h117v368h156v-368h117v368h156v-504h-702z" />
    <glyph glyph-name="uni0449" unicode="&#x449;" horiz-adv-x="840" 
d="M62 0v504h156v-368h117v368h156v-368h117v368h156v-368h44l-19 -250h-139v114h-588z" />
    <glyph glyph-name="uni044A" unicode="&#x44a;" horiz-adv-x="557" 
d="M23 380v124h239v-192h86q82 0 128 -40t46 -116t-46 -116t-128 -40h-234v380h-91zM322 196h-60v-80h60q52 0 52 40t-52 40z" />
    <glyph glyph-name="uni044B" unicode="&#x44b;" horiz-adv-x="793" 
d="M62 0v504h148v-192h86q82 0 128 -40t46 -116t-46 -116t-128 -40h-234zM270 196h-60v-80h60q52 0 52 40t-52 40zM567 504h164v-504h-164v504z" />
    <glyph glyph-name="uni044C" unicode="&#x44c;" horiz-adv-x="505" 
d="M62 0v504h148v-192h86q82 0 128 -40t46 -116t-46 -116t-128 -40h-234zM270 196h-60v-80h60q52 0 52 40t-52 40z" />
    <glyph glyph-name="uni044D" unicode="&#x44d;" horiz-adv-x="554" 
d="M253 122q76 0 101 75h-183v110h183q-12 37 -39 56t-61 19q-73 0 -106 -66l-122 64q78 132 228 132q122 0 194 -74.5t72 -185.5t-72 -185.5t-194 -74.5q-81 0 -134 31t-93 100l125 67q35 -68 101 -68z" />
    <glyph glyph-name="uni044E" unicode="&#x44e;" horiz-adv-x="822" 
d="M214 504v-185h49q19 86 86 139.5t173 53.5q126 0 196 -75t70 -185t-70 -185t-196 -75q-106 0 -173 53.5t-86 139.5h-49v-185h-152v504h152zM426 252q0 -55 25 -87.5t71 -32.5t71 32.5t25 87.5t-25 87.5t-71 32.5t-71 -32.5t-25 -87.5z" />
    <glyph glyph-name="uni044F" unicode="&#x44f;" horiz-adv-x="523" 
d="M56 361q0 64 46.5 103.5t120.5 39.5h238v-504h-158v218h-6l-122 -218h-166l133 227q-86 36 -86 134zM240 332h63v58h-63q-16 0 -26 -8t-10 -21t10 -21t26 -8z" />
    <glyph glyph-name="uni0450" unicode="&#x450;" 
d="M535 210h-348q16 -92 112 -92q64 0 99 54l126 -46q-72 -134 -236 -134q-65 0 -116 23.5t-80 62t-43.5 83t-14.5 91.5q0 63 27 120.5t87 98.5t142 41q65 0 114.5 -23.5t76.5 -62t40.5 -80t13.5 -84.5v-52zM288 393q-33 0 -59.5 -19.5t-37.5 -57.5h193q-6 34 -31 55.5
t-65 21.5zM303 708l63 -160h-119l-152 160h208z" />
    <glyph glyph-name="uni0451" unicode="&#x451;" 
d="M535 210h-348q16 -92 112 -92q64 0 99 54l126 -46q-72 -134 -236 -134q-65 0 -116 23.5t-80 62t-43.5 83t-14.5 91.5q0 63 27 120.5t87 98.5t142 41q65 0 114.5 -23.5t76.5 -62t40.5 -80t13.5 -84.5v-52zM288 393q-33 0 -59.5 -19.5t-37.5 -57.5h193q-6 34 -31 55.5
t-65 21.5zM103 651q0 36 23 59t59 23t59 -23t23 -59t-23 -59t-59 -23t-59 23t-23 59zM306 651q0 36 23 59t59 23t59 -23t23 -59t-23 -59t-59 -23t-59 23t-23 59z" />
    <glyph glyph-name="uni0452" unicode="&#x452;" horiz-adv-x="609" 
d="M334 661v-112h-100v-103q20 30 60 48t86 18q85 0 129 -44.5t44 -130.5v-279q0 -120 -62 -188.5t-169 -81.5l-41 135q56 12 82 37t26 83v249q0 35 -18.5 54.5t-46.5 19.5q-90 0 -90 -145v-221h-164v549h-63v112h63v47h164v-47h100z" />
    <glyph glyph-name="uni0453" unicode="&#x453;" horiz-adv-x="446" 
d="M226 0h-164v504h376v-130h-212v-374zM147 548l63 160h208l-152 -160h-119z" />
    <glyph glyph-name="uni0454" unicode="&#x454;" horiz-adv-x="554" 
d="M300 382q-34 0 -61 -19t-39 -56h183v-110h-183q11 -37 38.5 -56t62.5 -19q71 0 112 60l114 -59q-76 -131 -227 -131q-122 0 -194 74.5t-72 185.5t72 185.5t194 74.5q151 0 228 -132l-122 -64q-33 66 -106 66z" />
    <glyph glyph-name="uni0455" unicode="&#x455;" horiz-adv-x="459" 
d="M239 512q111 0 166 -84l-89 -82q-33 44 -76 44q-14 0 -24 -8t-10 -20q0 -14 13.5 -25t45.5 -22q36 -12 55.5 -19.5t43 -21t35.5 -28t20 -36.5t8 -50q0 -71 -50.5 -119.5t-134.5 -48.5q-147 0 -213 137l121 65q28 -78 92 -78q44 0 44 34q0 10 -5.5 18.5t-17.5 15t-22.5 11
t-31 12t-32.5 12.5q-112 45 -112 146q0 61 48 104t126 43z" />
    <glyph glyph-name="uni0456" unicode="&#x456;" horiz-adv-x="274" 
d="M39 661q0 41 28 69.5t70 28.5t70 -28.5t28 -69.5t-28 -69.5t-70 -28.5t-70 28.5t-28 69.5zM55 504h164v-504h-164v504z" />
    <glyph glyph-name="uni0457" unicode="&#x457;" horiz-adv-x="274" 
d="M55 504h164v-504h-164v504zM-46 651q0 36 23 59t59 23t59 -23t23 -59t-23 -59t-59 -23t-59 23t-23 59zM157 651q0 36 23 59t59 23t59 -23t23 -59t-23 -59t-59 -23t-59 23t-23 59z" />
    <glyph glyph-name="uni0458" unicode="&#x458;" horiz-adv-x="288" 
d="M69 504h164v-478q0 -238 -187 -238q-48 0 -75 11v139q21 -7 41 -7q31 0 44 22t13 71v480zM53 661q0 41 28 69.5t70 28.5t70 -28.5t28 -69.5t-28 -69.5t-70 -28.5t-70 28.5t-28 69.5z" />
    <glyph glyph-name="uni0459" unicode="&#x459;" horiz-adv-x="791" 
d="M344 0v376h-71l-24 -218q-5 -44 -18 -73.5t-30 -46t-47 -25.5t-57.5 -11t-73.5 -2v126q78 0 86 92l28 286h359v-192h86q82 0 128 -40t46 -116t-46 -116t-128 -40h-238zM556 196h-60v-80h60q52 0 52 40t-52 40z" />
    <glyph glyph-name="uni045A" unicode="&#x45a;" horiz-adv-x="805" 
d="M62 0v504h152v-184h144v184h152v-184h86q82 0 128 -42t46 -118t-46 -118t-128 -42h-238v201h-144v-201h-152zM570 204h-60v-88h60q52 0 52 44t-52 44z" />
    <glyph glyph-name="uni045B" unicode="&#x45b;" horiz-adv-x="618" 
d="M79 708h164v-47h100v-112h-100v-103q20 30 60 48t86 18q85 0 129 -44.5t44 -130.5v-337h-164v292q0 35 -18.5 54.5t-46.5 19.5q-90 0 -90 -145v-221h-164v549h-63v112h63v47z" />
    <glyph glyph-name="uni045C" unicode="&#x45c;" horiz-adv-x="562" 
d="M62 504h164v-150l124 150h196l-202 -232l215 -272h-195l-138 184v-184h-164v504zM208 548l63 160h208l-152 -160h-119z" />
    <glyph glyph-name="uni045D" unicode="&#x45d;" horiz-adv-x="576" 
d="M62 504h146v-271l149 271h157v-504h-146v271l-149 -271h-157v504zM308 708l63 -160h-119l-152 160h208z" />
    <glyph glyph-name="uni045E" unicode="&#x45e;" horiz-adv-x="513" 
d="M95 -204l89 244l-181 464h169l91 -245l90 245h158l-262 -708h-154zM132 700h103q0 -12 7.5 -20t19.5 -8t19.5 8t7.5 20h103q0 -50 -35.5 -85t-94.5 -35t-94.5 35t-35.5 85z" />
    <glyph glyph-name="uni045F" unicode="&#x45f;" horiz-adv-x="566" 
d="M62 0v504h154v-372h134v372h154v-504h-147v-114h-148v114h-147z" />
    <glyph glyph-name="endash" unicode="&#x2013;" horiz-adv-x="577" 
d="M51 247v140h475v-140h-475z" />
    <glyph glyph-name="emdash" unicode="&#x2014;" horiz-adv-x="763" 
d="M51 247v140h661v-140h-661z" />
    <glyph glyph-name="quoteleft" unicode="&#x2018;" horiz-adv-x="341" 
d="M232 708l75 -252h-116l-152 252h193z" />
    <glyph glyph-name="quoteright" unicode="&#x2019;" horiz-adv-x="341" 
d="M34 456l75 252h193l-152 -252h-116z" />
    <glyph glyph-name="quotesinglbase" unicode="&#x201a;" horiz-adv-x="341" 
d="M34 -14l75 252h193l-152 -252h-116z" />
    <glyph glyph-name="quotedblleft" unicode="&#x201c;" horiz-adv-x="563" 
d="M232 708l75 -252h-116l-152 252h193zM454 708l75 -252h-116l-152 252h193z" />
    <glyph glyph-name="quotedblright" unicode="&#x201d;" horiz-adv-x="563" 
d="M256 456l75 252h193l-152 -252h-116zM34 456l75 252h193l-152 -252h-116z" />
    <glyph glyph-name="quotedblbase" unicode="&#x201e;" horiz-adv-x="563" 
d="M256 -14l75 252h193l-152 -252h-116zM34 -14l75 252h193l-152 -252h-116z" />
    <glyph glyph-name="dagger" unicode="&#x2020;" horiz-adv-x="532" 
d="M40 368v136h145v246h162v-246h145v-136h-145v-418h-162v418h-145z" />
    <glyph glyph-name="daggerdbl" unicode="&#x2021;" horiz-adv-x="532" 
d="M40 368v136h145v246h162v-246h145v-136h-145v-36h145v-136h-145v-246h-162v246h-145v136h145v36h-145z" />
    <glyph glyph-name="bullet" unicode="&#x2022;" horiz-adv-x="390" 
d="M61 330q0 56 39.5 95t94.5 39t94.5 -39t39.5 -95t-39.5 -95t-94.5 -39t-94.5 39t-39.5 95z" />
    <glyph glyph-name="ellipsis" unicode="&#x2026;" horiz-adv-x="954" 
d="M706 85q0 40 26.5 66.5t66.5 26.5t66.5 -26.5t26.5 -66.5t-26.5 -66.5t-66.5 -26.5t-66.5 26.5t-26.5 66.5zM384 85q0 40 26.5 66.5t66.5 26.5t66.5 -26.5t26.5 -66.5t-26.5 -66.5t-66.5 -26.5t-66.5 26.5t-26.5 66.5zM62 85q0 40 26.5 66.5t66.5 26.5t66.5 -26.5
t26.5 -66.5t-26.5 -66.5t-66.5 -26.5t-66.5 26.5t-26.5 66.5z" />
    <glyph glyph-name="perthousand" unicode="&#x2030;" horiz-adv-x="1221" 
d="M845 152q0 69 46.5 114.5t121.5 45.5t121.5 -45.5t46.5 -114.5t-46.5 -114.5t-121.5 -45.5t-121.5 45.5t-46.5 114.5zM961 152q0 -24 14.5 -39t37.5 -15t37.5 15t14.5 39t-14.5 39t-37.5 15t-37.5 -15t-14.5 -39zM40 548q0 69 46.5 114.5t121.5 45.5t121.5 -45.5
t46.5 -114.5t-46.5 -114.5t-121.5 -45.5t-121.5 45.5t-46.5 114.5zM156 548q0 -24 14.5 -39t37.5 -15t37.5 15t14.5 39t-14.5 39t-37.5 15t-37.5 -15t-14.5 -39zM446 152q0 69 46.5 114.5t121.5 45.5t121.5 -45.5t46.5 -114.5t-46.5 -114.5t-121.5 -45.5t-121.5 45.5
t-46.5 114.5zM562 152q0 -24 14.5 -39t37.5 -15t37.5 15t14.5 39t-14.5 39t-37.5 15t-37.5 -15t-14.5 -39zM641 745l88 -70l-538 -719l-88 70z" />
    <glyph glyph-name="guilsinglleft" unicode="&#x2039;" horiz-adv-x="396" 
d="M34 263v94l323 229v-164l-159 -112l159 -112v-164z" />
    <glyph glyph-name="guilsinglright" unicode="&#x203a;" horiz-adv-x="396" 
d="M362 357v-94l-323 -229v164l159 112l-159 112v164z" />
    <glyph glyph-name="fraction" unicode="&#x2044;" horiz-adv-x="632" 
d="M541 745l88 -70l-538 -719l-88 70z" />
    <glyph glyph-name="zerosuperior" unicode="&#x2070;" horiz-adv-x="392" 
d="M196 704q82 0 127.5 -53t45.5 -151t-45.5 -151t-127.5 -53t-127.5 53t-45.5 151t45.5 151t127.5 53zM196 608q-60 0 -60 -108t60 -108t60 108t-60 108z" />
    <glyph glyph-name="foursuperior" unicode="&#x2074;" horiz-adv-x="358" 
d="M192 300v61h-169v49l160 290h114v-246h43v-93h-43v-61h-105zM140 454h52v102z" />
    <glyph glyph-name="fivesuperior" unicode="&#x2075;" horiz-adv-x="330" 
d="M19 415l100 11q8 -38 43 -38q20 0 32.5 13t12.5 35q0 48 -45 48q-27 0 -49 -19l-85 17l21 218h240v-90h-155l-10 -58q26 13 58 13q65 0 98.5 -35.5t33.5 -91.5q0 -66 -41 -104t-111 -38q-61 0 -99.5 33.5t-43.5 85.5z" />
    <glyph glyph-name="sixsuperior" unicode="&#x2076;" horiz-adv-x="333" 
d="M266 704l-88 -145h6q57 0 93.5 -35t36.5 -96q0 -59 -41.5 -95.5t-104.5 -36.5t-104 36.5t-41 95.5q0 44 24 87l107 189h112zM168 466q-15 0 -26 -10.5t-11 -27.5t11 -28t26 -11q16 0 26.5 11t10.5 28t-10.5 27.5t-26.5 10.5z" />
    <glyph glyph-name="sevensuperior" unicode="&#x2077;" horiz-adv-x="299" 
d="M291 700v-42l-146 -358h-111l129 310h-147v90h275z" />
    <glyph glyph-name="eightsuperior" unicode="&#x2078;" horiz-adv-x="328" 
d="M164 704q63 0 97 -31.5t34 -76.5q0 -51 -45 -80q25 -8 42.5 -33t17.5 -57q0 -60 -39 -95t-107 -35t-107 35t-39 95q0 32 17.5 57t42.5 33q-45 29 -45 80q0 45 34 76.5t97 31.5zM164 468q-18 0 -28 -11t-10 -29t10 -29t28 -11t28 11t10 29t-10 29t-28 11zM164 629
q-16 0 -26 -9.5t-10 -27.5q0 -37 36 -37t36 37q0 18 -10 27.5t-26 9.5z" />
    <glyph glyph-name="ninesuperior" unicode="&#x2079;" horiz-adv-x="333" 
d="M67 296l88 145h-6q-57 0 -93.5 35t-36.5 96q0 59 41.5 95.5t104.5 36.5t104 -36.5t41 -95.5q0 -44 -24 -87l-107 -189h-112zM165 534q15 0 26 10.5t11 27.5t-11 28t-26 11q-16 0 -26.5 -11t-10.5 -28t10.5 -27.5t26.5 -10.5z" />
    <glyph glyph-name="zeroinferior" unicode="&#x2080;" horiz-adv-x="392" 
d="M196 200q82 0 127.5 -53t45.5 -151t-45.5 -151t-127.5 -53t-127.5 53t-45.5 151t45.5 151t127.5 53zM196 104q-60 0 -60 -108t60 -108t60 108t-60 108z" />
    <glyph glyph-name="oneinferior" unicode="&#x2081;" horiz-adv-x="234" 
d="M148 196h57v-400h-112v262l-81 -38v111z" />
    <glyph glyph-name="twoinferior" unicode="&#x2082;" horiz-adv-x="320" 
d="M22 -204v39l147 178q21 26 21 55q0 34 -31 34q-15 0 -25.5 -11t-12.5 -31l-97 25q9 53 46 84t91 31q65 0 101.5 -32.5t36.5 -89.5t-42 -108l-69 -84h114v-90h-280z" />
    <glyph glyph-name="threeinferior" unicode="&#x2083;" horiz-adv-x="337" 
d="M26 -77l98 11q2 -20 14.5 -33t32.5 -13q18 0 30.5 11t12.5 33q0 21 -12.5 34t-30.5 13q-22 0 -37 -10l-44 59l61 78h-108v90h250v-46l-83 -103q51 -4 81 -36.5t30 -79.5q0 -63 -39 -101t-109 -38q-63 0 -103.5 38t-43.5 93z" />
    <glyph glyph-name="fourinferior" unicode="&#x2084;" horiz-adv-x="358" 
d="M192 -204v61h-169v49l160 290h114v-246h43v-93h-43v-61h-105zM140 -50h52v102z" />
    <glyph glyph-name="fiveinferior" unicode="&#x2085;" horiz-adv-x="330" 
d="M19 -89l100 11q8 -38 43 -38q20 0 32.5 13t12.5 35q0 48 -45 48q-27 0 -49 -19l-85 17l21 218h240v-90h-155l-10 -58q26 13 58 13q65 0 98.5 -35.5t33.5 -91.5q0 -66 -41 -104t-111 -38q-61 0 -99.5 33.5t-43.5 85.5z" />
    <glyph glyph-name="sixinferior" unicode="&#x2086;" horiz-adv-x="333" 
d="M266 200l-88 -145h6q57 0 93.5 -35t36.5 -96q0 -59 -41.5 -95.5t-104.5 -36.5t-104 36.5t-41 95.5q0 44 24 87l107 189h112zM168 -38q-15 0 -26 -10.5t-11 -27.5t11 -28t26 -11q16 0 26.5 11t10.5 28t-10.5 27.5t-26.5 10.5z" />
    <glyph glyph-name="seveninferior" unicode="&#x2087;" horiz-adv-x="299" 
d="M291 196v-42l-146 -358h-111l129 310h-147v90h275z" />
    <glyph glyph-name="eightinferior" unicode="&#x2088;" horiz-adv-x="328" 
d="M164 200q63 0 97 -31.5t34 -76.5q0 -51 -45 -80q25 -8 42.5 -33t17.5 -57q0 -60 -39 -95t-107 -35t-107 35t-39 95q0 32 17.5 57t42.5 33q-45 29 -45 80q0 45 34 76.5t97 31.5zM164 -36q-18 0 -28 -11t-10 -29t10 -29t28 -11t28 11t10 29t-10 29t-28 11zM164 125
q-16 0 -26 -9.5t-10 -27.5q0 -37 36 -37t36 37q0 18 -10 27.5t-26 9.5z" />
    <glyph glyph-name="nineinferior" unicode="&#x2089;" horiz-adv-x="333" 
d="M67 -208l88 145h-6q-57 0 -93.5 35t-36.5 96q0 59 41.5 95.5t104.5 36.5t104 -36.5t41 -95.5q0 -44 -24 -87l-107 -189h-112zM165 30q15 0 26 10.5t11 27.5t-11 28t-26 11q-16 0 -26.5 -11t-10.5 -28t10.5 -27.5t26.5 -10.5z" />
    <glyph glyph-name="Euro" unicode="&#x20ac;" horiz-adv-x="656" 
d="M20 368l58 124h45q16 60 46.5 104t69 67.5t78 34t81.5 10.5q161 0 226 -121l-127 -75q-36 60 -99 60q-87 0 -118 -80h200l-58 -124h-162v-36h220l-58 -124h-142q18 -43 47.5 -57.5t70.5 -14.5q69 0 104 66l125 -83q-72 -127 -229 -127q-42 0 -81.5 10.5t-78 34t-69 67.5
t-46.5 104h-103l58 124h28v36h-86z" />
    <glyph glyph-name="trademark" unicode="&#x2122;" horiz-adv-x="844" 
d="M18 600v100h317v-100h-104v-300h-109v300h-104zM381 300v400h113l89 -212l89 212h113v-400h-109v170l-57 -133h-72l-57 133v-170h-109z" />
    <glyph glyph-name="Omega" unicode="&#x2126;" horiz-adv-x="710" 
d="M656 128v-128h-279v80q81 160 81 348q0 58 -27 92t-76 34t-76 -34t-27 -92q0 -188 81 -348v-80h-279v128h132q-4 6 -11.5 16t-26 43.5t-33 68t-26 85t-11.5 99.5q0 118 75.5 193t201.5 75t201.5 -75t75.5 -193q0 -77 -27 -155t-54 -117l-27 -40h132z" />
    <glyph glyph-name="onethird" unicode="&#x2153;" horiz-adv-x="822" 
d="M610 745l88 -70l-538 -719l-88 70zM157 700h57v-400h-112v262l-81 -38v111zM511 127l98 11q2 -20 14.5 -33t32.5 -13q18 0 30.5 11t12.5 33q0 21 -12.5 34t-30.5 13q-22 0 -37 -10l-44 59l61 78h-108v90h250v-46l-83 -103q51 -4 81 -36.5t30 -79.5q0 -63 -39 -101
t-109 -38q-63 0 -103.5 38t-43.5 93z" />
    <glyph glyph-name="twothirds" unicode="&#x2154;" horiz-adv-x="882" 
d="M674 745l88 -70l-538 -719l-88 70zM22 300v39l147 178q21 25 21 55q0 34 -31 34q-15 0 -25.5 -11t-12.5 -31l-97 25q9 53 46 84t91 31q65 0 101.5 -32.5t36.5 -89.5t-42 -108l-69 -84h114v-90h-280zM571 127l98 11q2 -20 14.5 -33t32.5 -13q18 0 30.5 11t12.5 33
q0 21 -12.5 34t-30.5 13q-22 0 -37 -10l-44 59l61 78h-108v90h250v-46l-83 -103q51 -4 81 -36.5t30 -79.5q0 -63 -39 -101t-109 -38q-63 0 -103.5 38t-43.5 93z" />
    <glyph glyph-name="oneeighth" unicode="&#x215b;" horiz-adv-x="805" 
d="M611 745l88 -70l-538 -719l-88 70zM157 700h57v-400h-112v262l-81 -38v111zM641 404q63 0 97 -31.5t34 -76.5q0 -51 -45 -80q25 -8 42.5 -33t17.5 -57q0 -60 -39 -95t-107 -35t-107 35t-39 95q0 32 17.5 57t42.5 33q-45 29 -45 80q0 45 34 76.5t97 31.5zM641 168
q-18 0 -28 -11t-10 -29t10 -29t28 -11t28 11t10 29t-10 29t-28 11zM641 329q-16 0 -26 -9.5t-10 -27.5q0 -37 36 -37t36 37q0 18 -10 27.5t-26 9.5z" />
    <glyph glyph-name="threeeighths" unicode="&#x215c;" horiz-adv-x="850" 
d="M656 745l88 -70l-538 -719l-88 70zM26 427l98 11q2 -20 14.5 -33t32.5 -13q18 0 30.5 11t12.5 33q0 21 -12.5 34t-30.5 13q-22 0 -37 -10l-44 59l61 78h-108v90h250v-46l-83 -103q51 -4 81 -36.5t30 -79.5q0 -63 -39 -101t-109 -38q-63 0 -103.5 38t-43.5 93zM686 404
q63 0 97 -31.5t34 -76.5q0 -51 -45 -80q25 -8 42.5 -33t17.5 -57q0 -60 -39 -95t-107 -35t-107 35t-39 95q0 32 17.5 57t42.5 33q-45 29 -45 80q0 45 34 76.5t97 31.5zM686 168q-18 0 -28 -11t-10 -29t10 -29t28 -11t28 11t10 29t-10 29t-28 11zM686 329q-16 0 -26 -9.5
t-10 -27.5q0 -37 36 -37t36 37q0 18 -10 27.5t-26 9.5z" />
    <glyph glyph-name="fiveeighths" unicode="&#x215d;" horiz-adv-x="857" 
d="M663 745l88 -70l-538 -719l-88 70zM19 415l100 11q8 -38 43 -38q20 0 32.5 13t12.5 35q0 48 -45 48q-27 0 -49 -19l-85 17l21 218h240v-90h-155l-10 -58q26 13 58 13q65 0 98.5 -35.5t33.5 -91.5q0 -66 -41 -104t-111 -38q-61 0 -99.5 33.5t-43.5 85.5zM693 404
q63 0 97 -31.5t34 -76.5q0 -51 -45 -80q25 -8 42.5 -33t17.5 -57q0 -60 -39 -95t-107 -35t-107 35t-39 95q0 32 17.5 57t42.5 33q-45 29 -45 80q0 45 34 76.5t97 31.5zM693 168q-18 0 -28 -11t-10 -29t10 -29t28 -11t28 11t10 29t-10 29t-28 11zM693 329q-16 0 -26 -9.5
t-10 -27.5q0 -37 36 -37t36 37q0 18 -10 27.5t-26 9.5z" />
    <glyph glyph-name="seveneighths" unicode="&#x215e;" horiz-adv-x="779" 
d="M584 745l88 -70l-538 -719l-88 70zM291 700v-42l-146 -358h-111l129 310h-147v90h275zM615 404q63 0 97 -31.5t34 -76.5q0 -51 -45 -80q25 -8 42.5 -33t17.5 -57q0 -60 -39 -95t-107 -35t-107 35t-39 95q0 32 17.5 57t42.5 33q-45 29 -45 80q0 45 34 76.5t97 31.5z
M615 168q-18 0 -28 -11t-10 -29t10 -29t28 -11t28 11t10 29t-10 29t-28 11zM615 329q-16 0 -26 -9.5t-10 -27.5q0 -37 36 -37t36 37q0 18 -10 27.5t-26 9.5z" />
    <glyph glyph-name="partialdiff" unicode="&#x2202;" horiz-adv-x="623" 
d="M226 521l-135 40q25 66 85.5 106.5t138.5 40.5q141 0 202 -84t61 -256q0 -169 -75 -272.5t-230 -103.5q-110 0 -174.5 60t-64.5 159q0 130 89.5 215.5t218.5 85.5q49 0 80 -14q-7 38 -31 62t-60 24q-76 0 -105 -63zM329 378q-57 0 -92.5 -47t-35.5 -108q0 -41 20.5 -69
t62.5 -28q57 0 90 45.5t33 109.5q0 97 -78 97z" />
    <glyph glyph-name="Delta" unicode="&#x2206;" horiz-adv-x="696" 
d="M39 0v52l242 648h134l242 -648v-52h-618zM348 492l-121 -358h242z" />
    <glyph glyph-name="product" unicode="&#x220f;" horiz-adv-x="592" 
d="M68 0v700h456v-700h-168v558h-120v-558h-168z" />
    <glyph glyph-name="summation" unicode="&#x2211;" horiz-adv-x="549" 
d="M503 0h-463v69l176 281l-176 281v69h463v-134h-244l117 -192v-48l-118 -192h245v-134z" />
    <glyph glyph-name="minus" unicode="&#x2212;" horiz-adv-x="588" 
d="M46 387h496v-140h-496v140z" />
    <glyph glyph-name="radical" unicode="&#x221a;" horiz-adv-x="627" 
d="M40 251v151h218l57 -178l134 484h162l-220 -708h-145l-85 251h-121z" />
    <glyph glyph-name="infinity" unicode="&#x221e;" horiz-adv-x="874" 
d="M619 294q32 0 51 17t19 48t-19 48t-51 17q-56 0 -99 -65q43 -65 99 -65zM635 162q-56 0 -110.5 23t-87.5 72q-33 -49 -87.5 -72t-110.5 -23q-92 0 -145.5 55t-53.5 142t53.5 142t145.5 55q56 0 110.5 -23t87.5 -72q33 49 87.5 72t110.5 23q92 0 145.5 -55t53.5 -142
t-53.5 -142t-145.5 -55zM255 294q56 0 99 65q-43 65 -99 65q-32 0 -51 -17t-19 -48t19 -48t51 -17z" />
    <glyph glyph-name="integral" unicode="&#x222b;" horiz-adv-x="476" 
d="M71 -5l106 535q35 178 228 178q58 0 102 -24l-54 -124q-23 20 -56 20q-47 0 -58 -60l-109 -554q-17 -90 -77 -134t-151 -44q-63 0 -96 21l53 137q27 -18 55 -18q24 0 37 16t20 51z" />
    <glyph glyph-name="approxequal" unicode="&#x2248;" horiz-adv-x="633" 
d="M135 127l-86 90q19 50 63.5 83.5t103.5 33.5q44 0 106 -29t94 -29q45 0 85 55l86 -90q-19 -50 -63.5 -83.5t-103.5 -33.5q-44 0 -106 29t-94 29q-45 0 -85 -55zM132 334l-86 90q19 50 63.5 83.5t103.5 33.5q45 0 106 -29t94 -29q45 0 85 55l86 -90q-19 -50 -63.5 -83.5
t-103.5 -33.5q-45 0 -106 29t-94 29q-45 0 -85 -55z" />
    <glyph glyph-name="notequal" unicode="&#x2260;" horiz-adv-x="573" 
d="M84 100l23 42h-53v140h136l32 56h-168v140h250l64 111l121 -69l-23 -42h53v-140h-136l-32 -56h168v-140h-250l-64 -111z" />
    <glyph glyph-name="lessequal" unicode="&#x2264;" horiz-adv-x="573" 
d="M77 364v132l412 204v-168l-215 -102l215 -102v-168zM46 140h496v-140h-496v140z" />
    <glyph glyph-name="greaterequal" unicode="&#x2265;" horiz-adv-x="573" 
d="M490 496v-132l-412 -204v168l215 102l-215 102v168zM47 140h496v-140h-496v140z" />
    <glyph glyph-name="lozenge" unicode="&#x25ca;" horiz-adv-x="602" 
d="M229 0l-182 350l182 350h144l182 -350l-182 -350h-144zM301 138l102 212l-102 212l-102 -212z" />
    <glyph glyph-name="apple" unicode="&#xf8ff;" horiz-adv-x="730" 
d="M661 617v-595q0 -9 -6.5 -15.5t-15.5 -6.5q-3 0 -7 1l-267 77l-267 -77q-4 -1 -7 -1q-9 0 -15.5 6.5t-6.5 15.5v595q0 17 16 22l270 78q6 2 10 2t10 -2l270 -78q16 -5 16 -22zM343 366v303l-230 -67q6 -94 71.5 -161t158.5 -75zM387 669v-303q93 8 158.5 75t71.5 161z
M112 463v-412l231 67v204q-73 6 -134 43.5t-97 97.5zM618 51v412q-37 -60 -97.5 -97.5t-133.5 -43.5v-204z" />
    <glyph glyph-name="No" horiz-adv-x="1260" 
d="M473 700h160v-700h-173l-231 418v-418h-160v700h173l231 -418v418zM723 0v126h475v-126h-475zM694 448q0 110 70 185t196 75t196 -75t70 -185t-70 -185t-196 -75t-196 75t-70 185zM858 448q0 -56 25.5 -88t76.5 -32t76.5 32t25.5 88t-25.5 88t-76.5 32t-76.5 -32
t-25.5 -88z" />
    <glyph glyph-name="zero.tn" horiz-adv-x="608" 
d="M304 708q129 0 199.5 -94.5t70.5 -263.5t-70.5 -263.5t-199.5 -94.5t-199.5 94.5t-70.5 263.5t70.5 263.5t199.5 94.5zM304 564q-55 0 -84.5 -55.5t-29.5 -158.5t29.5 -158.5t84.5 -55.5t84.5 55.5t29.5 158.5t-29.5 158.5t-84.5 55.5z" />
    <glyph glyph-name="one.tn" horiz-adv-x="572" 
d="M342 700h89v-700h-162v482l-128 -76v178z" />
    <glyph glyph-name="two.tn" horiz-adv-x="599" 
d="M63 0v74l256 313q47 59 47 109q0 31 -19 51.5t-50 20.5q-68 0 -80 -84l-147 30q11 83 69.5 138.5t157.5 55.5q105 0 164.5 -58t59.5 -149q0 -86 -80 -186l-139 -175h234v-140h-473z" />
    <glyph glyph-name="three.tn" horiz-adv-x="602" 
d="M54 201l151 22q22 -91 98 -91q38 0 63.5 25.5t25.5 68.5t-26.5 70.5t-67.5 27.5q-35 0 -60 -14l-66 93l118 159h-204v138h417v-66l-150 -199q89 0 141.5 -54t52.5 -154q0 -107 -69 -171t-175 -64q-110 0 -175 58.5t-74 150.5z" />
    <glyph glyph-name="four.tn" horiz-adv-x="608" 
d="M337 0v114h-298v86l292 500h156v-448h82v-138h-82v-114h-150zM214 252h123v218z" />
    <glyph glyph-name="five.tn" horiz-adv-x="600" 
d="M62 188l147 26q6 -40 31 -58t57 -18q35 0 57 24.5t22 69.5t-22.5 71t-62.5 26q-30 0 -57 -15t-41 -40l-120 26l37 400h386v-138h-258l-16 -118q38 20 97 20q106 0 162 -63t56 -169t-67.5 -173t-175.5 -67q-90 0 -156.5 55t-75.5 141z" />
    <glyph glyph-name="six.tn" horiz-adv-x="600" 
d="M310 448q104 0 168 -63t64 -165q0 -100 -67 -164t-173 -64q-108 0 -176 64.5t-68 163.5q0 72 39 141l194 347h171zM302 310q-37 0 -62 -24t-25 -66q0 -40 25 -65t62 -25t62 25t25 65q0 42 -25 66t-62 24z" />
    <glyph glyph-name="seven.tn" horiz-adv-x="596" 
d="M525 700v-72l-254 -628h-167l229 562h-262v138h454z" />
    <glyph glyph-name="eight.tn" horiz-adv-x="600" 
d="M300 708q91 0 150 -55.5t59 -135.5q0 -86 -65 -140q94 -53 94 -168q0 -99 -69.5 -158t-168.5 -59t-168.5 59t-69.5 158q0 115 94 168q-65 54 -65 140q0 80 59 135.5t150 55.5zM300 300q-38 0 -63 -23t-25 -64t25 -64t63 -23t63 23t25 64t-25 64t-63 23zM300 584
q-33 0 -52 -20.5t-19 -53.5t19 -53.5t52 -20.5t52 20.5t19 53.5t-19 53.5t-52 20.5z" />
    <glyph glyph-name="nine.tn" horiz-adv-x="600" 
d="M138 -8l152 260q-104 0 -168 63t-64 165q0 100 67 164t173 64q112 0 178 -64t66 -164q0 -73 -51 -163l-182 -325h-171zM298 390q37 0 62 24t25 66q0 40 -25 65t-62 25t-62 -25t-25 -65q0 -42 25 -66t62 -24z" />
    <glyph glyph-name="quotedblleft.alt" horiz-adv-x="516" 
d="M218 708l28 -36q-36 -30 -55.5 -55t-29.5 -61q66 -25 66 -86q0 -40 -26.5 -64.5t-67.5 -24.5t-66.5 27.5t-25.5 68.5q0 72 56.5 135.5t120.5 95.5zM437 708l28 -36q-36 -30 -55.5 -55t-29.5 -61q66 -25 66 -86q0 -40 -26.5 -64.5t-67.5 -24.5t-66.5 27.5t-25.5 68.5
q0 72 56.5 135.5t120.5 95.5z" />
    <glyph glyph-name="quotedblright.alt" horiz-adv-x="516" 
d="M298 381l-28 36q36 30 55.5 55t29.5 61q-66 25 -66 86q0 40 26.5 64.5t67.5 24.5t66.5 -27.5t25.5 -68.5q0 -72 -56.5 -135.5t-120.5 -95.5zM79 381l-28 36q36 30 55.5 55t29.5 61q-66 25 -66 86q0 40 26.5 64.5t67.5 24.5t66.5 -27.5t25.5 -68.5q0 -72 -56.5 -135.5
t-120.5 -95.5z" />
    <glyph glyph-name="quoteleft.alt" horiz-adv-x="297" 
d="M218 708l28 -36q-36 -30 -55.5 -55t-29.5 -61q66 -25 66 -86q0 -40 -26.5 -64.5t-67.5 -24.5t-66.5 27.5t-25.5 68.5q0 72 56.5 135.5t120.5 95.5z" />
    <glyph glyph-name="quoteright.alt" horiz-adv-x="297" 
d="M79 381l-28 36q36 30 55.5 55t29.5 61q-66 25 -66 86q0 40 26.5 64.5t67.5 24.5t66.5 -27.5t25.5 -68.5q0 -72 -56.5 -135.5t-120.5 -95.5z" />
    <glyph glyph-name="quotesinglbase.alt" horiz-adv-x="297" 
d="M79 -146l-28 36q36 30 55.5 55t29.5 61q-66 25 -66 86q0 40 26.5 64.5t67.5 24.5t66.5 -27.5t25.5 -68.5q0 -72 -56.5 -135.5t-120.5 -95.5z" />
    <glyph glyph-name="quotedblbase.alt" horiz-adv-x="516" 
d="M298 -146l-28 36q36 30 55.5 55t29.5 61q-66 25 -66 86q0 40 26.5 64.5t67.5 24.5t66.5 -27.5t25.5 -68.5q0 -72 -56.5 -135.5t-120.5 -95.5zM79 -146l-28 36q36 30 55.5 55t29.5 61q-66 25 -66 86q0 40 26.5 64.5t67.5 24.5t66.5 -27.5t25.5 -68.5q0 -72 -56.5 -135.5
t-120.5 -95.5z" />
    <glyph glyph-name="arrow.l" horiz-adv-x="668" 
d="M385 522l-104 -107h351v-130h-351l104 -107l-91 -94l-265 266l265 266z" />
    <glyph glyph-name="arrow.r" horiz-adv-x="668" 
d="M367 84l-91 94l103 107h-350v130h350l-103 107l91 94l265 -266z" />
    <glyph glyph-name="arrow.u" horiz-adv-x="640" 
d="M492 296l-107 103v-350h-130v350l-107 -103l-94 91l266 265l266 -265z" />
    <glyph glyph-name="arrow.d" horiz-adv-x="640" 
d="M54 314l94 91l107 -104v351h130v-351l107 104l94 -91l-266 -265z" />
    <glyph glyph-name="arrow.ul" horiz-adv-x="629" 
d="M452 450h-151l248 -247l-92 -92l-247 246v-149h-134v376h376v-134z" />
    <glyph glyph-name="arrow.ur" horiz-adv-x="629" 
d="M553 208h-134v149l-247 -246l-92 92l248 247h-151v134h376v-376z" />
    <glyph glyph-name="arrow.dl" horiz-adv-x="629" 
d="M210 495v-149l247 246l92 -92l-248 -247h151v-134h-376v376h134z" />
    <glyph glyph-name="arrow.dr" horiz-adv-x="629" 
d="M177 119v134h151l-248 247l92 92l247 -246v149h134v-376h-376z" />
    <glyph glyph-name="arrow.l.xl" horiz-adv-x="786" 
d="M385 522l-104 -107h469v-130h-469l104 -107l-91 -94l-265 266l265 266z" />
    <glyph glyph-name="arrow.r.xl" horiz-adv-x="786" 
d="M492 84l-91 94l103 107h-468v130h468l-103 107l91 94l265 -266z" />
    <glyph glyph-name="arrow.u.xl" horiz-adv-x="640" 
d="M492 352l-107 103v-463h-130v463l-107 -103l-94 91l266 265l266 -265z" />
    <glyph glyph-name="arrow.d.xl" horiz-adv-x="640" 
d="M54 257l94 91l107 -104v464h130v-464l107 104l94 -91l-266 -265z" />
    <glyph glyph-name="arrow.ul.xl" horiz-adv-x="708" 
d="M452 490h-151l327 -327l-92 -92l-326 326v-149h-134v376h376v-134z" />
    <glyph glyph-name="arrow.ur.xl" horiz-adv-x="708" 
d="M632 248h-134v149l-326 -326l-92 92l327 327h-151v134h376v-376z" />
    <glyph glyph-name="arrow.dl.xl" horiz-adv-x="708" 
d="M210 451v-149l326 326l92 -92l-327 -327h151v-134h-376v376h134z" />
    <glyph glyph-name="arrow.dr.xl" horiz-adv-x="708" 
d="M256 75v134h151l-327 327l92 92l326 -326v149h134v-376h-376z" />
    <glyph glyph-name="dcaron.alt" horiz-adv-x="751" 
d="M608 517l-19 27q53 35 65 89q-23 6 -39 26t-16 45q0 33 21.5 53.5t56.5 20.5q33 0 54.5 -23t21.5 -57q0 -60 -44 -107.5t-101 -73.5zM34 252q0 120 60.5 190t161.5 70q79 0 120 -48v244h164v-708h-164v43q-42 -51 -117 -51q-103 0 -164 70t-61 190zM194 252q0 -60 26 -90
t69 -30t69 30t26 90t-26 90t-69 30t-69 -30t-26 -90z" />
    <glyph glyph-name="uni0123.alt" horiz-adv-x="521" 
d="M348 828l16 -27q-58 -33 -74 -94q23 -6 39 -26t16 -45q0 -33 -21.5 -53.5t-56.5 -20.5q-33 0 -54.5 23t-21.5 57q0 62 48.5 113.5t108.5 72.5zM266 512q47 0 89 -17l101 53l55 -93l-70 -36q18 -36 18 -77q0 -77 -55.5 -122.5t-137.5 -45.5q-34 0 -66 9q-18 -13 -18 -33
q0 -30 43 -30h94q89 0 136.5 -40t47.5 -113q0 -90 -68 -134.5t-168 -44.5q-108 0 -172 43t-64 123q0 56 41 99q-25 30 -25 79q0 26 17 56.5t48 47.5q-38 43 -38 106q0 77 55 123.5t137 46.5zM220 -4q-24 0 -47 4q-6 -18 -6 -32q0 -28 27 -44t73 -16q40 0 65 12.5t25 36.5
q0 39 -67 39h-70zM216 342q0 -22 14 -36t36 -14t36 14t14 36q0 23 -14 37.5t-36 14.5t-36 -14.5t-14 -37.5z" />
    <glyph glyph-name="lcaron.alt" horiz-adv-x="437" 
d="M294 517l-19 27q53 35 65 89q-23 6 -39 26t-16 45q0 33 21.5 53.5t56.5 20.5q33 0 54.5 -23t21.5 -57q0 -60 -44 -107.5t-101 -73.5zM62 708h164v-708h-164v708z" />
    <glyph glyph-name="napostrophe.alt" horiz-adv-x="603" 
d="M16 517l-19 27q53 35 65 89q-23 6 -39 26t-16 45q0 33 21.5 53.5t56.5 20.5q33 0 54.5 -23t21.5 -57q0 -60 -44 -107.5t-101 -73.5zM72 504h164v-58q21 30 59 48t84 18q168 0 168 -166v-346h-164v298q0 32 -15 50t-42 18q-42 0 -66 -37.5t-24 -107.5v-221h-164v504z" />
    <glyph glyph-name="tcaron.alt" horiz-adv-x="417" 
d="M298 517l-19 27q53 35 65 89q-23 6 -39 26t-16 45q0 33 21.5 53.5t56.5 20.5q33 0 54.5 -23t21.5 -57q0 -60 -44 -107.5t-101 -73.5zM368 152v-146q-40 -14 -80 -14q-89 0 -145 48t-56 138v200h-72v126h72v104l160 100v-204h127v-126h-127v-169q0 -73 57 -73q27 0 64 16z
" />
    <glyph glyph-name="plus.alt" horiz-adv-x="580" 
d="M220 565h140v-178h178v-140h-178v-178h-140v178h-178v140h178v178z" />
    <glyph glyph-name="plus.cap" horiz-adv-x="780" 
d="M320 700h140v-280h280v-140h-280v-280h-140v280h-280v140h280v280z" />
    </font>
</defs>
</svg>
